SplineFontDB: 3.0
FontName: CourerMegaUltraLight
FullName: Courer Mega UltraLight
FamilyName: Courer Mega UltraLight
Weight: Extra-Light
Copyright: Copyright (c) 2013 by Richard Alexander Hall. All rights reserved.
Version: 0.001 2013
ItalicAngle: 0
UnderlinePosition: -120
UnderlineWidth: 130
Ascent: 1638
Descent: 410
sfntRevision: 0x00000042
LayerCount: 2
Layer: 0 1 "Back"  1
Layer: 1 1 "Fore"  0
XUID: [1021 724 1758327272 1876797]
FSType: 0
OS2Version: 3
OS2_WeightWidthSlopeOnly: 0
OS2_UseTypoMetrics: 1
CreationTime: 1366113825
ModificationTime: 1366109065
PfmFamily: 17
TTFWeight: 200
TTFWidth: 5
LineGap: 0
VLineGap: 0
Panose: 2 0 5 9 0 0 0 2 0 4
OS2TypoAscent: 1421
OS2TypoAOffset: 0
OS2TypoDescent: -643
OS2TypoDOffset: 0
OS2TypoLinegap: 0
OS2WinAscent: 1797
OS2WinAOffset: 0
OS2WinDescent: 839
OS2WinDOffset: 0
HheadAscent: 1421
HheadAOffset: 0
HheadDescent: -643
HheadDOffset: 0
OS2SubXSize: 1434
OS2SubYSize: 1331
OS2SubXOff: 0
OS2SubYOff: 293
OS2SupXSize: 1434
OS2SupYSize: 1331
OS2SupXOff: 0
OS2SupYOff: 928
OS2StrikeYSize: 130
OS2StrikeYPos: 530
OS2FamilyClass: 1285
OS2Vendor: 'RAH7'
OS2CodePages: 00000093.00000000
OS2UnicodeRanges: a00000af.500068fb.00000000.00000000
DEI: 91125
LangName: 1033 "" "" "Regular" "RichardAlexanderHall: Courer Mega UltraLight: 2013" "" "Version 0.001 2013" "" "Courer Mega UltraLight is a trademark of Richard Alexander Hall." "Richard Alexander Hall" "Richard Alexander Hall" "Copyright (c) 2013 by Richard Alexander Hall. All rights reserved." "http://www.earthbound.io" "http://www.earthbound.io" "Copyright 2013 Richard Alexander Hall, All Rights Reserved." "" "" "Courer Mega UltraLight" "UltraLight" "Courer Mega UltraLight" 
GaspTable: 3 8 2 16 1 65535 3 0
Encoding: Custom
Compacted: 1
UnicodeInterp: none
NameList: Adobe Glyph List
DisplaySize: -96
AntiAlias: 1
FitToEm: 1
WinInfo: 0 26 13
BeginChars: 719 463

StartChar: exclam
Encoding: 261 33 5
Width: 1228
Flags: W
LayerCount: 2
Fore
SplineSet
573.016 400.308 m 2,0,-1
 536.016 1168.31 l 2,1,2
 535.727 1174.32 535.727 1174.32 540.058 1178.67 c 128,-1,3
 544.388 1183 544.388 1183 550 1183 c 2,4,-1
 677 1183 l 2,5,6
 683.012 1183 683.012 1183 687.137 1178.47 c 128,-1,7
 691.261 1173.93 691.261 1173.93 690.983 1168.31 c 2,8,-1
 652.983 400.308 l 2,9,10
 652.706 394.718 652.706 394.718 648.48 390.859 c 128,-1,11
 644.253 387 644.253 387 639 387 c 2,12,-1
 587 387 l 2,13,14
 581.401 387 581.401 387 577.336 391.031 c 128,-1,15
 573.27 395.053 573.27 395.053 573.016 400.308 c 2,0,-1
514.696 -15.4632 m 1,16,17
 475 20.8302 475 20.8302 475 71.5 c 128,-1,18
 475 122.174 475 122.174 514.06 157.839 c 0,19,20
 552.569 193 552.569 193 612.5 193 c 128,-1,21
 672.435 193 672.435 193 711.447 157.332 c 0,22,23
 751 121.17 751 121.17 751 71 c 0,24,25
 751 20.624 751 20.624 719.191 -7.06027 c 0,26,27
 668.705 -51 668.705 -51 612.234 -51 c 128,-1,28
 555.785 -51 555.785 -51 514.696 -15.4632 c 1,16,17
EndSplineSet
Validated: 524289
EndChar

StartChar: quotedbl
Encoding: 262 34 6
Width: 1228
Flags: W
LayerCount: 2
Fore
SplineSet
349.008 594.518 m 0,0,1
 337.883 917.221 337.883 917.221 328.012 1152.41 c 0,2,3
 327.76 1158.41 327.76 1158.41 332.117 1162.71 c 128,-1,4
 336.474 1167 336.474 1167 342 1167 c 2,5,-1
 496 1167 l 2,6,7
 502.001 1167 502.001 1167 506.099 1162.47 c 128,-1,8
 510.196 1157.94 510.196 1157.94 509.99 1152.47 c 2,9,-1
 488.99 594.474 l 2,10,11
 488.779 588.863 488.779 588.863 484.594 584.932 c 128,-1,12
 480.408 581 480.408 581 475 581 c 2,13,-1
 363 581 l 2,14,15
 357.381 581 357.381 581 353.289 585.035 c 128,-1,16
 349.196 589.07 349.196 589.07 349.008 594.518 c 0,0,1
741.01 594.474 m 2,17,-1
 720.01 1152.47 l 2,18,19
 719.784 1158.46 719.784 1158.46 724.159 1162.71 c 128,-1,20
 728.534 1166.99 728.534 1166.99 734 1167 c 2,21,-1
 887 1167 l 2,22,23
 893.001 1167 893.001 1167 897.099 1162.47 c 128,-1,24
 901.196 1157.94 901.196 1157.94 900.99 1152.47 c 2,25,-1
 879.99 594.474 l 2,26,27
 879.779 588.863 879.779 588.863 875.594 584.932 c 128,-1,28
 871.408 581 871.408 581 866 581 c 2,29,-1
 755 581 l 2,30,31
 749.386 581 749.386 581 745.3 585.035 c 128,-1,32
 741.213 589.069 741.213 589.069 741.01 594.474 c 2,17,-1
EndSplineSet
Validated: 524289
EndChar

StartChar: numbersign
Encoding: 263 35 7
Width: 1228
Flags: W
LayerCount: 2
Fore
SplineSet
818.796 947 m 1,0,-1
 844.024 1377.82 l 2,1,2
 844.35 1383.39 844.35 1383.39 848.607 1387.2 c 128,-1,3
 852.864 1391 852.864 1391 858 1391 c 2,4,-1
 909 1391 l 2,5,6
 915.022 1391 915.022 1391 919.173 1386.46 c 128,-1,7
 923.325 1381.93 923.325 1381.93 922.974 1376.15 c 2,8,-1
 896.877 947 l 1,9,-1
 1088 947 l 2,10,11
 1102 947 1102 947 1102 933 c 2,12,-1
 1102 843 l 2,13,14
 1102 829 1102 829 1088 829 c 2,15,-1
 891.242 829 l 1,16,-1
 869.801 444 l 1,17,-1
 1088 444 l 2,18,19
 1102 444 1102 444 1102 430 c 2,20,-1
 1102 341 l 2,21,22
 1102 327 1102 327 1088 327 c 2,23,-1
 864.211 327 l 1,24,-1
 837.976 -124.812 l 2,25,26
 837.653 -130.385 837.653 -130.385 833.398 -134.193 c 128,-1,27
 829.142 -138 829.142 -138 824 -138 c 2,28,-1
 773 -138 l 2,29,30
 766.981 -138.001 766.981 -138.001 762.835 -133.465 c 128,-1,31
 758.69 -128.928 758.69 -128.928 759.024 -123.188 c 2,32,-1
 785.164 327 l 1,33,-1
 446.453 327 l 1,34,35
 442.494 232.943 442.494 232.943 422.979 -124.762 c 0,36,37
 422.675 -130.354 422.675 -130.354 418.431 -134.193 c 128,-1,38
 414.188 -138.011 414.188 -138.011 409 -138 c 2,39,-1
 358 -138 l 2,40,41
 351.988 -138 351.988 -138 347.863 -133.465 c 128,-1,42
 343.739 -128.931 343.739 -128.931 344.017 -123.308 c 2,43,-1
 366.29 327 l 1,44,-1
 177 327 l 2,45,46
 163 327 163 327 163 341 c 2,47,-1
 163 430 l 2,48,49
 163 444 163 444 177 444 c 2,50,-1
 373.854 444 l 1,51,-1
 398.091 829 l 1,52,-1
 177 829 l 2,53,54
 163 829 163 829 163 843 c 2,55,-1
 163 933 l 2,56,57
 163 947 163 947 177 947 c 2,58,-1
 402.796 947 l 1,59,-1
 428.024 1377.82 l 2,60,61
 428.35 1383.39 428.35 1383.39 432.607 1387.2 c 128,-1,62
 436.864 1391 436.864 1391 442 1391 c 2,63,-1
 493 1391 l 2,64,65
 499.022 1391 499.022 1391 503.174 1386.46 c 128,-1,66
 507.325 1381.93 507.325 1381.93 506.974 1376.15 c 2,67,-1
 480.877 947 l 1,68,-1
 818.796 947 l 1,0,-1
790.758 444 m 1,69,-1
 812.199 829 l 1,70,-1
 475.242 829 l 1,71,-1
 453.801 444 l 1,72,-1
 790.758 444 l 1,69,-1
EndSplineSet
Validated: 524289
EndChar

StartChar: dollar
Encoding: 264 36 8
Width: 1228
Flags: W
LayerCount: 2
Fore
SplineSet
1005.74 749.108 m 0,0,1
 971.575 744.839 971.575 744.839 958.746 742.272 c 0,2,3
 953.056 741.134 953.056 741.134 948.207 744.536 c 128,-1,4
 943.359 747.939 943.359 747.939 942.284 753.194 c 0,5,6
 901.576 952.235 901.576 952.235 793.449 1034.91 c 0,7,8
 767.244 1055.2 767.244 1055.2 668 1077.6 c 1,9,-1
 668 613.446 l 1,10,11
 691.188 606.634 691.188 606.634 707.396 602.582 c 0,12,13
 727.628 597.523 727.628 597.523 745.346 592.461 c 0,14,15
 784.05 581.403 784.05 581.403 824.869 565.131 c 1,16,17
 1035 492.595 1035 492.595 1035 310 c 0,18,19
 1035 182.525 1035 182.525 932.03 103.399 c 0,20,21
 834.431 28.3995 834.431 28.3995 668 15.8933 c 1,22,-1
 668 -295 l 2,23,24
 668 -309 668 -309 654 -309 c 2,25,-1
 601 -309 l 2,26,27
 587 -309 587 -309 587 -295 c 2,28,-1
 587 16.7657 l 1,29,30
 508.816 21.8796 508.816 21.8796 449.571 42.1286 c 0,31,32
 448.6 42.4605 448.6 42.4605 447.688 42.9304 c 0,33,34
 359.758 88.2252 359.758 88.2252 304.949 148.763 c 1,35,36
 305.392 121.444 305.392 121.444 307.95 72.9786 c 1,37,38
 311.421 46.2781 311.421 46.2781 307.898 17.3098 c 0,39,40
 307.253 12.0133 307.253 12.0133 303.052 8.50666 c 128,-1,41
 298.85 5 298.85 5 294 5 c 2,42,-1
 243 5 l 2,43,44
 237.004 5 237.004 5 232.919 9.53125 c 128,-1,45
 228.833 14.0625 228.833 14.0625 229.007 19.4514 c 2,46,-1
 230 50.2257 l 1,47,-1
 230 82 l 2,48,49
 230 224.141 230 224.141 210.103 387.305 c 0,50,51
 209.335 393.599 209.335 393.599 213.742 398.299 c 128,-1,52
 218.148 403 218.148 403 224 403 c 2,53,-1
 276 403 l 2,54,55
 281.759 403 281.759 403 285.672 398.915 c 128,-1,56
 289.584 394.83 289.584 394.83 290.009 389.433 c 0,57,58
 290.253 388.799 290.253 388.799 290.522 388.261 c 0,59,60
 292.288 384.729 292.288 384.729 291.86 379.78 c 1,61,62
 321.824 227.064 321.824 227.064 411.293 161.279 c 0,63,64
 477.293 112.751 477.293 112.751 587 95.1959 c 1,65,-1
 587 549.896 l 1,66,67
 504.203 569.363 504.203 569.363 484.044 577.665 c 128,-1,68
 463.907 585.957 463.907 585.957 435.66 596.363 c 0,69,70
 405.854 607.344 405.854 607.344 369.672 629.571 c 0,71,72
 332.772 652.239 332.772 652.239 305.833 683.933 c 0,73,74
 249.874 749.757 249.874 749.757 244 857.237 c 0,75,76
 244 857.618 244 857.618 244 858 c 0,77,78
 244 989.492 244 989.492 336.954 1068.19 c 0,79,80
 424.808 1142.56 424.808 1142.56 587 1158.78 c 1,81,-1
 587 1370 l 2,82,83
 587 1384 587 1384 601 1384 c 2,84,-1
 654 1384 l 2,85,86
 668 1384 668 1384 668 1370 c 2,87,-1
 668 1159.54 l 1,88,89
 831.01 1126.88 831.01 1126.88 879.791 1073.99 c 0,90,91
 901.955 1049.96 901.955 1049.96 915.432 1035.11 c 1,92,93
 915.3 1049.72 915.3 1049.72 915.002 1069.79 c 0,94,95
 914.696 1090.31 914.696 1090.31 920.098 1135.66 c 0,96,97
 920.73 1140.96 920.73 1140.96 924.925 1144.48 c 128,-1,98
 929.121 1148 929.121 1148 934 1148 c 2,99,-1
 986 1148 l 2,100,101
 992.338 1148 992.338 1148 996.459 1143.06 c 128,-1,102
 1000.58 1138.12 1000.58 1138.12 999.904 1132.36 c 0,103,104
 998 1116.18 998 1116.18 998 1106 c 2,105,-1
 998 1085 l 2,106,107
 998 932.244 998 932.244 1017.9 764.652 c 0,108,109
 1018.59 758.891 1018.59 758.891 1014.81 754.331 c 128,-1,110
 1011.04 749.77 1011.04 749.77 1005.74 749.108 c 0,0,1
587 1080.36 m 1,111,112
 456.728 1064.48 456.728 1064.48 398.34 1011.57 c 0,113,114
 333 953.767 333 953.767 333 861 c 0,115,116
 333 717.443 333 717.443 503.728 663.346 c 0,117,118
 544.893 650.303 544.893 650.303 587 637.07 c 1,119,-1
 587 1080.36 l 1,111,112
668 95.7386 m 1,120,121
 786.93 110.6 786.93 110.6 838.803 141.009 c 0,122,123
 894.123 173.439 894.123 173.439 919.83 212.233 c 0,124,125
 945 250.218 945 250.218 945 300 c 0,126,127
 945 350.869 945 350.869 930.333 382.039 c 0,128,129
 915.495 413.569 915.495 413.569 890.996 436.22 c 0,130,131
 866.024 459.309 866.024 459.309 834.892 474.403 c 0,132,133
 802.682 490.019 802.682 490.019 769.514 501.238 c 0,134,135
 736.134 512.529 736.134 512.529 705.257 519.881 c 0,136,137
 685.342 524.623 685.342 524.623 668 529.382 c 1,138,-1
 668 95.7386 l 1,120,121
EndSplineSet
Validated: 524321
EndChar

StartChar: percent
Encoding: 265 37 9
Width: 1228
Flags: W
LayerCount: 2
Fore
SplineSet
1117 243 m 0,0,1
 1117 91.6366 1117 91.6366 982.285 9.54481 c 0,2,3
 909.185 -35 909.185 -35 830.628 -35 c 0,4,5
 753.016 -35 753.016 -35 698.791 -10.7831 c 0,6,7
 644.842 13.3103 644.842 13.3103 606.468 52.7351 c 0,8,9
 527 134.377 527 134.377 527 243 c 0,10,11
 527 346.339 527 346.339 603.208 428.99 c 0,12,13
 688.044 521 688.044 521 821 521 c 0,14,15
 960.304 521 960.304 521 1044.99 425.276 c 0,16,17
 1117 343.872 1117 343.872 1117 243 c 0,0,1
621 245 m 0,18,19
 621 163.78 621 163.78 677.569 105.227 c 0,20,21
 735.755 45 735.755 45 823.573 45 c 128,-1,22
 911.25 45 911.25 45 966.932 104.66 c 0,23,24
 1023 164.733 1023 164.733 1023 244.277 c 128,-1,25
 1023 323.752 1023 323.752 966.736 383.032 c 0,26,27
 910.767 442 910.767 442 821.525 442 c 128,-1,28
 732.284 442 732.284 442 676.79 383.532 c 0,29,30
 621 324.752 621 324.752 621 245 c 0,18,19
677 982.75 m 128,-1,32
 677 875.379 677 875.379 597.093 791.824 c 0,33,34
 516.929 708 516.929 708 384.171 708 c 128,-1,35
 251.536 708 251.536 708 168.729 791.942 c 128,-1,36
 86 875.806 86 875.806 86 983.473 c 128,-1,37
 86 1091.03 86 1091.03 168.475 1176.9 c 0,38,39
 251.18 1263 251.18 1263 383.163 1263 c 128,-1,40
 515.264 1263 515.264 1263 596.317 1176.31 c 0,41,31
 677 1090.02 677 1090.02 677 982.75 c 128,-1,32
381.993 787 m 128,-1,43
 469.232 787 469.232 787 525.514 845.295 c 0,44,45
 582 903.801 582 903.801 582 986.018 c 128,-1,46
 582 1068.23 582 1068.23 526.015 1126.23 c 0,47,48
 470.225 1184 470.225 1184 381.671 1184 c 128,-1,49
 293.179 1184 293.179 1184 237.24 1125.06 c 0,50,51
 181 1065.8 181 1065.8 181 985.24 c 128,-1,52
 181 904.745 181 904.745 237.976 845.771 c 0,53,42
 294.756 787 294.756 787 381.993 787 c 128,-1,43
187.327 488.799 m 2,54,-1
 1006.33 851.799 l 2,55,56
 1011.85 854.063 1011.85 854.063 1017.22 851.846 c 128,-1,57
 1022.6 849.63 1022.6 849.63 1024.79 844.686 c 2,58,-1
 1048.79 790.686 l 2,59,60
 1054.48 777.892 1054.48 777.892 1041.69 772.207 c 2,61,-1
 222.686 408.207 l 2,62,63
 217.23 405.782 217.23 405.782 211.707 408.281 c 128,-1,64
 206.185 410.78 206.185 410.78 204.168 415.401 c 2,65,-1
 180.144 470.401 l 2,66,67
 177.836 475.718 177.836 475.718 180.144 481.176 c 128,-1,68
 182.44 486.633 182.44 486.633 187.327 488.799 c 2,54,-1
EndSplineSet
Validated: 524289
EndChar

StartChar: ampersand
Encoding: 266 38 10
Width: 1228
Flags: W
LayerCount: 2
Fore
SplineSet
989.941 490 m 1,0,1
 940.156 348.424 940.156 348.424 871.271 213.065 c 1,2,-1
 973.353 65 l 1,3,-1
 1117 65 l 2,4,5
 1131 65 1131 65 1131 51 c 2,6,-1
 1131 0 l 2,7,8
 1131 -14 1131 -14 1117 -14 c 2,9,-1
 909 -14 l 2,10,11
 901.661 -14 901.661 -14 897.486 -7.96484 c 2,12,-1
 806.676 123.306 l 1,13,14
 750.847 60.3148 750.847 60.3148 732.098 47.5315 c 0,15,16
 712.896 34.4393 712.896 34.4393 693.906 21.4457 c 0,17,18
 692.263 20.322 692.263 20.322 690.298 19.6759 c 0,19,20
 614.859 -31 614.859 -31 526.542 -31 c 0,21,22
 426.379 -31 426.379 -31 380.329 -4.02445 c 0,23,24
 322.948 30.8167 322.948 30.8167 285.24 74.8951 c 0,25,26
 217.366 154.174 217.366 154.174 210.891 292.333 c 0,27,28
 205.223 411.247 205.223 411.247 266.507 492.31 c 0,29,30
 267.64 495.047 267.64 495.047 268.751 496.5 c 0,31,32
 336.249 584.837 336.249 584.837 456.996 641.07 c 1,33,34
 395.27 714.081 395.27 714.081 361.748 785.976 c 0,35,36
 337 839.055 337 839.055 337 893.579 c 128,-1,37
 337 948.088 337 948.088 357.298 991.886 c 128,-1,38
 377.538 1035.56 377.538 1035.56 413.248 1067.01 c 0,39,40
 488.188 1133 488.188 1133 606.04 1133 c 0,41,42
 722.286 1133 722.286 1133 878.907 1044.18 c 0,43,44
 886 1040.16 886 1040.16 886 1032 c 2,45,-1
 886 913 l 2,46,47
 886 899 886 899 872 899 c 2,48,-1
 815 899 l 2,49,50
 801 899 801 899 801 913 c 2,51,-1
 801 986.127 l 1,52,53
 763.792 1012.61 763.792 1012.61 663.976 1039.95 c 0,54,55
 639.449 1046 639.449 1046 598.5 1046 c 0,56,57
 516.275 1046 516.275 1046 481.274 1006.99 c 1,58,59
 442 965.888 442 965.888 442 906 c 0,60,61
 442 849.581 442 849.581 487.699 771.511 c 1,62,-1
 812.584 296.163 l 1,63,64
 862.64 403.606 862.64 403.606 885.067 458.487 c 0,65,66
 909.447 518.153 909.447 518.153 918.186 558.933 c 0,67,68
 920.572 570.067 920.572 570.067 931.958 570 c 2,69,-1
 1101.08 569 l 2,70,71
 1106.88 568.965 1106.88 568.965 1110.94 564.654 c 128,-1,72
 1115 560.343 1115 560.343 1115 555 c 2,73,-1
 1115 504 l 2,74,75
 1115 490 1115 490 1101 490 c 2,76,-1
 989.941 490 l 1,0,1
514.653 559.906 m 1,77,78
 317.875 480.879 317.875 480.879 317.875 301 c 0,79,80
 317.875 195.492 317.875 195.492 371.491 133.127 c 0,81,82
 435.271 58.9383 435.271 58.9383 533.067 58 c 0,83,84
 616.078 58 616.078 58 711.976 153.899 c 0,85,86
 734.387 176.311 734.387 176.311 756.736 201.6 c 1,87,-1
 514.653 559.906 l 1,77,78
EndSplineSet
Validated: 524321
EndChar

StartChar: quotesingle
Encoding: 267 39 11
Width: 1228
Flags: W
LayerCount: 2
Fore
SplineSet
542.033 591.029 m 0,0,1
 521.321 891.424 521.321 891.424 505.027 1152.12 c 0,2,3
 504.652 1158.14 504.652 1158.14 508.921 1162.57 c 128,-1,4
 513.19 1167 513.19 1167 519 1167 c 2,5,-1
 710 1167 l 2,6,7
 716.029 1167 716.029 1167 720.202 1162.46 c 128,-1,8
 724.376 1157.92 724.376 1157.92 723.966 1152.03 c 2,9,-1
 684.966 591.029 l 2,10,11
 684.581 585.478 684.581 585.478 680.289 581.739 c 128,-1,12
 675.997 578 675.997 578 671 578 c 2,13,-1
 556 578 l 2,14,15
 550.435 578 550.435 578 546.406 582.022 c 128,-1,16
 542.377 586.041 542.377 586.041 542.033 591.029 c 0,0,1
EndSplineSet
Validated: 524289
EndChar

StartChar: parenleft
Encoding: 268 40 12
Width: 1228
Flags: W
LayerCount: 2
Fore
SplineSet
871.309 -215.702 m 0,0,1
 759.068 -45.3392 759.068 -45.3392 684.719 173.571 c 1,2,3
 611 398.924 611 398.924 611 572 c 0,4,5
 611 741.553 611 741.553 683.708 969.397 c 1,6,7
 760.846 1194.57 760.846 1194.57 872.331 1362.74 c 0,8,9
 876.484 1369 876.484 1369 884 1369 c 2,10,-1
 941 1369 l 2,11,12
 955 1369 955 1369 955 1355 c 0,13,14
 955 1351.7 955 1351.7 953.522 1348.74 c 0,15,16
 940.285 1322.27 940.285 1322.27 934.005 1311.8 c 0,17,18
 928.194 1302.11 928.194 1302.11 923.873 1293.95 c 0,19,20
 919.195 1285.11 919.195 1285.11 914.505 1277.3 c 0,21,22
 910.326 1270.33 910.326 1270.33 903.102 1255.4 c 0,23,24
 826.679 1097.46 826.679 1097.46 790.665 983.6 c 0,25,26
 719 757.03 719 757.03 719 572 c 0,27,28
 719 253.394 719 253.394 907.533 -116.761 c 1,29,-1
 925.669 -154.04 l 2,30,31
 930.397 -164.441 930.397 -164.441 936.959 -175.221 c 0,32,33
 944.262 -187.218 944.262 -187.218 951.522 -201.739 c 0,34,35
 957.783 -214.261 957.783 -214.261 945.261 -220.522 c 0,36,37
 942.305 -222 942.305 -222 939 -222 c 2,38,-1
 883 -222 l 2,39,40
 875.458 -222 875.458 -222 871.309 -215.702 c 0,0,1
EndSplineSet
Validated: 524289
EndChar

StartChar: parenright
Encoding: 269 41 13
Width: 1228
Flags: W
LayerCount: 2
Fore
SplineSet
314.845 -201.054 m 0,0,1
 326.655 -180.386 326.655 -180.386 333.478 -166.739 c 2,2,-1
 355.228 -123.239 l 2,3,4
 364.463 -104.769 364.463 -104.769 376.929 -79.3379 c 0,5,6
 394.178 -44.1491 394.178 -44.1491 445.501 82.8067 c 0,7,8
 548 336.359 548 336.359 548 572 c 0,9,10
 548 810.955 548 810.955 450 1047.8 c 1,11,12
 395.112 1190 395.112 1190 313.55 1348.6 c 0,13,14
 307.147 1361.05 307.147 1361.05 319.597 1367.45 c 0,15,16
 322.611 1369 322.611 1369 326 1369 c 2,17,-1
 382 1369 l 2,18,19
 389.691 1369 389.691 1369 393.816 1362.51 c 0,20,21
 579.502 1070.3 579.502 1070.3 637.271 755.023 c 0,22,23
 655 658.266 655 658.266 655 572 c 0,24,25
 655 398.805 655 398.805 582.29 178.599 c 0,26,27
 512.111 -31.9419 512.111 -31.9419 393.768 -215.584 c 0,28,29
 389.633 -222 389.633 -222 382 -222 c 2,30,-1
 327 -222 l 2,31,32
 313 -222 313 -222 313 -208 c 0,33,34
 313 -204.282 313 -204.282 314.845 -201.054 c 0,0,1
EndSplineSet
Validated: 524289
EndChar

StartChar: asterisk
Encoding: 270 42 14
Width: 1228
Flags: W
LayerCount: 2
Fore
SplineSet
661.81 840.294 m 1,0,-1
 955.209 947.155 l 2,1,2
 960.845 949.207 960.845 949.207 966.239 946.349 c 128,-1,3
 971.632 943.491 971.632 943.491 973.311 938.337 c 2,4,-1
 1002.31 849.337 l 2,5,6
 1004.17 843.627 1004.17 843.627 1001.13 838.317 c 128,-1,7
 998.097 833.006 998.097 833.006 992.769 831.517 c 2,8,-1
 691.208 747.23 l 1,9,-1
 886.912 503.771 l 2,10,11
 890.627 498.805 890.627 498.805 889.687 492.912 c 128,-1,12
 888.748 487.018 888.748 487.018 884.33 483.748 c 2,13,-1
 807.33 426.748 l 2,14,15
 802.293 423.21 802.293 423.21 796.379 424.379 c 128,-1,16
 790.465 425.547 790.465 425.547 787.339 430.253 c 2,17,-1
 612.827 692.958 l 1,18,19
 561.948 618.125 561.948 618.125 438.705 430.319 c 0,20,21
 435.409 425.297 435.409 425.297 429.233 424.328 c 128,-1,22
 423.057 423.358 423.057 423.358 418.82 426.638 c 0,23,24
 378.9 455.38 378.9 455.38 341.515 483.864 c 0,25,26
 336.75 487.494 336.75 487.494 336.241 493.762 c 128,-1,27
 335.732 500.03 335.732 500.03 339.088 503.771 c 2,28,-1
 534.81 747.23 l 1,29,-1
 231.214 832.522 l 2,30,31
 225.422 834.148 225.422 834.148 222.665 839.634 c 128,-1,32
 219.909 845.119 219.909 845.119 221.749 850.517 c 2,33,-1
 251.749 938.517 l 2,34,35
 253.68 944.181 253.68 944.181 259.276 946.561 c 128,-1,36
 264.872 948.938 264.872 948.938 269.778 947.155 c 2,37,-1
 563.871 840.387 l 1,38,39
 556.26 983.682 556.26 983.682 552.005 1149.64 c 0,40,41
 551.851 1155.63 551.851 1155.63 556.275 1159.81 c 128,-1,42
 560.7 1164 560.7 1164 566 1164 c 2,43,-1
 660 1164 l 2,44,45
 666.003 1164 666.003 1164 670.104 1159.47 c 128,-1,46
 674.205 1154.93 674.205 1154.93 673.989 1149.45 c 2,47,-1
 661.81 840.294 l 1,0,-1
EndSplineSet
Validated: 524289
EndChar

StartChar: plus
Encoding: 271 43 15
Width: 1228
Flags: W
LayerCount: 2
Fore
SplineSet
1097 576 m 2,0,-1
 658 576 l 1,1,-1
 658 147 l 2,2,3
 658 133 658 133 644 133 c 2,4,-1
 586 133 l 2,5,6
 572 133 572 133 572 147 c 2,7,-1
 572 576 l 1,8,-1
 133 576 l 2,9,10
 119 576 119 576 119 590 c 2,11,-1
 119 648 l 2,12,13
 119 662 119 662 133 662 c 2,14,-1
 572 662 l 1,15,-1
 572 1092 l 2,16,17
 572 1106 572 1106 586 1106 c 2,18,-1
 644 1106 l 2,19,20
 658 1106 658 1106 658 1092 c 2,21,-1
 658 662 l 1,22,-1
 1097 662 l 2,23,24
 1111 662 1111 662 1111 648 c 2,25,-1
 1111 590 l 2,26,27
 1111 576 1111 576 1097 576 c 2,0,-1
EndSplineSet
Validated: 1
EndChar

StartChar: comma
Encoding: 272 44 16
Width: 1228
Flags: W
LayerCount: 2
Fore
SplineSet
376.639 -196.819 m 2,0,-1
 524.639 276.181 l 2,1,2
 527.711 286 527.711 286 538 286 c 2,3,-1
 706 286 l 2,4,5
 720 286 720 286 720 272 c 0,6,7
 720 268.993 720 268.993 718.765 266.252 c 2,8,-1
 505.765 -206.748 l 2,9,10
 502.05 -215 502.05 -215 493 -215 c 2,11,-1
 390 -215 l 2,12,13
 376 -215 376 -215 376 -201 c 0,14,15
 376 -198.861 376 -198.861 376.639 -196.819 c 2,0,-1
EndSplineSet
Validated: 524289
EndChar

StartChar: hyphen
Encoding: 273 45 17
Width: 1228
Flags: W
LayerCount: 2
Fore
SplineSet
816 567 m 2,0,-1
 408 567 l 2,1,2
 394 567 394 567 394 581 c 2,3,-1
 394 649 l 2,4,5
 394 663 394 663 408 663 c 2,6,-1
 816 663 l 2,7,8
 830 663 830 663 830 649 c 2,9,-1
 830 581 l 2,10,11
 830 567 830 567 816 567 c 2,0,-1
EndSplineSet
Validated: 1
EndChar

StartChar: period
Encoding: 274 46 18
Width: 1228
Flags: W
LayerCount: 2
Fore
SplineSet
768 105 m 128,-1,1
 768 47.7224 768 47.7224 722.18 7.92951 c 0,2,3
 677.353 -31 677.353 -31 614 -31 c 128,-1,4
 550.65 -31 550.65 -31 516.759 -1.57043 c 0,5,6
 460 47.7227 460 47.7227 460 105 c 128,-1,7
 460 162.279 460 162.279 505.82 202.07 c 0,8,9
 550.649 241 550.649 241 614 241 c 128,-1,10
 677.351 241 677.351 241 711.241 211.57 c 0,11,0
 768 162.278 768 162.278 768 105 c 128,-1,1
EndSplineSet
Validated: 524289
EndChar

StartChar: slash
Encoding: 275 47 19
Width: 1228
Flags: W
LayerCount: 2
Fore
SplineSet
207.28 -236.153 m 2,0,-1
 971.28 1425.85 l 2,1,2
 976.86 1437.99 976.86 1437.99 989.247 1432.98 c 2,3,-1
 1036.25 1413.98 l 2,4,5
 1041.82 1411.73 1041.82 1411.73 1043.98 1405.87 c 128,-1,6
 1046.14 1400.01 1046.14 1400.01 1043.72 1395.16 c 2,7,-1
 278.721 -269.845 l 2,8,9
 276.225 -275.279 276.225 -275.279 270.193 -277.137 c 128,-1,10
 264.161 -278.996 264.161 -278.996 259.96 -276.63 c 2,11,-1
 213.96 -254.63 l 2,12,13
 208.736 -252.132 208.736 -252.132 206.866 -246.35 c 128,-1,14
 204.996 -240.567 204.996 -240.567 207.28 -236.153 c 2,0,-1
EndSplineSet
Validated: 524289
EndChar

StartChar: zero
Encoding: 276 48 20
Width: 1228
Flags: W
LayerCount: 2
Fore
SplineSet
398.234 159.881 m 1,0,1
 574.453 619.985 574.453 619.985 785.794 1166.65 c 1,2,3
 716.99 1238 716.99 1238 613 1238 c 0,4,5
 368.403 1238 368.403 1238 318.885 854.208 c 0,6,7
 305 746.593 305 746.593 305 664.25 c 0,8,9
 305 363 305 363 376.73 200.829 c 0,10,11
 387.156 178.818 387.156 178.818 398.234 159.881 c 1,0,1
1014 635 m 0,12,13
 1014 307.905 1014 307.905 912.132 136.011 c 1,14,15
 813.01 -41 813.01 -41 613 -41 c 0,16,17
 509.587 -41 509.587 -41 430.785 9.22998 c 1,18,-1
 380.072 -123.013 l 2,19,20
 377.93 -128.598 377.93 -128.598 372.25 -130.762 c 128,-1,21
 366.57 -132.925 366.57 -132.925 361.758 -130.981 c 2,22,-1
 309.758 -109.981 l 2,23,24
 304.393 -107.815 304.393 -107.815 302.236 -102.323 c 128,-1,25
 300.079 -96.8306 300.079 -96.8306 301.921 -92.0073 c 0,26,27
 332.573 -11.7092 332.573 -11.7092 362.888 67.536 c 1,28,29
 335.593 98.0559 335.593 98.0559 312.867 137.014 c 0,30,31
 213 312.647 213 312.647 213 640 c 0,32,33
 213 1057.78 213 1057.78 383.1 1227.9 c 0,34,35
 383.44 1228.24 383.44 1228.24 383.8 1228.55 c 0,36,37
 480.672 1313 480.672 1313 613 1313 c 0,38,39
 675.168 1313 675.168 1313 730.117 1293.17 c 0,40,41
 782.595 1274.23 782.595 1274.23 817.216 1247.9 c 1,42,43
 833.638 1290.35 833.638 1290.35 850.944 1335.05 c 0,44,45
 853.035 1340.46 853.035 1340.46 858.502 1342.7 c 128,-1,46
 863.968 1344.95 863.968 1344.95 868.888 1343.12 c 2,47,-1
 919.888 1324.12 l 2,48,49
 925.485 1322.03 925.485 1322.03 927.688 1316.38 c 128,-1,50
 929.891 1310.73 929.891 1310.73 928.072 1305.99 c 2,51,-1
 881.237 1183.86 l 1,52,53
 930.379 1120.17 930.379 1120.17 972.132 990.164 c 0,54,55
 1014 859.806 1014 859.806 1014 635 c 0,12,13
921 638 m 0,56,57
 921 837.458 921 837.458 887.428 960.554 c 1,58,59
 879.63 993.694 879.63 993.694 868.064 1021.65 c 1,60,61
 856.502 1055.1 856.502 1055.1 842.643 1083.22 c 1,62,-1
 460.386 86.4193 l 1,63,64
 531.648 34 531.648 34 601.957 34 c 0,65,66
 676.24 34 676.24 34 720.485 59.616 c 0,67,68
 765.962 85.9448 765.962 85.9448 793.925 118.175 c 0,69,70
 822.29 150.868 822.29 150.868 843.008 191.82 c 0,71,72
 921 345.988 921 345.988 921 638 c 0,56,57
EndSplineSet
Validated: 524289
EndChar

StartChar: one
Encoding: 277 49 21
Width: 1228
Flags: W
LayerCount: 2
Fore
SplineSet
217.32 1106.8 m 2,0,-1
 618.32 1284.8 l 2,1,2
 621.032 1286 621.032 1286 624 1286 c 2,3,-1
 662 1286 l 2,4,5
 676 1286 676 1286 676 1272 c 2,6,-1
 676 65 l 1,7,-1
 1032 65 l 2,8,9
 1046 65 1046 65 1046 51 c 2,10,-1
 1046 0 l 2,11,12
 1046 -14 1046 -14 1032 -14 c 2,13,-1
 227 -14 l 2,14,15
 213 -14 213 -14 213 0 c 2,16,-1
 213 51 l 2,17,18
 213 65 213 65 227 65 c 2,19,-1
 591 65 l 1,20,-1
 591 1189.07 l 1,21,-1
 250.891 1031.3 l 2,22,23
 245.07 1028.95 245.07 1028.95 239.674 1031.26 c 128,-1,24
 234.278 1033.58 234.278 1033.58 232.174 1038.39 c 0,25,26
 213.512 1081.02 213.512 1081.02 210.234 1088.21 c 0,27,28
 207.772 1093.64 207.772 1093.64 210.234 1099.19 c 128,-1,29
 212.684 1104.74 212.684 1104.74 217.32 1106.8 c 2,0,-1
EndSplineSet
Validated: 524289
EndChar

StartChar: two
Encoding: 278 50 22
Width: 1228
Flags: W
LayerCount: 2
Fore
SplineSet
398.562 1154.63 m 0,0,1
 298.335 1101.45 298.335 1101.45 288.952 988.837 c 0,2,3
 288.503 983.447 288.503 983.447 284.408 979.724 c 128,-1,4
 280.313 976 280.313 976 275 976 c 2,5,-1
 214 976 l 2,6,7
 200 976 200 976 200 990 c 2,8,-1
 200 1098 l 2,9,10
 200 1103.23 200 1103.23 203.43 1107.18 c 0,11,12
 336.994 1260.98 336.994 1260.98 517.815 1282.9 c 0,13,14
 533.875 1284.85 533.875 1284.85 541.42 1286.26 c 0,15,16
 550.697 1288 550.697 1288 562.5 1288 c 2,17,-1
 581 1288 l 2,18,19
 682.413 1288 682.413 1288 772.432 1241.44 c 0,20,21
 862.74 1194.72 862.74 1194.72 921.75 1103.61 c 0,22,23
 981 1012.13 981 1012.13 981 898 c 0,24,25
 981 802.855 981 802.855 941.873 728.95 c 0,26,27
 928.106 702.946 928.106 702.946 905.804 667.973 c 0,28,29
 882.93 632.103 882.93 632.103 822.272 572.975 c 0,30,31
 762.755 514.959 762.755 514.959 698.741 452.945 c 128,-1,32
 634.663 390.871 634.663 390.871 583.045 342.759 c 128,-1,33
 531.568 294.777 531.568 294.777 475.871 244.599 c 0,34,35
 362.574 142.527 362.574 142.527 267.436 65 c 1,36,-1
 899 65 l 1,37,-1
 899 265 l 2,38,39
 899 279 899 279 913 279 c 2,40,-1
 965 279 l 2,41,42
 979 279 979 279 979 265 c 2,43,-1
 979 0 l 2,44,45
 979 -14 979 -14 965 -14 c 2,46,-1
 171 -14 l 2,47,48
 157 -14 157 -14 157 0 c 2,49,-1
 157 78 l 2,50,51
 157 84.4151 157 84.4151 161.859 88.6038 c 0,52,53
 274.548 185.749 274.548 185.749 410.508 309.502 c 0,54,55
 708.5 580.736 708.5 580.736 818.118 701.893 c 0,56,57
 845.006 731.611 845.006 731.611 858.083 762.898 c 0,58,59
 886 829.696 886 829.696 886 904.946 c 0,60,61
 886 979.551 886 979.551 854.598 1039.5 c 0,62,63
 824.534 1096.9 824.534 1096.9 776.994 1132.58 c 1,64,-1
 772.74 1134.7 l 1,65,66
 682.003 1201 682.003 1201 576 1201 c 0,67,68
 484.411 1201 484.411 1201 401.705 1156.88 c 0,69,70
 399.921 1155.35 399.921 1155.35 398.562 1154.63 c 0,0,1
EndSplineSet
Validated: 524289
EndChar

StartChar: three
Encoding: 279 51 23
Width: 1228
Flags: W
LayerCount: 2
Fore
SplineSet
204.745 124.767 m 0,0,1
 404.229 35 404.229 35 542.111 35 c 0,2,3
 677.968 35 677.968 35 777.584 117.293 c 0,4,5
 876 198.596 876 198.596 876 341 c 0,6,7
 876 480.251 876 480.251 762.01 564.498 c 1,8,9
 718.173 593.078 718.173 593.078 687.317 601.493 c 0,10,11
 685.177 602.077 685.177 602.077 682.799 603.636 c 0,12,13
 622.094 623 622.094 623 532 623 c 2,14,-1
 500 623 l 2,15,16
 486 623 486 623 486 637 c 2,17,-1
 486 687 l 2,18,19
 486 692.613 486 692.613 490.034 696.698 c 128,-1,20
 494.069 700.782 494.069 700.782 499.462 700.99 c 0,21,22
 625.547 705.841 625.547 705.841 685.777 745.677 c 0,23,24
 806 825.192 806 825.192 806 946.335 c 0,25,26
 806 1068.78 806 1068.78 728.785 1138.46 c 1,27,28
 647.79 1207 647.79 1207 537.836 1207 c 1,29,30
 433.967 1209.42 433.967 1209.42 310.178 1135.48 c 0,31,32
 274.469 1114.16 274.469 1114.16 240.606 1092.25 c 0,33,34
 235.05 1089.16 235.05 1089.16 229.485 1090.69 c 128,-1,35
 223.92 1092.23 223.92 1092.23 221.221 1096.43 c 0,36,37
 218.128 1101.25 218.128 1101.25 194.995 1139.8 c 0,38,39
 188.018 1151.42 188.018 1151.42 199.417 1158.77 c 0,40,41
 277.505 1209.08 277.505 1209.08 362.87 1247.15 c 0,42,43
 450.01 1286 450.01 1286 528.5 1286 c 0,44,45
 606.32 1286 606.32 1286 670.024 1264.25 c 0,46,47
 733.929 1242.43 733.929 1242.43 784.408 1200.8 c 0,48,49
 897 1107.95 897 1107.95 897 961 c 0,50,51
 897 809.101 897 809.101 783.42 715.21 c 0,52,53
 757.064 693.422 757.064 693.422 723.111 675.504 c 1,54,55
 794.964 648.835 794.964 648.835 845.399 598.399 c 0,56,57
 864.078 579.72 864.078 579.72 890.753 551.033 c 0,58,59
 963 473.334 963 473.334 963 345 c 0,60,61
 963 169.73 963 169.73 842.321 62.0537 c 0,62,63
 722.34 -45 722.34 -45 540 -45 c 0,64,65
 429.93 -45 429.93 -45 311.196 -1.98006 c 0,66,67
 308.896 -1.79901 308.896 -1.79901 307.016 -1.08282 c 0,68,69
 246.53 21.9597 246.53 21.9597 173.655 52.0603 c 0,70,71
 168.133 54.3413 168.133 54.3413 166.044 60.3089 c 128,-1,72
 163.954 66.2765 163.954 66.2765 166.118 70.4818 c 2,73,-1
 186.118 117.482 l 2,74,75
 188.461 122.989 188.461 122.989 194.425 125.021 c 128,-1,76
 200.388 127.054 200.388 127.054 204.745 124.767 c 0,0,1
EndSplineSet
Validated: 524321
EndChar

StartChar: four
Encoding: 280 52 24
Width: 1228
Flags: W
LayerCount: 2
Fore
SplineSet
173.956 380.137 m 0,0,1
 665.6 1209.8 665.6 1209.8 706.976 1279.17 c 0,2,3
 711.049 1286 711.049 1286 719 1286 c 2,4,-1
 777 1286 l 2,5,6
 791 1286 791 1286 791 1272 c 2,7,-1
 791 383 l 1,8,-1
 972 383 l 2,9,10
 986 383 986 383 986 369 c 2,11,-1
 986 316 l 2,12,13
 986 302 986 302 972 302 c 2,14,-1
 791 302 l 1,15,-1
 791 65 l 1,16,-1
 972 65 l 2,17,18
 986 65 986 65 986 51 c 2,19,-1
 986 0 l 2,20,21
 986 -14 986 -14 972 -14 c 2,22,-1
 431 -14 l 2,23,24
 417 -14 417 -14 417 0 c 2,25,-1
 417 51 l 2,26,27
 417 65 417 65 431 65 c 2,28,-1
 709 65 l 1,29,-1
 709 302 l 1,30,-1
 186 302 l 2,31,32
 172 302 172 302 172 316 c 2,33,-1
 172 373 l 2,34,35
 172 376.837 172 376.837 173.956 380.137 c 0,0,1
709 383 m 1,36,-1
 709 1133.32 l 1,37,-1
 268.455 383 l 1,38,-1
 709 383 l 1,36,-1
EndSplineSet
Validated: 524289
EndChar

StartChar: five
Encoding: 281 53 25
Width: 1228
Flags: W
LayerCount: 2
Fore
SplineSet
324 728.89 m 1,0,1
 488.049 795 488.049 795 597 795 c 0,2,3
 784 795 784 795 898.138 675.155 c 0,4,5
 1012 555.599 1012 555.599 1012 382 c 0,6,7
 1012 183.536 1012 183.536 872.32 56.5519 c 1,8,9
 756.262 -45 756.262 -45 569 -45 c 0,10,11
 467.139 -45 467.139 -45 404.344 -28.0143 c 0,12,13
 273.819 7.29207 273.819 7.29207 187.761 42.0171 c 0,14,15
 182.224 44.2514 182.224 44.2514 180.179 49.9583 c 128,-1,16
 178.133 55.6651 178.133 55.6651 180.055 60.3305 c 2,17,-1
 201.055 111.33 l 2,18,19
 203.333 116.863 203.333 116.863 209.276 118.964 c 128,-1,20
 215.22 121.065 215.22 121.065 219.574 118.842 c 0,21,22
 398.909 41 398.909 41 569 41 c 0,23,24
 736.113 41 736.113 41 827.498 134.296 c 128,-1,25
 919 227.711 919 227.711 919 373 c 128,-1,26
 919 518.485 919 518.485 826.843 617.459 c 0,27,28
 735.091 716 735.091 716 586.089 716 c 0,29,30
 435.461 716 435.461 716 298.099 618.58 c 0,31,32
 290.969 613.524 290.969 613.524 283.296 617.709 c 0,33,34
 271.919 623.915 271.919 623.915 255.58 634.128 c 0,35,36
 249 638.241 249 638.241 249 646 c 2,37,-1
 249 1241 l 2,38,39
 249 1255 249 1255 263 1255 c 2,40,-1
 936 1255 l 2,41,42
 950 1255 950 1255 950 1241 c 2,43,-1
 950 1188 l 2,44,45
 950 1174 950 1174 936 1174 c 2,46,-1
 324 1174 l 1,47,-1
 324 728.89 l 1,0,1
EndSplineSet
Validated: 524321
EndChar

StartChar: six
Encoding: 282 54 26
Width: 1228
Flags: W
LayerCount: 2
Fore
SplineSet
990.118 1204.03 m 2,0,-1
 943.058 1207 l 1,1,-1
 899.956 1207 l 1,2,3
 614.222 1208.99 614.222 1208.99 462.817 1053.72 c 128,-1,4
 311.412 898.446 311.412 898.446 290.79 581.729 c 1,5,6
 340.259 651.825 340.259 651.825 416.007 699.826 c 0,7,8
 518.855 765 518.855 765 612.461 765 c 0,9,10
 705.321 765 705.321 765 772.8 731.003 c 0,11,12
 839.777 697.258 839.777 697.258 888.602 640.643 c 0,13,14
 992 520.75 992 520.75 992 355 c 0,15,16
 992 193.334 992 193.334 885.377 75.6021 c 0,17,18
 776.155 -45 776.155 -45 620 -45 c 0,19,20
 466.198 -45 466.198 -45 346.6 74.6005 c 0,21,22
 196 225.204 196 225.204 196 537 c 0,23,24
 196 988.158 196 988.158 487.075 1191.54 c 1,25,26
 572.504 1249.18 572.504 1249.18 655.771 1265.73 c 0,27,28
 797.626 1293.93 797.626 1293.93 911.122 1292 c 1,29,-1
 950 1292 l 2,30,31
 969.362 1292 969.362 1292 991.636 1290.98 c 0,32,33
 997.233 1290.73 997.233 1290.73 1001.12 1286.52 c 128,-1,34
 1005 1282.31 1005 1282.31 1005 1277 c 2,35,-1
 1005 1218 l 2,36,37
 1005 1211.98 1005 1211.98 1000.46 1207.82 c 128,-1,38
 995.925 1203.66 995.925 1203.66 990.118 1204.03 c 2,0,-1
358.714 547.284 m 0,39,40
 323.246 504.418 323.246 504.418 295.14 435.618 c 1,41,42
 309.52 166.903 309.52 166.903 490.399 73.952 c 0,43,44
 554.522 41 554.522 41 615.568 41 c 0,45,46
 677.034 41 677.034 41 727.325 63.2983 c 128,-1,47
 777.623 85.5997 777.623 85.5997 815.135 126.911 c 0,48,49
 897 217.067 897 217.067 897 355 c 0,50,51
 897 486.166 897 486.166 818.159 582.641 c 128,-1,52
 739.413 679 739.413 679 625 679 c 0,53,54
 529.999 679 529.999 679 438.571 620.224 c 0,55,56
 398.406 594.403 398.406 594.403 361.793 550.084 c 0,57,58
 360.738 548.807 360.738 548.807 358.714 547.284 c 0,39,40
EndSplineSet
Validated: 524321
EndChar

StartChar: seven
Encoding: 283 55 27
Width: 1228
Flags: W
LayerCount: 2
Fore
SplineSet
600 -14 m 2,0,-1
 531 -14 l 2,1,2
 517 -14 517 -14 517 0 c 0,3,4
 517 2.45729 517 2.45729 517.837 4.76752 c 2,5,-1
 942.039 1176 l 1,6,-1
 283 1176 l 1,7,-1
 283 1011 l 2,8,9
 283 997 283 997 269 997 c 2,10,-1
 214 997 l 2,11,12
 200 997 200 997 200 1011 c 2,13,-1
 200 1241 l 2,14,15
 200 1255 200 1255 214 1255 c 2,16,-1
 1014 1255 l 2,17,18
 1028 1255 1028 1255 1028 1241 c 2,19,-1
 1028 1191 l 2,20,21
 1028 1188.64 1028 1188.64 1027.22 1186.4 c 2,22,-1
 613.224 -4.5967 l 2,23,24
 609.955 -14 609.955 -14 600 -14 c 2,0,-1
EndSplineSet
Validated: 524289
EndChar

StartChar: eight
Encoding: 284 56 28
Width: 1228
Flags: W
LayerCount: 2
Fore
SplineSet
322.245 743.037 m 0,0,1
 250 829.733 250 829.733 250 957.9 c 0,2,3
 250 1087.12 250 1087.12 359.5 1188.28 c 0,4,5
 468.519 1289 468.519 1289 631 1289 c 128,-1,6
 793.475 1289 793.475 1289 904.401 1186.38 c 1,7,8
 1015 1088.3 1015 1088.3 1015 945 c 0,9,10
 1015 869.247 1015 869.247 966.279 780.276 c 0,11,12
 924.626 704.22 924.626 704.22 804.742 634.247 c 1,13,14
 932.381 572.586 932.381 572.586 984.039 487.146 c 1,15,16
 1039 392.781 1039 392.781 1039 319 c 0,17,18
 1039 192.064 1039 192.064 939.573 77.8234 c 0,19,20
 891.441 22.3659 891.441 22.3659 811.444 -11.3982 c 0,21,22
 731.831 -45 731.831 -45 632 -45 c 0,23,24
 432.344 -45 432.344 -45 323.383 77.8722 c 1,25,26
 225 195.929 225 195.929 225 301.5 c 0,27,28
 225 406.2 225 406.2 283.309 494.702 c 0,29,30
 284.221 496.086 284.221 496.086 286.25 497.986 c 0,31,32
 342.072 577.63 342.072 577.63 459.834 634.158 c 1,33,34
 383.723 678.279 383.723 678.279 327.654 739.061 c 1,35,36
 324.454 740.386 324.454 740.386 322.245 743.037 c 0,0,1
833.683 751.475 m 0,37,38
 920.986 829.475 920.986 829.475 921 948.606 c 0,39,40
 921 1067.33 921 1067.33 833.683 1138.13 c 0,41,42
 745.034 1210 745.034 1210 650 1210 c 0,43,44
 553.221 1210 553.221 1210 498.629 1183.41 c 0,45,46
 443.692 1156.66 443.692 1156.66 409.067 1116.82 c 0,47,48
 343 1040.8 343 1040.8 343 942 c 0,49,50
 343 844.454 343 844.454 424.148 757.645 c 1,51,52
 505.941 673 505.941 673 625 673 c 0,53,54
 744.7 673 744.7 673 833.683 751.475 c 0,37,38
859.937 507.266 m 1,55,56
 774.114 595 774.114 595 632 595 c 0,57,58
 478.195 595 478.195 595 396.53 500.773 c 1,59,60
 320 414.43 320 414.43 320 308 c 0,61,62
 320 203.152 320 203.152 410.043 119.275 c 0,63,64
 500.512 35 500.512 35 632 35 c 128,-1,65
 763.471 35 763.471 35 852.425 118.214 c 0,66,67
 944 204.064 944 204.064 944 311.5 c 0,68,69
 944 419.381 944 419.381 859.937 507.266 c 1,55,56
EndSplineSet
Validated: 524321
EndChar

StartChar: nine
Encoding: 285 57 29
Width: 1228
Flags: W
LayerCount: 2
Fore
SplineSet
170.736 41.8919 m 0,0,1
 193.872 39 193.872 39 209.5 39 c 2,2,-1
 260.048 39 l 1,3,4
 553.503 36.9626 553.503 36.9626 702.805 195.595 c 0,5,6
 849.441 351.395 849.441 351.395 869.313 665.34 c 1,7,8
 819.056 593.743 819.056 593.743 743.994 546.174 c 0,9,10
 641.149 481 641.149 481 547.539 481 c 0,11,12
 454.676 481 454.676 481 387.2 514.997 c 0,13,14
 320.221 548.744 320.221 548.744 271.398 605.357 c 0,15,16
 168 725.25 168 725.25 168 891 c 0,17,18
 168 1053.77 168 1053.77 273.623 1170.4 c 0,19,20
 382.849 1291 382.849 1291 540 1291 c 0,21,22
 693.809 1291 693.809 1291 813.399 1171.4 c 0,23,24
 964 1020.79 964 1020.79 964 709 c 0,25,26
 964 396.159 964 396.159 811.265 184.687 c 1,27,28
 757.804 113.749 757.804 113.749 672.925 55.4594 c 0,29,30
 587.552 -3.17023 587.552 -3.17023 504.229 -19.7314 c 0,31,32
 362.388 -47.9236 362.388 -47.9236 248.881 -46 c 1,33,-1
 210 -46 l 2,34,35
 190.682 -46 190.682 -46 168.364 -44.9856 c 0,36,37
 162.767 -44.7312 162.767 -44.7312 158.884 -40.5183 c 128,-1,38
 155 -36.3055 155 -36.3055 155 -31 c 2,39,-1
 155 28 l 2,40,41
 155 34.3417 155 34.3417 159.944 38.4824 c 128,-1,42
 164.887 42.623 164.887 42.623 170.736 41.8919 c 0,0,1
801.391 698.81 m 0,43,44
 837.559 742.246 837.559 742.246 864.829 810.251 c 1,45,46
 847.034 1080.88 847.034 1080.88 669.601 1172.05 c 0,47,48
 605.475 1205 605.475 1205 544.432 1205 c 0,49,50
 482.957 1205 482.957 1205 432.675 1182.7 c 128,-1,51
 382.369 1160.39 382.369 1160.39 344.865 1119.09 c 0,52,53
 263 1028.93 263 1028.93 263 891 c 0,54,55
 263 759.838 263 759.838 341.841 663.359 c 128,-1,56
 420.583 567 420.583 567 535 567 c 0,57,58
 629.071 567 629.071 567 721.529 625.34 c 0,59,60
 761.574 650.608 761.574 650.608 798.113 695.802 c 0,61,62
 799.155 697.091 799.155 697.091 801.391 698.81 c 0,43,44
EndSplineSet
Validated: 524321
EndChar

StartChar: colon
Encoding: 286 58 30
Width: 1228
Flags: W
LayerCount: 2
Fore
SplineSet
768 105 m 128,-1,1
 768 47.7224 768 47.7224 722.18 7.92951 c 0,2,3
 677.353 -31 677.353 -31 614 -31 c 128,-1,4
 550.65 -31 550.65 -31 516.759 -1.57043 c 0,5,6
 460 47.7227 460 47.7227 460 105 c 128,-1,7
 460 162.279 460 162.279 505.82 202.07 c 0,8,9
 550.649 241 550.649 241 614 241 c 128,-1,10
 677.351 241 677.351 241 711.241 211.57 c 0,11,0
 768 162.278 768 162.278 768 105 c 128,-1,1
768 659 m 128,-1,13
 768 601.72 768 601.72 722.18 561.93 c 0,14,15
 677.354 523 677.354 523 614 523 c 128,-1,16
 550.649 523 550.649 523 516.759 552.43 c 0,17,18
 460 601.724 460 601.724 460 659 c 128,-1,19
 460 716.278 460 716.278 505.82 756.07 c 0,20,21
 550.647 795 550.647 795 614 795 c 128,-1,22
 677.351 795 677.351 795 711.241 765.57 c 0,23,12
 768 716.276 768 716.276 768 659 c 128,-1,13
EndSplineSet
Validated: 524289
EndChar

StartChar: semicolon
Encoding: 287 59 31
Width: 1228
Flags: W
LayerCount: 2
Fore
SplineSet
378.655 -216.768 m 2,0,-1
 528.655 256.232 l 2,1,2
 531.753 266 531.753 266 542 266 c 2,3,-1
 707 266 l 2,4,5
 721 266 721 266 721 252 c 0,6,7
 721 248.98 721 248.98 719.755 246.229 c 2,8,-1
 505.755 -226.771 l 2,9,10
 502.032 -235 502.032 -235 493 -235 c 2,11,-1
 392 -235 l 2,12,13
 378 -235 378 -235 378 -221 c 0,14,15
 378 -218.833 378 -218.833 378.655 -216.768 c 2,0,-1
768 660 m 128,-1,17
 768 602.72 768 602.72 722.18 562.93 c 0,18,19
 677.354 524 677.354 524 614 524 c 128,-1,20
 550.649 524 550.649 524 516.759 553.43 c 0,21,22
 460 602.724 460 602.724 460 660 c 128,-1,23
 460 717.278 460 717.278 505.82 757.07 c 0,24,25
 550.647 796 550.647 796 614 796 c 128,-1,26
 677.351 796 677.351 796 711.241 766.57 c 0,27,16
 768 717.276 768 717.276 768 660 c 128,-1,17
EndSplineSet
Validated: 524289
EndChar

StartChar: less
Encoding: 288 60 32
Width: 1228
Flags: W
LayerCount: 2
Fore
SplineSet
300.223 631.117 m 1,0,1
 952.96 330.591 952.96 330.591 1101.81 262.739 c 0,2,3
 1107.24 260.26 1107.24 260.26 1109.12 254.222 c 128,-1,4
 1110.99 248.185 1110.99 248.185 1108.67 244.051 c 2,5,-1
 1085.67 195.051 l 2,6,7
 1083.21 189.805 1083.21 189.805 1077.45 187.891 c 128,-1,8
 1071.7 185.976 1071.7 185.976 1067.19 188.262 c 0,9,10
 914.644 257.82 914.644 257.82 703.833 356.582 c 0,11,12
 305.027 543.406 305.027 543.406 142.153 618.28 c 0,13,14
 129.432 624.127 129.432 624.127 135.28 636.847 c 0,15,16
 137.397 641.453 137.397 641.453 141.972 643.636 c 2,17,-1
 1057.97 1080.64 l 2,18,19
 1063.87 1082.99 1063.87 1082.99 1069.2 1080.75 c 128,-1,20
 1074.53 1078.5 1074.53 1078.5 1076.67 1073.96 c 0,21,22
 1087.46 1051.03 1087.46 1051.03 1100.74 1021.79 c 0,23,24
 1103.02 1016.22 1103.02 1016.22 1100.87 1010.89 c 128,-1,25
 1098.71 1005.56 1098.71 1005.56 1093.94 1003.32 c 2,26,-1
 300.223 631.117 l 1,0,1
EndSplineSet
Validated: 524289
EndChar

StartChar: equal
Encoding: 289 61 33
Width: 1228
Flags: W
LayerCount: 2
Fore
SplineSet
1080 786 m 2,0,-1
 146 786 l 2,1,2
 132 786 132 786 132 800 c 2,3,-1
 132 857 l 2,4,5
 132 871 132 871 146 871 c 2,6,-1
 1080 871 l 2,7,8
 1094 871 1094 871 1094 857 c 2,9,-1
 1094 800 l 2,10,11
 1094 786 1094 786 1080 786 c 2,0,-1
1080 393 m 2,12,-1
 146 393 l 2,13,14
 132 393 132 393 132 407 c 2,15,-1
 132 464 l 2,16,17
 132 478 132 478 146 478 c 2,18,-1
 1080 478 l 2,19,20
 1094 478 1094 478 1094 464 c 2,21,-1
 1094 407 l 2,22,23
 1094 393 1094 393 1080 393 c 2,12,-1
EndSplineSet
Validated: 1
EndChar

StartChar: greater
Encoding: 290 62 34
Width: 1228
Flags: W
LayerCount: 2
Fore
SplineSet
121.228 1026.73 m 2,0,-1
 143.228 1075.73 l 2,1,2
 145.676 1081.19 145.676 1081.19 151.7 1083.09 c 128,-1,3
 157.724 1085 157.724 1085 161.889 1082.7 c 2,4,-1
 1110.89 642.701 l 2,5,6
 1123.59 636.812 1123.59 636.812 1117.7 624.111 c 0,7,8
 1115.58 619.531 1115.58 619.531 1111.02 617.36 c 2,9,-1
 162.02 165.36 l 2,10,11
 156.418 162.843 156.418 162.843 150.82 165.125 c 128,-1,12
 145.222 167.407 145.222 167.407 143.055 172.67 c 0,13,14
 131.762 200.061 131.762 200.061 121.228 223.207 c 0,15,16
 118.967 228.783 118.967 228.783 121.138 234.109 c 128,-1,17
 123.295 239.435 123.295 239.435 128.038 241.667 c 2,18,-1
 952.815 629.854 l 1,19,20
 329.411 916.614 329.411 916.614 128.197 1008.26 c 0,21,22
 122.917 1010.66 122.917 1010.66 120.933 1016.39 c 128,-1,23
 118.949 1022.11 118.949 1022.11 121.228 1026.73 c 2,0,-1
EndSplineSet
Validated: 524289
EndChar

StartChar: question
Encoding: 291 63 35
Width: 1228
Flags: W
LayerCount: 2
Fore
SplineSet
575 354 m 2,0,-1
 520 354 l 2,1,2
 506 354 506 354 506 368 c 2,3,-1
 506 532 l 2,4,5
 506 542.856 506 542.856 516.513 545.559 c 0,6,7
 551.527 554.562 551.527 554.562 579.047 561.567 c 0,8,9
 606.299 568.505 606.299 568.505 653.542 582.429 c 0,10,11
 699.8 596.063 699.8 596.063 746.635 619.97 c 0,12,13
 792.57 643.417 792.57 643.417 824.456 676.253 c 0,14,15
 891 744.779 891 744.779 891 847 c 0,16,17
 891 1005.02 891 1005.02 735.314 1074.21 c 0,18,19
 675.027 1101 675.027 1101 567.5 1101 c 0,20,21
 462.955 1101 462.955 1101 322 1044.56 c 1,22,-1
 322 924 l 2,23,24
 322 910 322 910 308 910 c 2,25,-1
 251 910 l 2,26,27
 237 910 237 910 237 924 c 2,28,-1
 237 1101 l 2,29,30
 237 1111.14 237 1111.14 246.639 1114.3 c 0,31,32
 431.728 1174.98 431.728 1174.98 482.533 1179.53 c 0,33,34
 532.38 1184 532.38 1184 600 1184 c 0,35,36
 669.527 1184 669.527 1184 743.916 1156.11 c 128,-1,37
 818.387 1128.19 818.387 1128.19 870.365 1081.41 c 0,38,39
 978.816 983.798 978.816 983.798 980.99 842.215 c 1,40,-1
 980.99 841.462 l 1,41,42
 972.778 628.073 972.778 628.073 728.279 528.534 c 0,43,44
 662.51 501.758 662.51 501.758 589 480.44 c 1,45,-1
 589 368 l 2,46,47
 589 354 589 354 575 354 c 2,0,-1
617.882 -31.6915 m 0,48,49
 583.678 -51 583.678 -51 548 -51 c 0,50,51
 513.444 -51 513.444 -51 488.552 -41.5966 c 128,-1,52
 463.771 -32.2348 463.771 -32.2348 444.915 -16.1517 c 0,53,54
 403 19.5992 403 19.5992 403 60.0294 c 0,55,56
 403 97.3045 403 97.3045 414.478 120.261 c 0,57,58
 425.853 143.012 425.853 143.012 445.754 158.932 c 0,59,60
 488.34 193 488.34 193 530.625 193 c 0,61,62
 570.504 193 570.504 193 595.853 183.632 c 128,-1,63
 621.172 174.275 621.172 174.275 639.558 158.675 c 0,64,65
 680 124.361 680 124.361 680 64.7136 c 0,66,67
 680 3.37386 680 3.37386 617.882 -31.6915 c 0,48,49
EndSplineSet
Validated: 524289
EndChar

StartChar: at
Encoding: 292 64 36
Width: 1228
Flags: W
LayerCount: 2
Fore
SplineSet
781.601 737.289 m 1,0,1
 793.33 781.358 793.33 781.358 800.311 813.933 c 0,2,3
 802.682 825 802.682 825 814 825 c 2,4,-1
 874 825 l 2,5,6
 888 825 888 825 888 811 c 0,7,8
 888 809.086 888 809.086 887.486 807.242 c 2,9,-1
 802.536 502.421 l 1,10,11
 780 412.282 780 412.282 780 397.5 c 0,12,13
 780 380.634 780 380.634 779.481 370.764 c 0,14,15
 779.087 363.279 779.087 363.279 781.119 354.743 c 0,16,17
 786.157 333.585 786.157 333.585 802.724 318.405 c 0,18,19
 834.815 289 834.815 289 887 289 c 0,20,21
 992.198 289 992.198 289 1058.63 444.015 c 0,22,23
 1085.06 505.674 1085.06 505.674 1087.49 610.148 c 0,24,25
 1093.1 850.75 1093.1 850.75 883.096 981.618 c 0,26,27
 781.385 1045 781.385 1045 645.698 1045 c 0,28,29
 509.145 1045 509.145 1045 414.002 999.852 c 128,-1,30
 318.82 954.685 318.82 954.685 257.807 880.6 c 0,31,32
 139 736.339 139 736.339 139 517 c 0,33,34
 139 323.831 139 323.831 251.64 192.098 c 0,35,36
 378.275 44 378.275 44 607 44 c 0,37,38
 804.323 44 804.323 44 1030.82 164.039 c 1,39,40
 1043.38 172.344 1043.38 172.344 1053.74 177.522 c 0,41,42
 1065.94 183.621 1065.94 183.621 1072.35 171.588 c 2,43,-1
 1096.35 126.588 l 2,44,45
 1102.79 114.52 1102.79 114.52 1090.87 107.804 c 0,46,47
 835.755 -36 835.755 -36 600 -36 c 0,48,49
 466 -36 466 -36 359.763 11.7296 c 0,50,51
 253.17 59.619 253.17 59.619 188.068 141.254 c 0,52,53
 119.523 226.935 119.523 226.935 96.7571 292.298 c 0,54,55
 58 403.569 58 403.569 58 523.468 c 0,56,57
 58 777.042 58 777.042 210.57 946.339 c 1,58,59
 368.486 1124 368.486 1124 646 1124 c 0,60,61
 949.957 1124 949.957 1124 1094.02 881.17 c 0,62,63
 1165 762.886 1165 762.886 1165 596 c 0,64,65
 1165 451.848 1165 451.848 1092.75 340.385 c 0,66,67
 986.537 176.534 986.537 176.534 811.794 224.499 c 0,68,69
 752.518 240.77 752.518 240.77 715.789 296.828 c 0,70,71
 705.486 312.554 705.486 312.554 699.947 330.224 c 1,72,73
 671.893 286.418 671.893 286.418 626.706 250.536 c 0,74,75
 576.922 211 576.922 211 504 211 c 0,76,77
 453.739 211 453.739 211 404.247 249.07 c 1,78,79
 344 299.276 344 299.276 344 417 c 0,80,81
 344 511.415 344 511.415 374.607 583.745 c 0,82,83
 481.35 836 481.35 836 651 836 c 0,84,85
 709.891 836 709.891 836 755.456 778.715 c 0,86,87
 771.895 758.049 771.895 758.049 781.601 737.289 c 1,0,1
512 292 m 0,88,89
 567.737 292 567.737 292 618.564 348.833 c 0,90,91
 671.682 408.226 671.682 408.226 691.762 466.557 c 0,92,93
 728 571.821 728 571.821 728 615.238 c 128,-1,94
 728 658.639 728 658.639 720.273 680.911 c 128,-1,95
 712.605 703.017 712.605 703.017 699.72 718.568 c 0,96,97
 672.848 751 672.848 751 644.214 751 c 0,98,99
 574.909 751 574.909 751 530.781 697.069 c 0,100,101
 427 573.337 427 573.337 427 408 c 0,102,103
 427 327.151 427 327.151 472.35 301.71 c 0,104,105
 489.658 292 489.658 292 512 292 c 0,88,89
EndSplineSet
Validated: 524321
EndChar

StartChar: A
Encoding: 293 65 37
Width: 1228
Flags: W
LayerCount: 2
Fore
SplineSet
1208 -14 m 2,0,-1
 820 -14 l 2,1,2
 806 -14 806 -14 806 0 c 2,3,-1
 806 50 l 2,4,5
 806 64 806 64 820 64 c 2,6,-1
 1028.28 64 l 1,7,-1
 899.542 384 l 1,8,-1
 331.458 384 l 1,9,-1
 202.723 64 l 1,10,-1
 407 64 l 2,11,12
 421 64 421 64 421 50 c 2,13,-1
 421 0 l 2,14,15
 421 -14 421 -14 407 -14 c 2,16,-1
 19 -14 l 2,17,18
 5 -14 5 -14 5 0 c 2,19,-1
 5 50 l 2,20,21
 5 64 5 64 19 64 c 2,22,-1
 114.619 64 l 1,23,-1
 536.106 1089 l 1,24,-1
 239 1089 l 2,25,26
 225 1089 225 1089 225 1103 c 2,27,-1
 225 1153 l 2,28,29
 225 1167 225 1167 239 1167 c 2,30,-1
 657 1167 l 2,31,32
 666.401 1167 666.401 1167 669.959 1158.3 c 2,33,-1
 1117.4 64 l 1,34,-1
 1208 64 l 2,35,36
 1222 64 1222 64 1222 50 c 2,37,-1
 1222 0 l 2,38,39
 1222 -14 1222 -14 1208 -14 c 2,0,-1
872.024 455 m 1,40,-1
 615.538 1072.43 l 1,41,-1
 360.917 455 l 1,42,-1
 872.024 455 l 1,40,-1
EndSplineSet
Validated: 524289
EndChar

StartChar: B
Encoding: 294 66 38
Width: 1228
Flags: W
LayerCount: 2
Fore
SplineSet
257 64 m 1,0,-1
 257 1089 l 1,1,-1
 94 1089 l 2,2,3
 80 1089 80 1089 80 1103 c 2,4,-1
 80 1153 l 2,5,6
 80 1167 80 1167 94 1167 c 2,7,-1
 652 1167 l 2,8,9
 852.782 1167 852.782 1167 952.309 1080.46 c 1,10,11
 1049 992.365 1049 992.365 1049 868 c 0,12,13
 1049 761.22 1049 761.22 988.336 693.556 c 1,14,15
 931.455 632.462 931.455 632.462 859.699 604.635 c 1,16,17
 972.765 576.2 972.765 576.2 1042.08 504.211 c 0,18,19
 1124 419.142 1124 419.142 1124 304 c 0,20,21
 1124 174.402 1124 174.402 1039 87.699 c 0,22,23
 973.246 20.633 973.246 20.633 844.271 -2.81657 c 1,24,25
 768.222 -14 768.222 -14 633 -14 c 2,26,-1
 94 -14 l 2,27,28
 80 -14 80 -14 80 0 c 2,29,-1
 80 50 l 2,30,31
 80 64 80 64 94 64 c 2,32,-1
 257 64 l 1,0,-1
637.893 639 m 1,33,34
 866.035 642.454 866.035 642.454 929.673 760.637 c 0,35,36
 930.459 762.096 930.459 762.096 932.301 764.156 c 0,37,38
 961 814.55 961 814.55 961 864.25 c 0,39,40
 961 995.26 961 995.26 851.392 1048.4 c 0,41,42
 769.721 1088 769.721 1088 683 1088 c 0,43,44
 682.005 1088 682.005 1088 681.02 1088.14 c 0,45,46
 675.007 1089 675.007 1089 666 1089 c 2,47,-1
 343 1089 l 1,48,-1
 343 639 l 1,49,-1
 637.893 639 l 1,33,34
698.305 64 m 1,50,51
 717.718 65.9069 717.718 65.9069 735.641 66.4501 c 0,52,53
 753.167 66.9812 753.167 66.9812 775.26 68.945 c 0,54,55
 943.918 83.9364 943.918 83.9364 1002.56 179.805 c 0,56,57
 1031.98 227.908 1031.98 227.908 1036 303.356 c 1,58,59
 1035.58 434.976 1035.58 434.976 920.226 498.748 c 0,60,61
 918.78 499.547 918.78 499.547 917.294 500.905 c 0,62,63
 805.881 561 805.881 561 621 561 c 2,64,-1
 343 561 l 1,65,-1
 343 64 l 1,66,-1
 698.305 64 l 1,50,51
EndSplineSet
Validated: 524289
EndChar

StartChar: C
Encoding: 295 67 39
Width: 1228
Flags: W
LayerCount: 2
Fore
SplineSet
687 35 m 0,0,1
 925.182 35 925.182 35 1160.87 237.616 c 0,2,3
 1170.72 246.08 1170.72 246.08 1179.9 236.899 c 2,4,-1
 1218.9 197.899 l 2,5,6
 1223.15 193.488 1223.15 193.488 1222.88 187.427 c 128,-1,7
 1222.6 181.366 1222.6 181.366 1218.31 177.545 c 0,8,9
 1093.28 66.2015 1093.28 66.2015 966.663 10.1966 c 0,10,11
 965.102 9.50588 965.102 9.50588 963.4 9.20716 c 0,12,13
 824.665 -51 824.665 -51 687 -51 c 0,14,15
 496.044 -51 496.044 -51 347 62.8754 c 0,16,17
 301.238 97.8401 301.238 97.8401 266.069 140.249 c 1,18,19
 121 327.986 121 327.986 121 591 c 0,20,21
 121 851.555 121 851.555 286.878 1025.17 c 0,22,23
 447.702 1193.49 447.702 1193.49 682.375 1203.99 c 1,24,-1
 683.373 1203.99 l 1,25,26
 898.882 1198.25 898.882 1198.25 1007.31 1049.76 c 0,27,28
 1008.51 1048.11 1008.51 1048.11 1010.07 1045.91 c 1,29,30
 1010 1054.43 1010 1054.43 1010 1063.13 c 2,31,-1
 1011.01 1118.54 l 2,32,33
 1012 1135.41 1012 1135.41 1012 1148.5 c 0,34,35
 1012 1162.99 1012 1162.99 1014.14 1177.98 c 0,36,37
 1015.86 1190 1015.86 1190 1028 1190 c 2,38,-1
 1081 1190 l 2,39,40
 1087.03 1190 1087.03 1190 1091.2 1185.46 c 128,-1,41
 1095.38 1180.92 1095.38 1180.92 1094.97 1175.03 c 2,42,-1
 1091.97 1132.15 l 1,43,44
 1083.6 972.878 1083.6 972.878 1104.87 814.867 c 0,45,46
 1105.62 809.316 1105.62 809.316 1102.17 804.745 c 128,-1,47
 1098.72 800.173 1098.72 800.173 1093.5 799.226 c 2,48,-1
 1049.5 791.226 l 2,49,50
 1043.97 790.22 1043.97 790.22 1039.22 793.459 c 128,-1,51
 1034.47 796.697 1034.47 796.697 1033.32 802.035 c 0,52,53
 1010.18 908.783 1010.18 908.783 957.624 986.831 c 1,54,55
 857.279 1118 857.279 1118 679 1118 c 0,56,57
 573.138 1118 573.138 1118 484.981 1076.34 c 128,-1,58
 396.841 1034.69 396.841 1034.69 338.339 963.139 c 0,59,60
 215 812.285 215 812.285 215 593 c 0,61,62
 215 443.577 215 443.577 272.882 302.485 c 1,63,64
 344.684 139.873 344.684 139.873 495.199 72.7873 c 0,65,66
 579.98 35 579.98 35 687 35 c 0,0,1
EndSplineSet
Validated: 524321
EndChar

StartChar: D
Encoding: 296 68 40
Width: 1228
Flags: W
LayerCount: 2
Fore
SplineSet
226 64 m 1,0,-1
 226 1089 l 1,1,-1
 72 1089 l 2,2,3
 58 1089 58 1089 58 1103 c 2,4,-1
 58 1153 l 2,5,6
 58 1167 58 1167 72 1167 c 2,7,-1
 581 1167 l 2,8,9
 734.625 1167 734.625 1167 808.781 1144.92 c 0,10,11
 883.402 1122.7 883.402 1122.7 927.4 1089.7 c 0,12,13
 970.667 1057.25 970.667 1057.25 1009.89 1010.8 c 1,14,15
 1140 842.296 1140 842.296 1140 599 c 0,16,17
 1140 276.492 1140 276.492 965.654 106.86 c 1,18,19
 872.191 19.7716 872.191 19.7716 748.189 1.17172 c 1,20,21
 657.159 -14 657.159 -14 572 -14 c 2,22,-1
 72 -14 l 2,23,24
 58 -14 58 -14 58 0 c 2,25,-1
 58 50 l 2,26,27
 58 64 58 64 72 64 c 2,28,-1
 226 64 l 1,0,-1
572 64 m 2,29,30
 661.859 64 661.859 64 717.443 74.7455 c 0,31,32
 828.398 96.1954 828.398 96.1954 896.233 164.031 c 0,33,34
 1047 314.802 1047 314.802 1047 593 c 0,35,36
 1047 803.492 1047 803.492 944.687 945.752 c 1,37,38
 879.261 1034.27 879.261 1034.27 800.357 1062.79 c 1,39,40
 723.599 1089 723.599 1089 583 1089 c 2,41,-1
 311 1089 l 1,42,-1
 311 64 l 1,43,-1
 572 64 l 2,29,30
EndSplineSet
Validated: 524289
EndChar

StartChar: E
Encoding: 297 69 41
Width: 1228
Flags: W
LayerCount: 2
Fore
SplineSet
1030.56 64 m 1,0,-1
 1042.01 343.573 l 2,1,2
 1042.24 349.178 1042.24 349.178 1046.44 353.089 c 128,-1,3
 1050.64 357 1050.64 357 1056 357 c 2,4,-1
 1104 357 l 2,5,6
 1118 357 1118 357 1118 343 c 2,7,-1
 1118 0 l 2,8,9
 1118 -14 1118 -14 1104 -14 c 2,10,-1
 120 -14 l 2,11,12
 106 -14 106 -14 106 0 c 2,13,-1
 106 50 l 2,14,15
 106 64 106 64 120 64 c 2,16,-1
 287 64 l 1,17,-1
 287 1089 l 1,18,-1
 120 1089 l 2,19,20
 106 1089 106 1089 106 1103 c 2,21,-1
 106 1153 l 2,22,23
 106 1167 106 1167 120 1167 c 2,24,-1
 1085 1167 l 2,25,26
 1090.63 1167 1090.63 1167 1094.75 1162.96 c 128,-1,27
 1098.87 1158.92 1098.87 1158.92 1099 1153.33 c 2,28,-1
 1107 810.326 l 2,29,30
 1107.14 804.34 1107.14 804.34 1102.7 800.17 c 128,-1,31
 1098.27 796 1098.27 796 1093 796 c 2,32,-1
 1043 796 l 2,33,34
 1037.58 796 1037.58 796 1033.51 799.775 c 128,-1,35
 1029.44 803.551 1029.44 803.551 1029.04 808.952 c 2,36,-1
 1008.01 1089 l 1,37,-1
 372 1089 l 1,38,-1
 372 649 l 1,39,-1
 740 649 l 1,40,-1
 740 792 l 2,41,42
 740 806 740 806 754 806 c 2,43,-1
 802 806 l 2,44,45
 816 806 816 806 816 792 c 2,46,-1
 816 432 l 2,47,48
 816 418 816 418 802 418 c 2,49,-1
 754 418 l 2,50,51
 740 418 740 418 740 432 c 2,52,-1
 740 571 l 1,53,-1
 372 571 l 1,54,-1
 372 64 l 1,55,-1
 1030.56 64 l 1,0,-1
EndSplineSet
Validated: 524289
EndChar

StartChar: F
Encoding: 298 70 42
Width: 1228
Flags: W
LayerCount: 2
Fore
SplineSet
1116.99 1153.46 m 2,0,-1
 1127.99 818.459 l 2,1,2
 1128.19 812.466 1128.19 812.466 1123.79 808.233 c 128,-1,3
 1119.4 804 1119.4 804 1114 804 c 2,4,-1
 1066 804 l 2,5,6
 1060.61 804 1060.61 804 1056.57 807.767 c 128,-1,7
 1052.53 811.534 1052.53 811.534 1052.06 816.728 c 2,8,-1
 1027.22 1089 l 1,9,-1
 395 1089 l 1,10,-1
 395 649 l 1,11,-1
 764 649 l 1,12,-1
 764 792 l 2,13,14
 764 806 764 806 778 806 c 2,15,-1
 826 806 l 2,16,17
 840 806 840 806 840 792 c 2,18,-1
 840 432 l 2,19,20
 840 418 840 418 826 418 c 2,21,-1
 778 418 l 2,22,23
 764 418 764 418 764 432 c 2,24,-1
 764 571 l 1,25,-1
 395 571 l 1,26,-1
 395 64 l 1,27,-1
 659 64 l 2,28,29
 673 64 673 64 673 50 c 2,30,-1
 673 0 l 2,31,32
 673 -14 673 -14 659 -14 c 2,33,-1
 151 -14 l 2,34,35
 137 -14 137 -14 137 0 c 2,36,-1
 137 50 l 2,37,38
 137 64 137 64 151 64 c 2,39,-1
 310 64 l 1,40,-1
 310 1089 l 1,41,-1
 151 1089 l 2,42,43
 137 1089 137 1089 137 1103 c 2,44,-1
 137 1153 l 2,45,46
 137 1167 137 1167 151 1167 c 2,47,-1
 1103 1167 l 2,48,49
 1108.62 1167 1108.62 1167 1112.72 1162.96 c 128,-1,50
 1116.81 1158.93 1116.81 1158.93 1116.99 1153.46 c 2,0,-1
EndSplineSet
Validated: 524289
EndChar

StartChar: G
Encoding: 299 71 43
Width: 1228
Flags: W
LayerCount: 2
Fore
SplineSet
1061.98 800.141 m 0,0,1
 1041.68 797.241 1041.68 797.241 1022.4 792.415 c 0,2,3
 1016.57 790.962 1016.57 790.962 1011.5 794.366 c 128,-1,4
 1006.43 797.769 1006.43 797.769 1005.3 803.116 c 0,5,6
 986.061 894.511 986.061 894.511 962.821 938.086 c 0,7,8
 939.406 981.988 939.406 981.988 904.972 1021.27 c 0,9,10
 824.961 1112.55 824.961 1112.55 639.796 1118 c 1,11,12
 441.488 1118 441.488 1118 311.175 964.442 c 0,13,14
 180 809.868 180 809.868 180 573 c 0,15,16
 180 336.465 180 336.465 301.255 190.963 c 0,17,18
 431.227 35 431.227 35 670 35 c 0,19,20
 799.369 35 799.369 35 1008 105.039 c 1,21,-1
 1008 414 l 1,22,-1
 706 414 l 2,23,24
 692 414 692 414 692 428 c 2,25,-1
 692 478 l 2,26,27
 692 492 692 492 706 492 c 2,28,-1
 1183 492 l 2,29,30
 1197 492 1197 492 1197 478 c 2,31,-1
 1197 428 l 2,32,33
 1197 414 1197 414 1183 414 c 2,34,-1
 1094 414 l 1,35,-1
 1094 59 l 2,36,37
 1094 49.6267 1094 49.6267 1085.33 46.0557 c 0,38,39
 849.781 -51 849.781 -51 668 -51 c 0,40,41
 423.393 -51 423.393 -51 276.425 86.7865 c 0,42,43
 274.807 88.303 274.807 88.303 273.568 90.552 c 0,44,45
 211.312 151.927 211.312 151.927 169.82 228.362 c 0,46,47
 168.4 230.026 168.4 230.026 167.698 231.317 c 0,48,49
 86 381.717 86 381.717 86 571 c 0,50,51
 86 812.915 86 812.915 229.723 1008.3 c 0,52,53
 229.963 1008.62 229.963 1008.62 230.223 1008.94 c 0,54,55
 342.2 1143.97 342.2 1143.97 521.076 1189.07 c 0,56,57
 593.415 1207.33 593.415 1207.33 649.359 1203.97 c 0,58,59
 889.653 1188.42 889.653 1188.42 990.718 1034.03 c 1,60,61
 990.371 1068.63 990.371 1068.63 988.501 1131.26 c 0,62,63
 988.407 1155.55 988.407 1155.55 991.094 1178.62 c 0,64,65
 991.712 1183.93 991.712 1183.93 995.901 1187.46 c 128,-1,66
 1000.09 1191 1000.09 1191 1005 1191 c 2,67,-1
 1060 1191 l 2,68,69
 1066.34 1191 1066.34 1191 1070.46 1186.06 c 128,-1,70
 1074.56 1181.12 1074.56 1181.12 1073.88 1175.38 c 0,71,72
 1065.99 1107.38 1065.99 1107.38 1066 991.5 c 128,-1,73
 1066 875.7 1066 875.7 1073.88 815.826 c 0,74,75
 1074.64 810.081 1074.64 810.081 1070.92 805.483 c 128,-1,76
 1067.2 800.886 1067.2 800.886 1061.98 800.141 c 0,0,1
EndSplineSet
Validated: 524321
EndChar

StartChar: H
Encoding: 300 72 44
Width: 1228
Flags: W
LayerCount: 2
Fore
SplineSet
1149 -14 m 2,0,-1
 769 -14 l 2,1,2
 755 -14 755 -14 755 0 c 2,3,-1
 755 50 l 2,4,5
 755 64 755 64 769 64 c 2,6,-1
 915 64 l 1,7,-1
 915 557 l 1,8,-1
 312 557 l 1,9,-1
 312 64 l 1,10,-1
 458 64 l 2,11,12
 472 64 472 64 472 50 c 2,13,-1
 472 0 l 2,14,15
 472 -14 472 -14 458 -14 c 2,16,-1
 81 -14 l 2,17,18
 67 -14 67 -14 67 0 c 2,19,-1
 67 50 l 2,20,21
 67 64 67 64 81 64 c 2,22,-1
 227 64 l 1,23,-1
 227 1089 l 1,24,-1
 81 1089 l 2,25,26
 67 1089 67 1089 67 1103 c 2,27,-1
 67 1153 l 2,28,29
 67 1167 67 1167 81 1167 c 2,30,-1
 458 1167 l 2,31,32
 472 1167 472 1167 472 1153 c 2,33,-1
 472 1103 l 2,34,35
 472 1089 472 1089 458 1089 c 2,36,-1
 312 1089 l 1,37,-1
 312 635 l 1,38,-1
 915 635 l 1,39,-1
 915 1089 l 1,40,-1
 769 1089 l 2,41,42
 755 1089 755 1089 755 1103 c 2,43,-1
 755 1153 l 2,44,45
 755 1167 755 1167 769 1167 c 2,46,-1
 1149 1167 l 2,47,48
 1163 1167 1163 1167 1163 1153 c 2,49,-1
 1163 1103 l 2,50,51
 1163 1089 1163 1089 1149 1089 c 2,52,-1
 1000 1089 l 1,53,-1
 1000 64 l 1,54,-1
 1149 64 l 2,55,56
 1163 64 1163 64 1163 50 c 2,57,-1
 1163 0 l 2,58,59
 1163 -14 1163 -14 1149 -14 c 2,0,-1
EndSplineSet
Validated: 1
EndChar

StartChar: I
Encoding: 301 73 45
Width: 1228
Flags: W
LayerCount: 2
Fore
SplineSet
1016 -14 m 2,0,-1
 212 -14 l 2,1,2
 198 -14 198 -14 198 0 c 2,3,-1
 198 50 l 2,4,5
 198 64 198 64 212 64 c 2,6,-1
 571 64 l 1,7,-1
 571 1089 l 1,8,-1
 212 1089 l 2,9,10
 198 1089 198 1089 198 1103 c 2,11,-1
 198 1153 l 2,12,13
 198 1167 198 1167 212 1167 c 2,14,-1
 1016 1167 l 2,15,16
 1030 1167 1030 1167 1030 1153 c 2,17,-1
 1030 1103 l 2,18,19
 1030 1089 1030 1089 1016 1089 c 2,20,-1
 657 1089 l 1,21,-1
 657 64 l 1,22,-1
 1016 64 l 2,23,24
 1030 64 1030 64 1030 50 c 2,25,-1
 1030 0 l 2,26,27
 1030 -14 1030 -14 1016 -14 c 2,0,-1
EndSplineSet
Validated: 1
EndChar

StartChar: J
Encoding: 302 74 46
Width: 1228
Flags: W
LayerCount: 2
Fore
SplineSet
866.306 80.7428 m 0,0,1
 819.623 16.8241 819.623 16.8241 741.274 -17.4425 c 0,2,3
 663.479 -51 663.479 -51 605 -51 c 0,4,5
 515.545 -51 515.545 -51 426.336 -29.6143 c 0,6,7
 337.579 -8.3367 337.579 -8.3367 301.485 7.13197 c 0,8,9
 266.552 22.1033 266.552 22.1033 234.13 35.571 c 0,10,11
 201.29 49.2122 201.29 49.2122 177.96 60.3701 c 0,12,13
 146.546 75.394 146.546 75.394 136.573 78.7184 c 0,14,15
 127.455 81.7577 127.455 81.7577 127.015 91.3585 c 0,16,17
 122.011 200.432 122.011 200.432 118.508 302.018 c 128,-1,18
 115.011 403.43 115.011 403.43 110.015 511.353 c 0,19,20
 109.737 517.355 109.737 517.355 114.076 521.678 c 128,-1,21
 118.414 526 118.414 526 124 526 c 2,22,-1
 177 526 l 2,23,24
 182.597 526 182.597 526 186.661 521.969 c 128,-1,25
 190.725 517.938 190.725 517.938 190.983 512.688 c 2,26,-1
 199.986 329.634 l 2,27,28
 201.991 281.502 201.991 281.502 203.493 235.456 c 0,29,30
 204.921 191.646 204.921 191.646 211.684 172.709 c 128,-1,31
 218.492 153.647 218.492 153.647 224.271 145.805 c 128,-1,32
 230.181 137.784 230.181 137.784 238.746 130.932 c 0,33,34
 251.089 121.057 251.089 121.057 289.604 98.3579 c 1,35,36
 419.261 35.9305 419.261 35.9305 570.343 34.9766 c 0,37,38
 717.956 34.0447 717.956 34.0447 791.641 134.185 c 1,39,40
 842 205.53 842 205.53 842 376.5 c 2,41,-1
 842 1089 l 1,42,-1
 435 1089 l 2,43,44
 421 1089 421 1089 421 1103 c 2,45,-1
 421 1153 l 2,46,47
 421 1167 421 1167 435 1167 c 2,48,-1
 1184 1167 l 2,49,50
 1198 1167 1198 1167 1198 1153 c 2,51,-1
 1198 1103 l 2,52,53
 1198 1089 1198 1089 1184 1089 c 2,54,-1
 927 1089 l 1,55,-1
 927 411 l 2,56,57
 927 301.011 927 301.011 915.865 221.557 c 0,58,59
 904.436 140.009 904.436 140.009 866.776 81.4294 c 0,60,61
 866.551 81.0789 866.551 81.0789 866.306 80.7428 c 0,0,1
EndSplineSet
Validated: 524321
EndChar

StartChar: K
Encoding: 303 75 47
Width: 1228
Flags: W
LayerCount: 2
Fore
SplineSet
1203 -14 m 2,0,-1
 971 -14 l 2,1,2
 961.423 -14 961.423 -14 957.952 -5.07425 c 0,3,4
 916.295 102.05 916.295 102.05 825.811 268.109 c 1,5,6
 727.388 436.002 727.388 436.002 617.803 515.151 c 0,7,8
 577.624 544.17 577.624 544.17 532.426 567.976 c 1,9,-1
 375 418.001 l 1,10,-1
 375 64 l 1,11,-1
 542 64 l 2,12,13
 556 64 556 64 556 50 c 2,14,-1
 556 0 l 2,15,16
 556 -14 556 -14 542 -14 c 2,17,-1
 125 -14 l 2,18,19
 111 -14 111 -14 111 0 c 2,20,-1
 111 50 l 2,21,22
 111 64 111 64 125 64 c 2,23,-1
 290 64 l 1,24,-1
 290 1089 l 1,25,-1
 125 1089 l 2,26,27
 111 1089 111 1089 111 1103 c 2,28,-1
 111 1153 l 2,29,30
 111 1167 111 1167 125 1167 c 2,31,-1
 542 1167 l 2,32,33
 556 1167 556 1167 556 1153 c 2,34,-1
 556 1103 l 2,35,36
 556 1089 556 1089 542 1089 c 2,37,-1
 375 1089 l 1,38,-1
 375 528.151 l 1,39,-1
 951.531 1089 l 1,40,-1
 774 1089 l 2,41,42
 760 1089 760 1089 760 1103 c 2,43,-1
 760 1153 l 2,44,45
 760 1167 760 1167 774 1167 c 2,46,-1
 1141 1167 l 2,47,48
 1155 1167 1155 1167 1155 1153 c 2,49,-1
 1155 1103 l 2,50,51
 1155 1089 1155 1089 1141 1089 c 2,52,-1
 1065.68 1089 l 1,53,-1
 587.102 623.901 l 1,54,55
 649.695 593.02 649.695 593.02 678.177 570.686 c 0,56,57
 737.341 524.297 737.341 524.297 786.354 468.428 c 1,58,59
 896.23 352.332 896.23 352.332 1024.12 64 c 1,60,-1
 1203 64 l 2,61,62
 1217 64 1217 64 1217 50 c 2,63,-1
 1217 0 l 2,64,65
 1217 -14 1217 -14 1203 -14 c 2,0,-1
EndSplineSet
Validated: 524289
EndChar

StartChar: L
Encoding: 304 76 48
Width: 1228
Flags: W
LayerCount: 2
Fore
SplineSet
1033.91 64 m 1,0,-1
 1062.03 482.938 l 2,1,2
 1062.4 488.494 1062.4 488.494 1066.69 492.247 c 128,-1,3
 1070.97 496 1070.97 496 1076 496 c 2,4,-1
 1128 496 l 2,5,6
 1134.01 496 1134.01 496 1138.12 491.466 c 128,-1,7
 1142.24 486.932 1142.24 486.932 1141.99 481.362 c 2,8,-1
 1119.99 -0.63834 l 2,9,10
 1119.73 -6.23512 1119.73 -6.23512 1115.52 -10.1176 c 128,-1,11
 1111.3 -14 1111.3 -14 1106 -14 c 2,12,-1
 123 -14 l 2,13,14
 109 -14 109 -14 109 0 c 2,15,-1
 109 50 l 2,16,17
 109 64 109 64 123 64 c 2,18,-1
 323 64 l 1,19,-1
 323 1089 l 1,20,-1
 123 1089 l 2,21,22
 109 1089 109 1089 109 1103 c 2,23,-1
 109 1153 l 2,24,25
 109 1167 109 1167 123 1167 c 2,26,-1
 656 1167 l 2,27,28
 670 1167 670 1167 670 1153 c 2,29,-1
 670 1103 l 2,30,31
 670 1089 670 1089 656 1089 c 2,32,-1
 407 1089 l 1,33,-1
 407 64 l 1,34,-1
 1033.91 64 l 1,0,-1
EndSplineSet
Validated: 524289
EndChar

StartChar: M
Encoding: 305 77 49
Width: 1228
Flags: W
LayerCount: 2
Fore
SplineSet
610.307 370 m 1,0,1
 667.309 521.88 667.309 521.88 899.852 1157.81 c 0,2,3
 903.213 1167 903.213 1167 913 1167 c 2,4,-1
 1213 1167 l 2,5,6
 1227 1167 1227 1167 1227 1153 c 2,7,-1
 1227 1103 l 2,8,9
 1227 1089 1227 1089 1213 1089 c 2,10,-1
 1075.53 1089 l 1,11,-1
 1113.49 64 l 1,12,-1
 1229 64 l 2,13,14
 1243 64 1243 64 1243 50 c 2,15,-1
 1243 0 l 2,16,17
 1243 -14 1243 -14 1229 -14 c 2,18,-1
 826 -14 l 2,19,20
 812 -14 812 -14 812 0 c 2,21,-1
 812 50 l 2,22,23
 812 64 812 64 826 64 c 2,24,-1
 1041.53 64 l 1,25,-1
 1007.46 1089 l 1,26,-1
 951.692 1089 l 1,27,-1
 656.104 303.072 l 2,28,29
 652.692 294 652.692 294 643 294 c 2,30,-1
 567 294 l 2,31,32
 557.064 294 557.064 294 553.785 303.379 c 2,33,-1
 279.064 1089 l 1,34,-1
 221.555 1089 l 1,35,-1
 188.459 64 l 1,36,-1
 404 64 l 2,37,38
 418 64 418 64 418 50 c 2,39,-1
 418 0 l 2,40,41
 418 -14 418 -14 404 -14 c 2,42,-1
 1 -14 l 2,43,44
 -13 -14 -13 -14 -13 0 c 2,45,-1
 -13 50 l 2,46,47
 -13 64 -13 64 1 64 c 2,48,-1
 116.509 64 l 1,49,-1
 154.472 1089 l 1,50,-1
 15 1089 l 2,51,52
 1 1089 1 1089 1 1103 c 2,53,-1
 1 1153 l 2,54,55
 1 1167 1 1167 15 1167 c 2,56,-1
 329 1167 l 2,57,58
 339.063 1167 339.063 1167 342.27 1157.46 c 2,59,-1
 607.063 370 l 1,60,-1
 610.307 370 l 1,0,1
EndSplineSet
Validated: 524289
EndChar

StartChar: N
Encoding: 306 78 50
Width: 1228
Flags: W
LayerCount: 2
Fore
SplineSet
1071 -42 m 2,0,-1
 921 -42 l 2,1,2
 912.399 -42 912.399 -42 908.511 -34.3272 c 2,3,-1
 339.399 1089 l 1,4,-1
 286 1089 l 1,5,-1
 286 64 l 1,6,-1
 514 64 l 2,7,8
 528 64 528 64 528 50 c 2,9,-1
 528 0 l 2,10,11
 528 -14 528 -14 514 -14 c 2,12,-1
 57 -14 l 2,13,14
 43 -14 43 -14 43 0 c 2,15,-1
 43 50 l 2,16,17
 43 64 43 64 57 64 c 2,18,-1
 210 64 l 1,19,-1
 210 1089 l 1,20,-1
 57 1089 l 2,21,22
 43 1089 43 1089 43 1103 c 2,23,-1
 43 1153 l 2,24,25
 43 1167 43 1167 57 1167 c 2,26,-1
 383 1167 l 2,27,28
 391.615 1167 391.615 1167 395.497 1159.31 c 2,29,-1
 953.614 54 l 1,30,-1
 1009 54 l 1,31,-1
 1009 1089 l 1,32,-1
 784 1089 l 2,33,34
 770 1089 770 1089 770 1103 c 2,35,-1
 770 1153 l 2,36,37
 770 1167 770 1167 784 1167 c 2,38,-1
 1210 1167 l 2,39,40
 1224 1167 1224 1167 1224 1153 c 2,41,-1
 1224 1103 l 2,42,43
 1224 1089 1224 1089 1210 1089 c 2,44,-1
 1085 1089 l 1,45,-1
 1085 -28 l 2,46,47
 1085 -42 1085 -42 1071 -42 c 2,0,-1
EndSplineSet
Validated: 524289
EndChar

StartChar: O
Encoding: 307 79 51
Width: 1228
Flags: W
LayerCount: 2
Fore
SplineSet
613 -51 m 0,0,1
 373.864 -51 373.864 -51 220.229 132.056 c 0,2,3
 173.036 189.508 173.036 189.508 140.78 259.651 c 0,4,5
 76 400.521 76 400.521 76 575 c 0,6,7
 76 738.924 76 738.924 140.192 891.659 c 1,8,9
 244.317 1116.17 244.317 1116.17 461.924 1182.39 c 0,10,11
 532.922 1204 532.922 1204 635.5 1204 c 0,12,13
 739.373 1204 739.373 1204 839.364 1152.97 c 0,14,15
 939.01 1102.12 939.01 1102.12 1008.88 1015.81 c 0,16,17
 1152 839.024 1152 839.024 1152 575 c 0,18,19
 1152 315.589 1152 315.589 1006.97 134.303 c 0,20,21
 939.015 47.8108 939.015 47.8108 837.108 -1.5974 c 128,-1,22
 735.212 -51 735.212 -51 613 -51 c 0,0,1
850.639 1041.77 m 0,23,24
 747.926 1118 747.926 1118 627.5 1118 c 0,25,26
 393.046 1118 393.046 1118 276.681 940.283 c 1,27,28
 169 778.761 169 778.761 169 578 c 0,29,30
 169 364.513 169 364.513 281.863 207.677 c 0,31,32
 406.127 35 406.127 35 613 35 c 0,33,34
 858.471 35 858.471 35 984.159 269.611 c 0,35,36
 1058 407.443 1058 407.443 1058 562.967 c 0,37,38
 1058 884.08 1058 884.08 853.55 1038.84 c 0,39,40
 852.228 1039.84 852.228 1039.84 850.639 1041.77 c 0,23,24
EndSplineSet
Validated: 524289
EndChar

StartChar: P
Encoding: 308 80 52
Width: 1228
Flags: W
LayerCount: 2
Fore
SplineSet
694 -14 m 2,0,-1
 149 -14 l 2,1,2
 135 -14 135 -14 135 0 c 2,3,-1
 135 50 l 2,4,5
 135 64 135 64 149 64 c 2,6,-1
 308 64 l 1,7,-1
 308 1089 l 1,8,-1
 149 1089 l 2,9,10
 135 1089 135 1089 135 1103 c 2,11,-1
 135 1153 l 2,12,13
 135 1167 135 1167 149 1167 c 2,14,-1
 613 1167 l 2,15,16
 732.36 1167 732.36 1167 801.024 1154.78 c 0,17,18
 870.681 1142.39 870.681 1142.39 917.694 1116.8 c 0,19,20
 1006.99 1068.18 1006.99 1068.18 1055.09 982.247 c 0,21,22
 1103 896.641 1103 896.641 1103 808 c 128,-1,23
 1103 719.513 1103 719.513 1070.87 658.939 c 0,24,25
 1018.87 560.912 1018.87 560.912 966.678 530.883 c 0,26,27
 877.971 479.843 877.971 479.843 820.1 471.801 c 0,28,29
 727.997 459 727.997 459 523 459 c 2,30,-1
 393 459 l 1,31,-1
 393 64 l 1,32,-1
 694 64 l 2,33,34
 708 64 708 64 708 50 c 2,35,-1
 708 0 l 2,36,37
 708 -14 708 -14 694 -14 c 2,0,-1
871.341 1046.85 m 0,38,39
 791.339 1089 791.339 1089 613 1089 c 2,40,-1
 393 1089 l 1,41,-1
 393 537 l 1,42,-1
 651.612 537 l 1,43,44
 694.836 539.415 694.836 539.415 754.491 544.156 c 0,45,46
 955.856 560.159 955.856 560.159 1000.92 740.396 c 0,47,48
 1009 772.721 1009 772.721 1009 812.5 c 0,49,50
 1009 851.951 1009 851.951 998.086 888.493 c 128,-1,51
 987.119 925.21 987.119 925.21 968.596 955.131 c 0,52,53
 932.422 1013.57 932.422 1013.57 874.389 1044.66 c 0,54,55
 872.928 1045.44 872.928 1045.44 871.341 1046.85 c 0,38,39
EndSplineSet
Validated: 524289
EndChar

StartChar: Q
Encoding: 309 81 53
Width: 1228
Flags: W
LayerCount: 2
Fore
SplineSet
1082.8 -160.091 m 2,0,-1
 1115.8 -200.091 l 2,1,2
 1119.75 -205.373 1119.75 -205.373 1118.58 -211.463 c 128,-1,3
 1117.41 -217.554 1117.41 -217.554 1112.77 -220.649 c 0,4,5
 1013.24 -287 1013.24 -287 926 -287 c 0,6,7
 870.225 -287 870.225 -287 824.794 -269.017 c 0,8,9
 781.576 -251.91 781.576 -251.91 739.8 -233.287 c 0,10,11
 649.427 -193 649.427 -193 563.587 -193 c 0,12,13
 478.452 -193 478.452 -193 341.889 -270.188 c 0,14,15
 330.059 -276.874 330.059 -276.874 323.023 -265.249 c 2,16,-1
 300.023 -227.249 l 2,17,18
 293.167 -215.922 293.167 -215.922 304.094 -208.446 c 0,19,20
 360.794 -169.652 360.794 -169.652 394.107 -132.301 c 0,21,22
 428.495 -93.745 428.495 -93.745 438.964 -81.7809 c 0,23,24
 460.321 -57.3727 460.321 -57.3727 475.993 -32.8636 c 1,25,26
 282.456 33.1764 282.456 33.1764 181.19 190.481 c 1,27,28
 77 355.963 77 355.963 77 575 c 0,29,30
 77 868.801 77 868.801 238.9 1039.7 c 1,31,32
 398.831 1204 398.831 1204 612 1204 c 0,33,34
 763.058 1204 763.058 1204 884.987 1126.83 c 128,-1,35
 1006.76 1049.76 1006.76 1049.76 1080.52 902.261 c 0,36,37
 1081.51 900.278 1081.51 900.278 1081.96 897.34 c 0,38,39
 1153 752.024 1153 752.024 1153 567 c 0,40,41
 1153 383.764 1153 383.764 1075.46 224.613 c 1,42,43
 1032.35 144.553 1032.35 144.553 968.737 80.938 c 1,44,45
 825.901 -52.8247 825.901 -52.8247 571.031 -51.0824 c 0,46,47
 570.747 -51.4061 570.747 -51.4061 570.629 -51.5355 c 128,-1,48
 570.51 -51.6649 570.51 -51.6649 570.156 -52.0797 c 2,49,-1
 510.596 -121.983 l 1,50,-1
 552.02 -116.141 l 2,51,52
 560.005 -115 560.005 -115 568.5 -115 c 2,53,-1
 583 -115 l 2,54,55
 664.778 -115 664.778 -115 736.345 -144.56 c 0,56,57
 805.041 -172.935 805.041 -172.935 829.742 -181.828 c 0,58,59
 855.28 -191.021 855.28 -191.021 866.793 -196.255 c 0,60,61
 881.632 -203 881.632 -203 936.9 -203 c 0,62,63
 991.183 -203 991.183 -203 1064.58 -157.128 c 0,64,65
 1074.99 -150.623 1074.99 -150.623 1082.8 -160.091 c 2,0,-1
851.639 1041.77 m 0,66,67
 748.926 1118 748.926 1118 628.5 1118 c 0,68,69
 394.046 1118 394.046 1118 277.681 940.283 c 1,70,71
 170 778.761 170 778.761 170 578 c 0,72,73
 170 364.513 170 364.513 282.863 207.677 c 0,74,75
 407.127 35 407.127 35 614 35 c 0,76,77
 859.471 35 859.471 35 985.159 269.611 c 0,78,79
 1059 407.443 1059 407.443 1059 562.967 c 0,80,81
 1059 884.08 1059 884.08 854.55 1038.84 c 0,82,83
 853.228 1039.84 853.228 1039.84 851.639 1041.77 c 0,66,67
EndSplineSet
Validated: 524321
EndChar

StartChar: R
Encoding: 310 82 54
Width: 1228
Flags: W
LayerCount: 2
Fore
SplineSet
1180 -14 m 2,0,-1
 954 -14 l 2,1,2
 945.141 -14 945.141 -14 941.348 -5.99324 c 0,3,4
 884.809 113.363 884.809 113.363 730.341 346.25 c 0,5,6
 699.163 393.017 699.163 393.017 653.482 447.198 c 0,7,8
 608.486 500.557 608.486 500.557 592 512.001 c 0,9,10
 556.008 537 556.008 537 504 537 c 2,11,-1
 339 537 l 1,12,-1
 339 64 l 1,13,-1
 516 64 l 2,14,15
 530 64 530 64 530 50 c 2,16,-1
 530 0 l 2,17,18
 530 -14 530 -14 516 -14 c 2,19,-1
 93 -14 l 2,20,21
 79 -14 79 -14 79 0 c 2,22,-1
 79 50 l 2,23,24
 79 64 79 64 93 64 c 2,25,-1
 255 64 l 1,26,-1
 255 1089 l 1,27,-1
 93 1089 l 2,28,29
 79 1089 79 1089 79 1103 c 2,30,-1
 79 1153 l 2,31,32
 79 1167 79 1167 93 1167 c 2,33,-1
 617 1167 l 2,34,35
 777.147 1167 777.147 1167 848.443 1140.1 c 0,36,37
 876.491 1129.52 876.491 1129.52 902.922 1111.54 c 0,38,39
 1026 1026.34 1026 1026.34 1026 861 c 0,40,41
 1026 721.665 1026 721.665 939.69 640.161 c 128,-1,42
 853.379 558.658 853.379 558.658 685.267 536.373 c 1,43,44
 798.019 416.458 798.019 416.458 1009.92 64 c 1,45,-1
 1180 64 l 2,46,47
 1194 64 1194 64 1194 50 c 2,48,-1
 1194 0 l 2,49,50
 1194 -14 1194 -14 1180 -14 c 2,0,-1
592 616 m 2,51,52
 766 616 766 616 850 677.5 c 128,-1,53
 934 739 934 739 934 862 c 0,54,55
 934 955.79 934 955.79 891.887 1009.47 c 128,-1,56
 849.774 1063.15 849.774 1063.15 763.357 1080.25 c 0,57,58
 716.709 1089 716.709 1089 613 1089 c 2,59,-1
 339 1089 l 1,60,-1
 339 616 l 1,61,-1
 592 616 l 2,51,52
EndSplineSet
Validated: 524289
EndChar

StartChar: S
Encoding: 311 83 55
Width: 1228
Flags: W
LayerCount: 2
Fore
SplineSet
968.177 803.779 m 0,0,1
 942.646 962.626 942.646 962.626 857.331 1040.31 c 128,-1,2
 772.016 1118 772.016 1118 624 1118 c 0,3,4
 459.791 1118 459.791 1118 369.9 1028.1 c 0,5,6
 289.972 948.166 289.972 948.166 289.5 848.434 c 0,7,8
 289.035 750.184 289.035 750.184 372.131 690.897 c 0,9,10
 457.988 629.64 457.988 629.64 625.171 615.951 c 0,11,12
 738.44 606.348 738.44 606.348 808.103 591.43 c 0,13,14
 879.588 576.12 879.588 576.12 937.338 537.1 c 0,15,16
 1060 454.22 1060 454.22 1060 302 c 0,17,18
 1060 131.75 1060 131.75 922.119 33.5947 c 0,19,20
 803.288 -51 803.288 -51 631.905 -51 c 0,21,22
 459.919 -51 459.919 -51 346.1 44.1928 c 0,23,24
 326.246 60.2905 326.246 60.2905 300.565 88.6666 c 0,25,26
 297.143 92.5359 297.143 92.5359 293.363 96.9158 c 1,27,28
 293.104 57.4882 293.104 57.4882 289.976 5.18786 c 0,29,30
 288.366 -22.5256 288.366 -22.5256 287.998 -43.2486 c 0,31,32
 287.895 -49.0349 287.895 -49.0349 283.538 -53.0174 c 128,-1,33
 279.182 -57 279.182 -57 274 -57 c 2,34,-1
 218 -57 l 2,35,36
 211.645 -57 211.645 -57 207.425 -52.046 c 128,-1,37
 203.206 -47.0921 203.206 -47.0921 204.163 -40.8712 c 0,38,39
 216 36.0724 216 36.0724 216 101 c 0,40,41
 216 166.294 216 166.294 200.073 321.572 c 0,42,43
 199.427 327.867 199.427 327.867 203.921 332.433 c 128,-1,44
 208.415 337 208.415 337 214 337 c 2,45,-1
 261 337 l 2,46,47
 272.067 337 272.067 337 274.622 326.232 c 0,48,49
 302.362 209.321 302.362 209.321 334.285 168.146 c 0,50,51
 387.796 99.1285 387.796 99.1285 448.822 66.9633 c 0,52,53
 509.464 35 509.464 35 614 35 c 0,54,55
 719.483 35 719.483 35 787.125 60.124 c 0,56,57
 854.429 85.122 854.429 85.122 894.345 123.138 c 0,58,59
 966 191.383 966 191.383 966 291.69 c 0,60,61
 966 487.91 966 487.91 658.435 524.088 c 1,62,63
 348.414 557.373 348.414 557.373 245.286 683.984 c 1,64,65
 197 740.431 197 740.431 197 847 c 0,66,67
 197 990.296 197 990.296 317.704 1097.47 c 0,68,69
 437.985 1204.26 437.985 1204.26 625.462 1194.73 c 0,70,71
 811.697 1185.26 811.697 1185.26 919.233 1099.44 c 0,72,73
 919.525 1099.21 919.525 1099.21 919.801 1098.96 c 0,74,75
 937.252 1083.45 937.252 1083.45 952.853 1066.46 c 1,76,77
 954.365 1095.31 954.365 1095.31 956.021 1125.27 c 0,78,79
 956.139 1127.41 956.139 1127.41 958.543 1158.6 c 0,80,81
 959.545 1171.03 959.545 1171.03 959.136 1175.12 c 0,82,83
 958.453 1181.99 958.453 1181.99 962.896 1186.5 c 128,-1,84
 967.339 1191 967.339 1191 973 1191 c 2,85,-1
 1026 1191 l 2,86,87
 1032.67 1191 1032.67 1191 1036.75 1185.64 c 128,-1,88
 1040.83 1180.29 1040.83 1180.29 1039.77 1174.5 c 0,89,90
 1028 1109.72 1028 1109.72 1028 1033.21 c 0,91,92
 1028 956.173 1028 956.173 1042.92 815.477 c 0,93,94
 1043.51 809.943 1043.51 809.943 1039.93 805.512 c 128,-1,95
 1036.36 801.082 1036.36 801.082 1031.43 800.213 c 0,96,97
 1014.38 797.203 1014.38 797.203 1005.3 795.69 c 2,98,-1
 984.302 792.19 l 2,99,100
 978.413 791.209 978.413 791.209 973.694 795.012 c 128,-1,101
 968.975 798.814 968.975 798.814 968.177 803.779 c 0,0,1
EndSplineSet
Validated: 524321
EndChar

StartChar: T
Encoding: 312 84 56
Width: 1228
Flags: W
LayerCount: 2
Fore
SplineSet
1117.99 1153.63 m 2,0,-1
 1138.99 686.629 l 2,1,2
 1139.26 680.627 1139.26 680.627 1134.91 676.313 c 128,-1,3
 1130.57 672 1130.57 672 1125 672 c 2,4,-1
 1072 672 l 2,5,6
 1066.43 672 1066.43 672 1062.39 676.024 c 128,-1,7
 1058.36 680.049 1058.36 680.049 1058.03 685.095 c 2,8,-1
 1031.88 1089 l 1,9,-1
 658 1089 l 1,10,-1
 658 64 l 1,11,-1
 901 64 l 2,12,13
 915 64 915 64 915 50 c 2,14,-1
 915 0 l 2,15,16
 915 -14 915 -14 901 -14 c 2,17,-1
 327 -14 l 2,18,19
 313 -14 313 -14 313 0 c 2,20,-1
 313 50 l 2,21,22
 313 64 313 64 327 64 c 2,23,-1
 572 64 l 1,24,-1
 572 1089 l 1,25,-1
 197.06 1089 l 1,26,-1
 168.966 685.029 l 2,27,28
 168.58 679.478 168.58 679.478 164.288 675.739 c 128,-1,29
 159.997 672 159.997 672 155 672 c 2,30,-1
 105 672 l 2,31,32
 98.992 672 98.992 672 94.878 676.534 c 128,-1,33
 90.764 681.067 90.764 681.067 91.0141 686.629 c 2,34,-1
 112.014 1153.63 l 2,35,36
 112.266 1159.23 112.266 1159.23 116.477 1163.11 c 128,-1,37
 120.688 1167 120.688 1167 126 1167 c 2,38,-1
 1104 1167 l 2,39,40
 1109.6 1167 1109.6 1167 1113.68 1162.97 c 128,-1,41
 1117.75 1158.94 1117.75 1158.94 1117.99 1153.63 c 2,0,-1
EndSplineSet
Validated: 524289
EndChar

StartChar: U
Encoding: 313 85 57
Width: 1228
Flags: W
LayerCount: 2
Fore
SplineSet
942.29 264.836 m 0,0,1
 956 331.109 956 331.109 956 454 c 2,2,-1
 956 1089 l 1,3,-1
 752 1089 l 2,4,5
 738 1089 738 1089 738 1103 c 2,6,-1
 738 1153 l 2,7,8
 738 1167 738 1167 752 1167 c 2,9,-1
 1181 1167 l 2,10,11
 1195 1167 1195 1167 1195 1153 c 2,12,-1
 1195 1103 l 2,13,14
 1195 1089 1195 1089 1181 1089 c 2,15,-1
 1041 1089 l 1,16,-1
 1041 454 l 2,17,18
 1041 205.487 1041 205.487 966.365 101.825 c 0,19,20
 923.381 42.0655 923.381 42.0655 831.845 -4.47939 c 128,-1,21
 740.286 -51.0365 740.286 -51.0365 644.848 -49.9992 c 0,22,23
 482.356 -48.2331 482.356 -48.2331 398.571 -4.43658 c 0,24,25
 304.016 43.8911 304.016 43.8911 262.674 101.77 c 0,26,27
 228.832 147.556 228.832 147.556 214.279 208.02 c 0,28,29
 190 308.883 190 308.883 190 454 c 2,30,-1
 190 1089 l 1,31,-1
 49 1089 l 2,32,33
 35 1089 35 1089 35 1103 c 2,34,-1
 35 1153 l 2,35,36
 35 1167 35 1167 49 1167 c 2,37,-1
 478 1167 l 2,38,39
 492 1167 492 1167 492 1153 c 2,40,-1
 492 1103 l 2,41,42
 492 1089 492 1089 478 1089 c 2,43,-1
 275 1089 l 1,44,-1
 275 396.5 l 2,45,46
 275 260.874 275 260.874 317.329 175.648 c 1,47,48
 398.285 36.9692 398.285 36.9692 619.327 36.9844 c 128,-1,49
 840.456 36.9996 840.456 36.9996 911.547 175.397 c 0,50,51
 912.304 176.871 912.304 176.871 913.825 178.639 c 0,52,53
 931.576 212.689 931.576 212.689 942.096 260.229 c 0,54,55
 941.887 262.887 941.887 262.887 942.29 264.836 c 0,0,1
EndSplineSet
Validated: 524321
EndChar

StartChar: V
Encoding: 314 86 58
Width: 1228
Flags: W
LayerCount: 2
Fore
SplineSet
653 -14 m 2,0,-1
 585 -14 l 2,1,2
 575.334 -14 575.334 -14 571.909 -4.96122 c 2,3,-1
 157.334 1089 l 1,4,-1
 11 1089 l 2,5,6
 -3 1089 -3 1089 -3 1103 c 2,7,-1
 -3 1153 l 2,8,9
 -3 1167 -3 1167 11 1167 c 2,10,-1
 419 1167 l 2,11,12
 433 1167 433 1167 433 1153 c 2,13,-1
 433 1103 l 2,14,15
 433 1089 433 1089 419 1089 c 2,16,-1
 242.407 1089 l 1,17,-1
 622.05 104.988 l 1,18,-1
 1005.52 1089 l 1,19,-1
 813 1089 l 2,20,21
 799 1089 799 1089 799 1103 c 2,22,-1
 799 1153 l 2,23,24
 799 1167 799 1167 813 1167 c 2,25,-1
 1218 1167 l 2,26,27
 1232 1167 1232 1167 1232 1153 c 2,28,-1
 1232 1103 l 2,29,30
 1232 1089 1232 1089 1218 1089 c 2,31,-1
 1084.63 1089 l 1,32,-1
 666.076 -5.00266 l 2,33,34
 662.633 -14 662.633 -14 653 -14 c 2,0,-1
EndSplineSet
Validated: 524289
EndChar

StartChar: W
Encoding: 315 87 59
Width: 1228
Flags: W
LayerCount: 2
Fore
SplineSet
297.35 123.925 m 1,0,1
 426.347 484.639 426.347 484.639 586.803 937.674 c 0,2,3
 590.106 947 590.106 947 600 947 c 2,4,-1
 636 947 l 2,5,6
 645.987 947 645.987 947 649.238 937.556 c 2,7,-1
 929.78 122.468 l 1,8,-1
 1064.91 1089 l 1,9,-1
 859 1089 l 2,10,11
 845 1089 845 1089 845 1103 c 2,12,-1
 845 1153 l 2,13,14
 845 1167 845 1167 859 1167 c 2,15,-1
 1226 1167 l 2,16,17
 1240 1167 1240 1167 1240 1153 c 2,18,-1
 1240 1103 l 2,19,20
 1240 1089 1240 1089 1226 1089 c 2,21,-1
 1142.12 1089 l 1,22,-1
 983.855 -2.00979 l 2,23,24
 982.116 -14 982.116 -14 970 -14 c 2,25,-1
 903 -14 l 2,26,27
 893.062 -14 893.062 -14 889.784 -4.61781 c 2,28,-1
 611.42 792.078 l 1,29,-1
 329.197 -4.67445 l 2,30,31
 325.893 -14 325.893 -14 316 -14 c 2,32,-1
 249 -14 l 2,33,34
 236.775 -14 236.775 -14 235.128 -1.88653 c 2,35,-1
 86.775 1089 l 1,36,-1
 2 1089 l 2,37,38
 -12 1089 -12 1089 -12 1103 c 2,39,-1
 -12 1153 l 2,40,41
 -12 1167 -12 1167 2 1167 c 2,42,-1
 373 1167 l 2,43,44
 387 1167 387 1167 387 1153 c 2,45,-1
 387 1103 l 2,46,47
 387 1089 387 1089 373 1089 c 2,48,-1
 168.985 1089 l 1,49,-1
 297.35 123.925 l 1,0,1
EndSplineSet
Validated: 524289
EndChar

StartChar: X
Encoding: 316 88 60
Width: 1228
Flags: W
LayerCount: 2
Fore
SplineSet
1159 -14 m 2,0,-1
 778 -14 l 2,1,2
 764 -14 764 -14 764 0 c 2,3,-1
 764 50 l 2,4,5
 764 64 764 64 778 64 c 2,6,-1
 966.472 64 l 1,7,-1
 614.796 546.511 l 1,8,-1
 250.129 64 l 1,9,-1
 474 64 l 2,10,11
 488 64 488 64 488 50 c 2,12,-1
 488 0 l 2,13,14
 488 -14 488 -14 474 -14 c 2,15,-1
 69 -14 l 2,16,17
 55 -14 55 -14 55 0 c 2,18,-1
 55 50 l 2,19,20
 55 64 55 64 69 64 c 2,21,-1
 158.043 64 l 1,22,-1
 569.425 606.986 l 1,23,-1
 203.056 1089 l 1,24,-1
 108 1089 l 2,25,26
 94 1089 94 1089 94 1103 c 2,27,-1
 94 1153 l 2,28,29
 94 1167 94 1167 108 1167 c 2,30,-1
 474 1167 l 2,31,32
 488 1167 488 1167 488 1153 c 2,33,-1
 488 1103 l 2,34,35
 488 1089 488 1089 474 1089 c 2,36,-1
 301.878 1089 l 1,37,-1
 615.161 668.226 l 1,38,-1
 937.632 1089 l 1,39,-1
 778 1089 l 2,40,41
 764 1089 764 1089 764 1103 c 2,42,-1
 764 1153 l 2,43,44
 764 1167 764 1167 778 1167 c 2,45,-1
 1118 1167 l 2,46,47
 1132 1167 1132 1167 1132 1153 c 2,48,-1
 1132 1103 l 2,49,50
 1132 1089 1132 1089 1118 1089 c 2,51,-1
 1028.94 1089 l 1,52,-1
 662.529 607.91 l 1,53,-1
 1068.03 64 l 1,54,-1
 1159 64 l 2,55,56
 1173 64 1173 64 1173 50 c 2,57,-1
 1173 0 l 2,58,59
 1173 -14 1173 -14 1159 -14 c 2,0,-1
EndSplineSet
Validated: 524289
EndChar

StartChar: Y
Encoding: 317 89 61
Width: 1228
Flags: W
LayerCount: 2
Fore
SplineSet
897 -14 m 2,0,-1
 335 -14 l 2,1,2
 321 -14 321 -14 321 0 c 2,3,-1
 321 50 l 2,4,5
 321 64 321 64 335 64 c 2,6,-1
 574 64 l 1,7,-1
 574 444.097 l 1,8,-1
 184.104 1089 l 1,9,-1
 68 1089 l 2,10,11
 54 1089 54 1089 54 1103 c 2,12,-1
 54 1153 l 2,13,14
 54 1167 54 1167 68 1167 c 2,15,-1
 436 1167 l 2,16,17
 450 1167 450 1167 450 1153 c 2,18,-1
 450 1103 l 2,19,20
 450 1089 450 1089 436 1089 c 2,21,-1
 278.98 1089 l 1,22,-1
 622.885 527.009 l 1,23,-1
 960.266 1089 l 1,24,-1
 798 1089 l 2,25,26
 784 1089 784 1089 784 1103 c 2,27,-1
 784 1153 l 2,28,29
 784 1167 784 1167 798 1167 c 2,30,-1
 1162 1167 l 2,31,32
 1176 1167 1176 1167 1176 1153 c 2,33,-1
 1176 1103 l 2,34,35
 1176 1089 1176 1089 1162 1089 c 2,36,-1
 1045.94 1089 l 1,37,-1
 660 444.131 l 1,38,-1
 660 64 l 1,39,-1
 897 64 l 2,40,41
 911 64 911 64 911 50 c 2,42,-1
 911 0 l 2,43,44
 911 -14 911 -14 897 -14 c 2,0,-1
EndSplineSet
Validated: 524289
EndChar

StartChar: Z
Encoding: 318 90 62
Width: 1228
Flags: W
LayerCount: 2
Fore
SplineSet
1052 -14 m 2,0,-1
 178 -14 l 2,1,2
 164 -14 164 -14 164 0 c 2,3,-1
 164 68 l 2,4,5
 164 72.5978 164 72.5978 166.726 76.3003 c 2,6,-1
 912.308 1089 l 1,7,-1
 258 1089 l 1,8,-1
 258 791 l 2,9,10
 258 777 258 777 244 777 c 2,11,-1
 193 777 l 2,12,13
 179 777 179 777 179 791 c 2,14,-1
 179 1153 l 2,15,16
 179 1167 179 1167 193 1167 c 2,17,-1
 1002 1167 l 2,18,19
 1016 1167 1016 1167 1016 1153 c 2,20,-1
 1016 1098 l 2,21,22
 1016 1093.41 1016 1093.41 1013.28 1089.71 c 2,23,-1
 259.659 64 l 1,24,-1
 987 64 l 1,25,-1
 987 397 l 2,26,27
 987 411 987 411 1001 411 c 2,28,-1
 1052 411 l 2,29,30
 1066 411 1066 411 1066 397 c 2,31,-1
 1066 0 l 2,32,33
 1066 -14 1066 -14 1052 -14 c 2,0,-1
EndSplineSet
Validated: 524289
EndChar

StartChar: bracketleft
Encoding: 319 91 63
Width: 1228
Flags: W
LayerCount: 2
Fore
SplineSet
978 -207 m 2,0,-1
 648 -207 l 2,1,2
 634 -207 634 -207 634 -193 c 2,3,-1
 634 1339 l 2,4,5
 634 1353 634 1353 648 1353 c 2,6,-1
 978 1353 l 2,7,8
 992 1353 992 1353 992 1339 c 2,9,-1
 992 1282 l 2,10,11
 992 1268 992 1268 978 1268 c 2,12,-1
 720 1268 l 1,13,-1
 720 -121 l 1,14,-1
 978 -121 l 2,15,16
 992 -121 992 -121 992 -135 c 2,17,-1
 992 -193 l 2,18,19
 992 -207 992 -207 978 -207 c 2,0,-1
EndSplineSet
Validated: 1
EndChar

StartChar: backslash
Encoding: 320 92 64
Width: 1228
Flags: W
LayerCount: 2
Fore
SplineSet
964.253 -276.79 m 2,0,-1
 200.253 1405.21 l 2,1,2
 197.774 1410.67 197.774 1410.67 200.21 1416.26 c 128,-1,3
 202.647 1421.85 202.647 1421.85 207.615 1423.92 c 2,4,-1
 255.615 1443.92 l 2,5,6
 268.131 1449.14 268.131 1449.14 273.744 1436.8 c 2,7,-1
 1037.74 -243.204 l 2,8,9
 1040.05 -248.72 1040.05 -248.72 1037.89 -254.102 c 128,-1,10
 1035.73 -259.484 1035.73 -259.484 1030.83 -261.727 c 2,11,-1
 982.833 -283.727 l 2,12,13
 977.409 -286.213 977.409 -286.213 971.864 -283.775 c 128,-1,14
 966.319 -281.338 966.319 -281.338 964.253 -276.79 c 2,0,-1
EndSplineSet
Validated: 524289
EndChar

StartChar: bracketright
Encoding: 321 93 65
Width: 1228
Flags: W
LayerCount: 2
Fore
SplineSet
582 -207 m 2,0,-1
 252 -207 l 2,1,2
 238 -207 238 -207 238 -193 c 2,3,-1
 238 -135 l 2,4,5
 238 -121 238 -121 252 -121 c 2,6,-1
 511 -121 l 1,7,-1
 511 1268 l 1,8,-1
 252 1268 l 2,9,10
 238 1268 238 1268 238 1282 c 2,11,-1
 238 1339 l 2,12,13
 238 1353 238 1353 252 1353 c 2,14,-1
 582 1353 l 2,15,16
 596 1353 596 1353 596 1339 c 2,17,-1
 596 -193 l 2,18,19
 596 -207 596 -207 582 -207 c 2,0,-1
EndSplineSet
Validated: 1
EndChar

StartChar: asciicircum
Encoding: 322 94 66
Width: 1228
Flags: W
LayerCount: 2
Fore
SplineSet
149.307 321.906 m 2,0,-1
 538.307 1157.91 l 2,1,2
 542.073 1166 542.073 1166 551 1166 c 2,3,-1
 677 1166 l 2,4,5
 685.927 1166 685.927 1166 689.693 1157.91 c 2,6,-1
 1078.69 321.906 l 2,7,8
 1084.6 309.213 1084.6 309.213 1071.91 303.307 c 0,9,10
 1069.1 302 1069.1 302 1066 302 c 2,11,-1
 984 302 l 2,12,13
 975.087 302 975.087 302 971.315 310.075 c 2,14,-1
 618.997 1064.39 l 1,15,16
 613.888 1064.07 613.888 1064.07 608.958 1064.39 c 1,17,18
 572.299 988.356 572.299 988.356 258.707 310.125 c 0,19,20
 254.951 302 254.951 302 246 302 c 2,21,-1
 162 302 l 2,22,23
 148 302 148 302 148 316 c 0,24,25
 148 319.098 148 319.098 149.307 321.906 c 2,0,-1
EndSplineSet
Validated: 524289
EndChar

StartChar: underscore
Encoding: 323 95 67
Width: 1228
Flags: W
LayerCount: 2
Fore
SplineSet
1324 -270 m 2,0,-1
 -96 -270 l 2,1,2
 -110 -270 -110 -270 -110 -256 c 2,3,-1
 -110 -199 l 2,4,5
 -110 -185 -110 -185 -96 -185 c 2,6,-1
 1324 -185 l 2,7,8
 1338 -185 1338 -185 1338 -199 c 2,9,-1
 1338 -256 l 2,10,11
 1338 -270 1338 -270 1324 -270 c 2,0,-1
EndSplineSet
Validated: 1
EndChar

StartChar: grave
Encoding: 324 96 68
Width: 1228
Flags: W
LayerCount: 2
Fore
SplineSet
711 1053 m 2,0,-1
 654 1053 l 2,1,2
 648.788 1053 648.788 1053 644.845 1056.41 c 0,3,4
 586.124 1107.17 586.124 1107.17 529.728 1157.01 c 128,-1,5
 473.459 1206.74 473.459 1206.74 416.874 1255.38 c 0,6,7
 406.257 1264.51 406.257 1264.51 415.384 1275.13 c 0,8,9
 419.573 1280 419.573 1280 426 1280 c 2,10,-1
 576 1280 l 2,11,12
 583.42 1280 583.42 1280 587.586 1273.86 c 2,13,-1
 722.586 1074.86 l 2,14,15
 730.446 1063.27 730.446 1063.27 718.86 1055.41 c 0,16,17
 715.301 1053 715.301 1053 711 1053 c 2,0,-1
EndSplineSet
Validated: 524289
EndChar

StartChar: a
Encoding: 325 97 69
Width: 1228
Flags: W
LayerCount: 2
Fore
SplineSet
210.737 851.973 m 0,0,1
 422.798 938 422.798 938 595 938 c 0,2,3
 850.802 938 850.802 938 924.727 777.833 c 0,4,5
 941.131 741.746 941.131 741.746 945.645 704.13 c 0,6,7
 949.897 668.699 949.897 668.699 950.904 660.136 c 0,8,9
 952 650.819 952 650.819 952 639 c 2,10,-1
 952 65 l 1,11,-1
 1131 65 l 2,12,13
 1145 65 1145 65 1145 51 c 2,14,-1
 1145 0 l 2,15,16
 1145 -14 1145 -14 1131 -14 c 2,17,-1
 881 -14 l 2,18,19
 867 -14 867 -14 867 0 c 2,20,-1
 867 156.623 l 1,21,22
 637.232 -45 637.232 -45 442 -45 c 0,23,24
 294.476 -45 294.476 -45 198.354 44.8527 c 1,25,26
 104.413 135.662 104.413 135.662 103.999 249.705 c 1,27,28
 100.61 341.248 100.61 341.248 177.986 429.245 c 0,29,30
 297.357 565 297.357 565 552 565 c 0,31,32
 704.162 565 704.162 565 867 534.001 c 1,33,-1
 867 614.188 l 1,34,35
 869.618 712.318 869.618 712.318 830.052 768.546 c 128,-1,36
 790.486 824.774 790.486 824.774 706.963 843.333 c 0,37,38
 654.349 855.025 654.349 855.025 592.889 856 c 0,39,40
 434.071 856 434.071 856 241.421 775.092 c 0,41,42
 229.047 769.895 229.047 769.895 223.332 782.039 c 0,43,44
 215.638 798.392 215.638 798.392 202.816 834.291 c 0,45,46
 198.302 846.929 198.302 846.929 210.737 851.973 c 0,0,1
867 460.254 m 1,47,48
 729.949 484 729.949 484 614.071 484 c 0,49,50
 493.454 484 493.454 484 435.378 471.799 c 128,-1,51
 377.444 459.628 377.444 459.628 336.896 440.802 c 0,52,53
 216.537 384.921 216.537 384.921 198.837 269.871 c 0,54,55
 198.79 269.562 198.79 269.562 198.728 269.254 c 0,56,57
 198 265.614 198 265.614 198 260.5 c 2,58,-1
 198 247 l 2,59,60
 198 161.467 198 161.467 270.577 99.6587 c 0,61,62
 344.152 37 344.152 37 440 37 c 0,63,64
 654.728 37 654.728 37 867 272.36 c 1,65,-1
 867 460.254 l 1,47,48
EndSplineSet
Validated: 524321
EndChar

StartChar: b
Encoding: 326 98 70
Width: 1228
Flags: W
LayerCount: 2
Fore
SplineSet
5.00264 1306.96 m 0,0,1
 146.101 1317.05 146.101 1317.05 262.166 1323.98 c 0,2,3
 268.176 1324.33 268.176 1324.33 272.588 1320.05 c 128,-1,4
 277 1315.77 277 1315.77 277 1310 c 2,5,-1
 277 701.075 l 1,6,7
 329.116 782.55 329.116 782.55 420.998 835.623 c 0,8,9
 537.587 902.968 537.587 902.968 648.071 903.999 c 0,10,11
 757.819 905.024 757.819 905.024 844.515 867.868 c 0,12,13
 930.946 830.825 930.946 830.825 996.821 765.977 c 0,14,15
 1141.13 623.92 1141.13 623.92 1137 431.847 c 1,16,17
 1137 245.496 1137 245.496 1008.13 110.339 c 0,18,19
 869.556 -35 869.556 -35 672 -35 c 0,20,21
 493.881 -35 493.881 -35 384.835 60.417 c 0,22,23
 335.838 102.415 335.838 102.415 309.731 133.089 c 0,24,25
 294.484 151.006 294.484 151.006 277 177.572 c 1,26,-1
 277 0 l 2,27,28
 277 -14 277 -14 263 -14 c 2,29,-1
 32 -14 l 2,30,31
 18 -14 18 -14 18 0 c 2,32,-1
 18 51 l 2,33,34
 18 65 18 65 32 65 c 2,35,-1
 192 65 l 1,36,-1
 192 1238.28 l 1,37,-1
 6.69913 1229.02 l 2,38,39
 0.694084 1228.72 0.694084 1228.72 -3.65296 1233.04 c 128,-1,40
 -8 1237.36 -8 1237.36 -8 1243 c 2,41,-1
 -8 1293 l 2,42,43
 -8 1298.56 -8 1298.56 -3.97891 1302.59 c 128,-1,44
 0.0421709 1306.61 0.0421709 1306.61 5.00264 1306.96 c 0,0,1
390.962 162.837 m 1,45,46
 503.797 50 503.797 50 666.5 50 c 0,47,48
 828.968 50 828.968 50 935.823 163.114 c 0,49,50
 1043 276.569 1043 276.569 1043 433.5 c 128,-1,51
 1043 590.414 1043 590.414 935.345 703.863 c 0,52,53
 827.986 817 827.986 817 666 817 c 0,54,55
 503.799 817 503.799 817 391.4 704.601 c 128,-1,56
 279 592.201 279 592.201 279 435 c 128,-1,57
 279 277.694 279 277.694 390.962 162.837 c 1,45,46
EndSplineSet
Validated: 524321
EndChar

StartChar: c
Encoding: 327 99 71
Width: 1228
Flags: W
LayerCount: 2
Fore
SplineSet
1081.85 879.985 m 0,0,1
 1068 784.726 1068 784.726 1068 726.375 c 0,2,3
 1068 667.437 1068 667.437 1071.97 603.873 c 0,4,5
 1072.31 598.518 1072.31 598.518 1068.81 594.279 c 128,-1,6
 1065.31 590.04 1065.31 590.04 1060.34 589.198 c 2,7,-1
 1007.34 580.198 l 2,8,9
 994.76 578.061 994.76 578.061 991.472 590.394 c 0,10,11
 986.757 608.083 986.757 608.083 984.94 618.067 c 0,12,13
 968.579 708.048 968.579 708.048 902.33 762.485 c 0,14,15
 834.937 817.863 834.937 817.863 743.534 834.219 c 0,16,17
 743.144 834.289 743.144 834.289 742.757 834.381 c 0,18,19
 710.759 842 710.759 842 626.2 842 c 0,20,21
 542.837 842 542.837 842 460.46 807.109 c 0,22,23
 378.478 772.384 378.478 772.384 328.617 714.374 c 0,24,25
 225 593.822 225 593.822 225 444 c 0,26,27
 225 293.002 225 293.002 321.864 174.83 c 0,28,29
 369.808 115.379 369.808 115.379 451.776 78.2528 c 0,30,31
 534.023 41 534.023 41 640 41 c 0,32,33
 830.727 41 830.727 41 1084.15 212.593 c 0,34,35
 1095.38 220.194 1095.38 220.194 1103.33 209.218 c 2,36,-1
 1132.33 169.218 l 2,37,38
 1140.42 158.064 1140.42 158.064 1129.4 149.8 c 0,39,40
 1059.86 97.6532 1059.86 97.6532 1019.28 75.909 c 0,41,42
 982.094 55.989 982.094 55.989 948.897 37.0977 c 0,43,44
 947.438 35.6389 947.438 35.6389 945.616 34.6619 c 0,45,46
 797.058 -45 797.058 -45 629.132 -45 c 1,47,48
 415.856 -49.0239 415.856 -49.0239 269.139 96.5624 c 0,49,50
 124.771 239.818 124.771 239.818 131 441.217 c 1,51,52
 131 623.529 131 623.529 253.283 769.008 c 0,53,54
 313.405 840.534 313.405 840.534 413.437 883.847 c 0,55,56
 513.099 927 513.099 927 637 927 c 0,57,58
 837.169 927 837.169 927 967.384 809.389 c 0,59,60
 967.647 809.152 967.647 809.152 967.899 808.899 c 0,61,62
 974.873 801.926 974.873 801.926 983.764 790.369 c 0,63,64
 985.647 787.921 985.647 787.921 987.643 785.355 c 1,65,66
 988.687 800.568 988.687 800.568 990.569 819.393 c 0,67,68
 993.08 844.504 993.08 844.504 994.6 857.168 c 0,69,70
 996.046 869.221 996.046 869.221 997.022 886.777 c 0,71,72
 997.353 892.746 997.353 892.746 1002.1 896.536 c 128,-1,73
 1006.84 900.326 1006.84 900.326 1011.98 899.966 c 2,74,-1
 1068.98 895.966 l 2,75,76
 1075 895.543 1075 895.543 1078.86 890.722 c 128,-1,77
 1082.71 885.9 1082.71 885.9 1081.85 879.985 c 0,0,1
EndSplineSet
Validated: 524321
EndChar

StartChar: d
Encoding: 328 100 72
Width: 1228
Flags: W
LayerCount: 2
Fore
SplineSet
598.742 1281.94 m 2,0,-1
 1008.74 1318.94 l 2,1,2
 1015.04 1319.51 1015.04 1319.51 1019.52 1314.96 c 128,-1,3
 1024 1310.42 1024 1310.42 1024 1305 c 2,4,-1
 1024 65 l 1,5,-1
 1194 65 l 2,6,7
 1208 65 1208 65 1208 51 c 2,8,-1
 1208 0 l 2,9,10
 1208 -14 1208 -14 1194 -14 c 2,11,-1
 952 -14 l 2,12,13
 938 -14 938 -14 938 0 c 2,14,-1
 938 171.9 l 1,15,16
 884.408 85.7191 884.408 85.7191 793.203 30.9951 c 0,17,18
 683.212 -35 683.212 -35 557 -35 c 0,19,20
 361.168 -35 361.168 -35 224.563 102.638 c 128,-1,21
 88 240.234 88 240.234 88 434 c 0,22,23
 88 572.056 88 572.056 156.673 680.491 c 0,24,25
 225.128 788.583 225.128 788.583 331.359 845.825 c 128,-1,26
 437.467 903 437.467 903 553 903 c 0,27,28
 690.492 903 690.492 903 812.31 821.119 c 0,29,30
 892.768 767.039 892.768 767.039 938 688.863 c 1,31,-1
 938 1229.01 l 1,32,-1
 602.958 1206.03 l 2,33,34
 596.998 1205.62 596.998 1205.62 592.66 1209.86 c 128,-1,35
 588.323 1214.11 588.323 1214.11 588.024 1219.18 c 0,36,37
 587 1236.59 587 1236.59 587 1247 c 0,38,39
 587 1256.36 587 1256.36 586.057 1266.73 c 0,40,41
 585.518 1272.67 585.518 1272.67 589.661 1277.08 c 128,-1,42
 593.804 1281.5 593.804 1281.5 598.742 1281.94 c 2,0,-1
557 817 m 0,43,44
 405.596 817 405.596 817 293.656 710.363 c 0,45,46
 182 603.996 182 603.996 182 436.5 c 128,-1,47
 182 268.819 182 268.819 291.878 159.421 c 128,-1,48
 401.779 50 401.779 50 557.5 50 c 128,-1,49
 713.236 49.9892 713.236 49.9892 823.644 159.421 c 128,-1,50
 934 268.823 934 268.823 934 429 c 0,51,52
 934 572.339 934 572.339 840.093 688.222 c 0,53,54
 794.054 745.773 794.054 745.773 720.404 781.397 c 128,-1,55
 646.797 817 646.797 817 557 817 c 0,43,44
EndSplineSet
Validated: 524321
EndChar

StartChar: e
Encoding: 329 101 73
Width: 1228
Flags: W
LayerCount: 2
Fore
SplineSet
652 37 m 0,0,1
 827.713 37 827.713 37 1106.88 172.593 c 0,2,3
 1118.69 178.325 1118.69 178.325 1125.17 166.92 c 2,4,-1
 1154.17 115.92 l 2,5,6
 1157.04 110.402 1157.04 110.402 1155.17 104.755 c 128,-1,7
 1153.3 99.1066 1153.3 99.1066 1148.48 96.5875 c 0,8,9
 877.076 -45 877.076 -45 650 -45 c 0,10,11
 398.042 -45 398.042 -45 261.679 102.541 c 1,12,13
 136 240.788 136 240.788 136 438 c 0,14,15
 136 570.537 136 570.537 195.181 680.151 c 0,16,17
 254.519 790.057 254.519 790.057 369.852 858.538 c 128,-1,18
 485.154 927 485.154 927 619 927 c 0,19,20
 866.932 927 866.932 927 997.188 787.602 c 1,21,22
 1118 660.431 1118 660.431 1118 508 c 2,23,-1
 1118 436 l 2,24,25
 1118 422 1118 422 1104 422 c 2,26,-1
 227.982 422 l 1,27,28
 236.608 315.93 236.608 315.93 282.276 228.734 c 1,29,30
 368.446 78.7404 368.446 78.7404 559.45 44.7839 c 0,31,32
 603.234 37 603.234 37 652 37 c 0,0,1
1022.6 501 m 1,33,34
 1016.54 639.368 1016.54 639.368 930.668 732.553 c 1,35,36
 827.926 846 827.926 846 637 846 c 0,37,38
 469.822 846 469.822 846 370.481 757.696 c 1,39,40
 274.725 666.504 274.725 666.504 246.836 579.238 c 0,41,42
 234.403 540.337 234.403 540.337 226.744 501 c 1,43,-1
 1022.6 501 l 1,33,34
EndSplineSet
Validated: 524289
EndChar

StartChar: f
Encoding: 330 102 74
Width: 1228
Flags: W
LayerCount: 2
Fore
SplineSet
1040.75 1267.21 m 1,0,1
 1019.8 1221.12 1019.8 1221.12 1016.28 1210.57 c 0,2,3
 1012.28 1198.58 1012.28 1198.58 999.943 1201.34 c 0,4,5
 858.392 1233.01 858.392 1233.01 725.921 1234 c 0,6,7
 558.219 1234.94 558.219 1234.94 517.888 1140.53 c 0,8,9
 501.799 1102.31 501.799 1102.31 500 1044.78 c 1,10,-1
 500 869 l 1,11,-1
 947 869 l 2,12,13
 961 869 961 869 961 855 c 2,14,-1
 961 804 l 2,15,16
 961 790 961 790 947 790 c 2,17,-1
 500 790 l 1,18,-1
 500 65 l 1,19,-1
 947 65 l 2,20,21
 961 65 961 65 961 51 c 2,22,-1
 961 0 l 2,23,24
 961 -14 961 -14 947 -14 c 2,25,-1
 203 -14 l 2,26,27
 189 -14 189 -14 189 0 c 2,28,-1
 189 51 l 2,29,30
 189 65 189 65 203 65 c 2,31,-1
 414 65 l 1,32,-1
 414 790 l 1,33,-1
 203 790 l 2,34,35
 189 790 189 790 189 804 c 2,36,-1
 189 855 l 2,37,38
 189 869 189 869 203 869 c 2,39,-1
 414 869 l 1,40,-1
 414 1002 l 2,41,42
 414 1041.89 414 1041.89 424.112 1121.27 c 0,43,44
 434.885 1205.83 434.885 1205.83 509.863 1259.39 c 0,45,46
 583.505 1312 583.505 1312 735 1312 c 0,47,48
 883.24 1312 883.24 1312 1030.36 1286.8 c 0,49,50
 1036 1285.83 1036 1285.83 1039.38 1281.05 c 128,-1,51
 1042.76 1276.27 1042.76 1276.27 1041.8 1270.64 c 2,52,-1
 1040.75 1267.21 l 1,0,1
EndSplineSet
Validated: 524321
EndChar

StartChar: g
Encoding: 331 103 75
Width: 1228
Flags: W
LayerCount: 2
Fore
SplineSet
759.833 73.3961 m 0,0,1
 661.467 7 661.467 7 533.593 7 c 0,2,3
 408.867 7 408.867 7 303.971 66.5887 c 1,4,-1
 300.515 68.1689 l 1,5,6
 197.804 133.148 197.804 133.148 136.867 234.008 c 1,7,8
 78 341.229 78 341.229 78 460.911 c 0,9,10
 78 580.988 78 580.988 142.101 684.377 c 0,11,12
 206.013 787.461 206.013 787.461 309.686 845.23 c 128,-1,13
 413.361 903 413.361 903 531 903 c 0,14,15
 608.639 903 608.639 903 648.237 889.223 c 0,16,17
 686.431 875.933 686.431 875.933 723.692 857.556 c 0,18,19
 761.475 838.922 761.475 838.922 801.105 808.043 c 0,20,21
 855.407 765.733 855.407 765.733 890 715.703 c 1,22,-1
 890 881 l 2,23,24
 890 895 890 895 904 895 c 2,25,-1
 1138 895 l 2,26,27
 1152 895 1152 895 1152 881 c 2,28,-1
 1152 829 l 2,29,30
 1152 815 1152 815 1138 815 c 2,31,-1
 977 815 l 1,32,-1
 977 58 l 2,33,34
 977 -43.1893 977 -43.1893 954.83 -112.278 c 0,35,36
 932.252 -182.64 932.252 -182.64 877.703 -235.092 c 0,37,38
 772.761 -336 772.761 -336 492 -336 c 2,39,-1
 381 -336 l 2,40,41
 367 -336 367 -336 367 -322 c 2,42,-1
 367 -270 l 2,43,44
 367 -256 367 -256 381 -256 c 2,45,-1
 429.35 -256 l 1,46,-1
 522.601 -254.005 l 1,47,48
 592.52 -251.508 592.52 -251.508 640.553 -245.352 c 0,49,50
 725.464 -234.468 725.464 -234.468 751.053 -219.846 c 0,51,52
 778.352 -204.246 778.352 -204.246 796.695 -190.729 c 0,53,54
 814.531 -177.587 814.531 -177.587 830.566 -159.665 c 0,55,56
 866.252 -119.781 866.252 -119.781 877.897 -68.1251 c 0,57,58
 890 -14.4354 890 -14.4354 890 58 c 2,59,-1
 890 199.308 l 1,60,61
 872.494 172.649 872.494 172.649 848.273 146.488 c 0,62,63
 804.574 99.2917 804.574 99.2917 761.833 74.987 c 0,64,65
 760.49 73.84 760.49 73.84 759.833 73.3961 c 0,0,1
277.15 710.598 m 1,66,67
 173 608.997 173 608.997 173 459 c 0,68,69
 173 304.801 173 304.801 278.9 198.899 c 128,-1,70
 384.797 93 384.797 93 537 93 c 0,71,72
 688.967 93 688.967 93 789.328 199.119 c 0,73,74
 890 305.568 890 305.568 890 460 c 0,75,76
 890 614.102 890 614.102 786.217 715.485 c 128,-1,77
 682.3 817 682.3 817 537 817 c 128,-1,78
 391.58 817 391.58 817 282.626 713.834 c 0,79,80
 280.604 711.92 280.604 711.92 277.15 710.598 c 1,66,67
EndSplineSet
Validated: 524289
EndChar

StartChar: h
Encoding: 332 104 76
Width: 1228
Flags: W
LayerCount: 2
Fore
SplineSet
450.152 850.481 m 0,0,1
 586.35 927 586.35 927 714.375 927 c 0,2,3
 847.438 927 847.438 927 929.587 831.161 c 1,4,5
 1015 733.249 1015 733.249 1015 581 c 2,6,-1
 1015 65 l 1,7,-1
 1183 65 l 2,8,9
 1197 65 1197 65 1197 51 c 2,10,-1
 1197 0 l 2,11,12
 1197 -14 1197 -14 1183 -14 c 2,13,-1
 759 -14 l 2,14,15
 745 -14 745 -14 745 0 c 2,16,-1
 745 51 l 2,17,18
 745 65 745 65 759 65 c 2,19,-1
 929 65 l 1,20,-1
 929 572 l 2,21,22
 929 696.342 929 696.342 869.125 770.183 c 0,23,24
 810.892 842 810.892 842 710 842 c 0,25,26
 544.221 842 544.221 842 323 662.358 c 1,27,-1
 323 65 l 1,28,-1
 481 65 l 2,29,30
 495 65 495 65 495 51 c 2,31,-1
 495 0 l 2,32,33
 495 -14 495 -14 481 -14 c 2,34,-1
 70 -14 l 2,35,36
 56 -14 56 -14 56 0 c 2,37,-1
 56 51 l 2,38,39
 56 65 56 65 70 65 c 2,40,-1
 238 65 l 1,41,-1
 238 1238.98 l 1,42,43
 161.769 1233.43 161.769 1233.43 50.4207 1222.07 c 0,44,45
 44.4818 1221.47 44.4818 1221.47 40.0137 1225.56 c 128,-1,46
 35.5455 1229.66 35.5455 1229.66 35.0643 1234.66 c 2,47,-1
 30.0643 1286.66 l 2,48,49
 29.4922 1292.61 29.4922 1292.61 33.6123 1297.07 c 128,-1,50
 37.7324 1301.53 37.7324 1301.53 42.8372 1301.95 c 0,51,52
 208.891 1315.78 208.891 1315.78 307.988 1322.96 c 0,53,54
 314.003 1323.4 314.003 1323.4 318.502 1319.17 c 128,-1,55
 323 1314.95 323 1314.95 323 1309 c 2,56,-1
 323 763.122 l 1,57,58
 329.787 768.009 329.787 768.009 337.045 773.021 c 0,59,60
 357.981 787.476 357.981 787.476 378.415 801.93 c 0,61,62
 428.67 837.475 428.67 837.475 446.484 848.811 c 0,63,64
 447.882 849.701 447.882 849.701 450.152 850.481 c 0,0,1
EndSplineSet
Validated: 524289
EndChar

StartChar: i
Encoding: 333 105 77
Width: 1228
Flags: W
LayerCount: 2
Fore
SplineSet
1022 -14 m 2,0,-1
 209 -14 l 2,1,2
 195 -14 195 -14 195 0 c 2,3,-1
 195 51 l 2,4,5
 195 65 195 65 209 65 c 2,6,-1
 575 65 l 1,7,-1
 575 815 l 1,8,-1
 271 815 l 2,9,10
 257 815 257 815 257 829 c 2,11,-1
 257 881 l 2,12,13
 257 895 257 895 271 895 c 2,14,-1
 648 895 l 2,15,16
 662 895 662 895 662 881 c 2,17,-1
 662 65 l 1,18,-1
 1022 65 l 2,19,20
 1036 65 1036 65 1036 51 c 2,21,-1
 1036 0 l 2,22,23
 1036 -14 1036 -14 1022 -14 c 2,0,-1
648 1122 m 2,24,-1
 542 1122 l 2,25,26
 528 1122 528 1122 528 1136 c 2,27,-1
 528 1343 l 2,28,29
 528 1357 528 1357 542 1357 c 2,30,-1
 648 1357 l 2,31,32
 662 1357 662 1357 662 1343 c 2,33,-1
 662 1136 l 2,34,35
 662 1122 662 1122 648 1122 c 2,24,-1
EndSplineSet
Validated: 1
EndChar

StartChar: j
Encoding: 334 106 78
Width: 1228
Flags: W
LayerCount: 2
Fore
SplineSet
164.974 -210.32 m 0,0,1
 296.902 -239 296.902 -239 396.7 -239 c 0,2,3
 495.886 -239 495.886 -239 548.866 -222.624 c 0,4,5
 601.267 -206.427 601.267 -206.427 634.16 -179.644 c 128,-1,6
 666.856 -153.021 666.856 -153.021 684.012 -119.171 c 0,7,8
 701.673 -84.3271 701.673 -84.3271 709.293 -47.6517 c 0,9,10
 719 -0.932134 719 -0.932134 719 93 c 2,11,-1
 719 815 l 1,12,-1
 181 815 l 2,13,14
 167 815 167 815 167 829 c 2,15,-1
 167 881 l 2,16,17
 167 895 167 895 181 895 c 2,18,-1
 791 895 l 2,19,20
 805 895 805 895 805 881 c 2,21,-1
 805 78 l 2,22,23
 805 -148.198 805 -148.198 687.936 -244.777 c 0,24,25
 597.497 -320.14 597.497 -320.14 410.133 -324 c 1,26,27
 311.763 -323.829 311.763 -323.829 145.35 -291.747 c 0,28,29
 139.435 -290.607 139.435 -290.607 136.211 -285.364 c 128,-1,30
 132.987 -280.122 132.987 -280.122 134.448 -274.487 c 2,31,-1
 148.448 -220.487 l 2,32,33
 149.856 -215.055 149.856 -215.055 154.786 -212.116 c 128,-1,34
 159.715 -209.176 159.715 -209.176 164.974 -210.32 c 0,0,1
748 1121 m 2,35,-1
 642 1121 l 2,36,37
 628 1121 628 1121 628 1135 c 2,38,-1
 628 1342 l 2,39,40
 628 1356 628 1356 642 1356 c 2,41,-1
 748 1356 l 2,42,43
 762 1356 762 1356 762 1342 c 2,44,-1
 762 1135 l 2,45,46
 762 1121 762 1121 748 1121 c 2,35,-1
EndSplineSet
Validated: 524289
EndChar

StartChar: k
Encoding: 335 107 79
Width: 1228
Flags: W
LayerCount: 2
Fore
SplineSet
548.634 525.918 m 1,0,1
 867.656 226.626 867.656 226.626 994.823 65 c 1,2,-1
 1157 65 l 2,3,4
 1171 65 1171 65 1171 51 c 2,5,-1
 1171 0 l 2,6,7
 1171 -14 1171 -14 1157 -14 c 2,8,-1
 758 -14 l 2,9,10
 744 -14 744 -14 744 0 c 2,11,-1
 744 51 l 2,12,13
 744 65 744 65 758 65 c 2,14,-1
 894.939 65 l 1,15,16
 745.044 240.948 745.044 240.948 486.177 478.757 c 1,17,-1
 353 377.075 l 1,18,-1
 353 0 l 2,19,20
 353 -14 353 -14 339 -14 c 2,21,-1
 101 -14 l 2,22,23
 87 -14 87 -14 87 0 c 2,24,-1
 87 51 l 2,25,26
 87 65 87 65 101 65 c 2,27,-1
 267 65 l 1,28,-1
 267 1237.02 l 1,29,30
 192.122 1231.74 192.122 1231.74 75.3933 1220.07 c 0,31,32
 69.4554 1219.48 69.4554 1219.48 64.9992 1223.58 c 128,-1,33
 60.5429 1227.68 60.5429 1227.68 60.0643 1232.66 c 2,34,-1
 55.0643 1284.66 l 2,35,36
 54.4924 1290.61 54.4924 1290.61 58.6125 1295.06 c 128,-1,37
 62.7326 1299.52 62.7326 1299.52 67.8117 1299.95 c 2,38,-1
 337.812 1322.95 l 2,39,40
 344.105 1323.49 344.105 1323.49 348.553 1318.92 c 128,-1,41
 353 1314.35 353 1314.35 353 1309 c 2,42,-1
 353 468.236 l 1,43,-1
 808.962 815 l 1,44,-1
 673 815 l 2,45,46
 659 815 659 815 659 829 c 2,47,-1
 659 881 l 2,48,49
 659 895 659 895 673 895 c 2,50,-1
 1075 895 l 2,51,52
 1089 895 1089 895 1089 881 c 2,53,-1
 1089 829 l 2,54,55
 1089 815 1089 815 1075 815 c 2,56,-1
 926.739 815 l 1,57,-1
 548.634 525.918 l 1,0,1
EndSplineSet
Validated: 524289
EndChar

StartChar: l
Encoding: 336 108 80
Width: 1228
Flags: W
LayerCount: 2
Fore
SplineSet
221.102 1257.97 m 2,0,-1
 641.102 1284.97 l 2,1,2
 647.114 1285.36 647.114 1285.36 651.557 1281.1 c 128,-1,3
 656 1276.83 656 1276.83 656 1271 c 2,4,-1
 656 65 l 1,5,-1
 1019 65 l 2,6,7
 1033 65 1033 65 1033 51 c 2,8,-1
 1033 0 l 2,9,10
 1033 -14 1033 -14 1019 -14 c 2,11,-1
 208 -14 l 2,12,13
 194 -14 194 -14 194 0 c 2,14,-1
 194 51 l 2,15,16
 194 65 194 65 208 65 c 2,17,-1
 570 65 l 1,18,-1
 570 1206.85 l 1,19,-1
 230.101 1180.04 l 2,20,21
 224.539 1179.6 224.539 1179.6 220.191 1183.3 c 128,-1,22
 215.844 1187 215.844 1187 215.135 1192.06 c 2,23,-1
 208.135 1242.06 l 2,24,25
 207.299 1248.03 207.299 1248.03 211.214 1252.81 c 128,-1,26
 215.129 1257.59 215.129 1257.59 221.102 1257.97 c 2,0,-1
EndSplineSet
Validated: 524289
EndChar

StartChar: m
Encoding: 337 109 81
Width: 1228
Flags: W
LayerCount: 2
Fore
SplineSet
635.935 773.895 m 1,0,1
 755.718 906 755.718 906 876 906 c 0,2,3
 1044.82 906 1044.82 906 1095.11 771.916 c 0,4,5
 1114 721.531 1114 721.531 1114 564 c 2,6,-1
 1114 65 l 1,7,-1
 1224 65 l 2,8,9
 1238 65 1238 65 1238 51 c 2,10,-1
 1238 0 l 2,11,12
 1238 -14 1238 -14 1224 -14 c 2,13,-1
 1043 -14 l 2,14,15
 1029 -14 1029 -14 1029 0 c 2,16,-1
 1029 618 l 2,17,18
 1029 723.596 1029 723.596 1009.64 759.967 c 0,19,20
 972.522 829.707 972.522 829.707 878.754 833 c 1,21,22
 766.581 833 766.581 833 663 681.697 c 1,23,-1
 663 65 l 1,24,-1
 783 65 l 2,25,26
 797 65 797 65 797 51 c 2,27,-1
 797 0 l 2,28,29
 797 -14 797 -14 783 -14 c 2,30,-1
 591 -14 l 2,31,32
 577 -14 577 -14 577 0 c 2,33,-1
 577 572 l 2,34,35
 577 708.413 577 708.413 562.956 744.437 c 0,36,37
 549.223 779.665 549.223 779.665 530.369 795.888 c 0,38,39
 510.616 812.884 510.616 812.884 489.253 821.52 c 0,40,41
 460.858 833 460.858 833 426 833 c 0,42,43
 318.332 833 318.332 833 221 694.602 c 1,44,-1
 221 65 l 1,45,-1
 354 65 l 2,46,47
 368 65 368 65 368 51 c 2,48,-1
 368 0 l 2,49,50
 368 -14 368 -14 354 -14 c 2,51,-1
 2 -14 l 2,52,53
 -12 -14 -12 -14 -12 0 c 2,54,-1
 -12 51 l 2,55,56
 -12 65 -12 65 2 65 c 2,57,-1
 135 65 l 1,58,-1
 135 815 l 1,59,-1
 2 815 l 2,60,61
 -12 815 -12 815 -12 829 c 2,62,-1
 -12 881 l 2,63,64
 -12 895 -12 895 2 895 c 2,65,-1
 207 895 l 2,66,67
 221 895 221 895 221 881 c 2,68,-1
 221 810.142 l 1,69,70
 315.089 908.858 315.089 908.858 421.255 905 c 1,71,72
 580.609 905 580.609 905 635.935 773.895 c 1,0,1
EndSplineSet
Validated: 524321
EndChar

StartChar: n
Encoding: 338 110 82
Width: 1228
Flags: W
LayerCount: 2
Fore
SplineSet
1159 -14 m 2,0,-1
 742 -14 l 2,1,2
 728 -14 728 -14 728 0 c 2,3,-1
 728 51 l 2,4,5
 728 65 728 65 742 65 c 2,6,-1
 914 65 l 1,7,-1
 914 572 l 2,8,9
 914 696.914 914 696.914 851.84 769.925 c 0,10,11
 790.476 842 790.476 842 702.473 842 c 0,12,13
 611.352 842 611.352 842 521.842 796.519 c 0,14,15
 432.744 751.247 432.744 751.247 319 662.195 c 1,16,-1
 319 65 l 1,17,-1
 487 65 l 2,18,19
 501 65 501 65 501 51 c 2,20,-1
 501 0 l 2,21,22
 501 -14 501 -14 487 -14 c 2,23,-1
 71 -14 l 2,24,25
 57 -14 57 -14 57 0 c 2,26,-1
 57 51 l 2,27,28
 57 65 57 65 71 65 c 2,29,-1
 234 65 l 1,30,-1
 234 815 l 1,31,-1
 71 815 l 2,32,33
 57 815 57 815 57 829 c 2,34,-1
 57 881 l 2,35,36
 57 895 57 895 71 895 c 2,37,-1
 305 895 l 2,38,39
 319 895 319 895 319 881 c 2,40,-1
 319 762.017 l 1,41,42
 323.622 765.33 323.622 765.33 327.803 768.349 c 0,43,44
 345.935 781.446 345.935 781.446 363.583 793.546 c 128,-1,45
 381.07 805.538 381.07 805.538 395.552 815.525 c 0,46,47
 410.416 825.777 410.416 825.777 420.797 832.005 c 0,48,49
 527.442 895.989 527.442 895.989 570.65 908.471 c 0,50,51
 634.791 927 634.791 927 688 927 c 0,52,53
 830.307 927 830.307 927 914.986 831.276 c 0,54,55
 999 736.304 999 736.304 999 581 c 2,56,-1
 999 65 l 1,57,-1
 1159 65 l 2,58,59
 1173 65 1173 65 1173 51 c 2,60,-1
 1173 0 l 2,61,62
 1173 -14 1173 -14 1159 -14 c 2,0,-1
EndSplineSet
Validated: 524289
EndChar

StartChar: o
Encoding: 339 111 83
Width: 1228
Flags: W
LayerCount: 2
Fore
SplineSet
1141 446 m 0,0,1
 1141 293.86 1141 293.86 1058.31 171.663 c 0,2,3
 1057.71 169.879 1057.71 169.879 1056.77 168.416 c 0,4,5
 959.637 17.7083 959.637 17.7083 760.201 -29.1292 c 0,6,7
 692.622 -45 692.622 -45 591.5 -45 c 0,8,9
 489.299 -45 489.299 -45 388.289 -4.49412 c 0,10,11
 286.893 36.1667 286.893 36.1667 221.765 105.948 c 0,12,13
 89 248.197 89 248.197 89 446 c 0,14,15
 89 646.359 89 646.359 221.801 787.59 c 0,16,17
 363.232 938 363.232 938 615 938 c 0,18,19
 743.744 938 743.744 938 845.778 896.467 c 0,20,21
 1032.31 820.54 1032.31 820.54 1107.56 626.052 c 0,22,23
 1141 539.615 1141 539.615 1141 446 c 0,0,1
907.907 139.645 m 0,24,25
 1047 258.454 1047 258.454 1047 445 c 0,26,27
 1047 587.211 1047 587.211 964.314 697.082 c 0,28,29
 892.562 792.423 892.562 792.423 760.959 832.096 c 0,30,31
 694.933 852 694.933 852 604 852 c 0,32,33
 513.684 852 513.684 852 430.673 818.991 c 0,34,35
 348.128 786.167 348.128 786.167 294.777 728.493 c 0,36,37
 183 607.659 183 607.659 183 446 c 0,38,39
 183 279.711 183 279.711 293.57 165.226 c 0,40,41
 413.548 41 413.548 41 602.596 41 c 0,42,43
 792.421 41 792.421 41 907.907 139.645 c 0,24,25
EndSplineSet
Validated: 524321
EndChar

StartChar: p
Encoding: 340 112 84
Width: 1228
Flags: W
LayerCount: 2
Fore
SplineSet
992.619 100.163 m 0,0,1
 850.261 -29 850.261 -29 677 -29 c 2,2,-1
 658.5 -29 l 2,3,4
 501.062 -29 501.062 -29 349.295 103.452 c 0,5,6
 309.676 138.028 309.676 138.028 284 174.831 c 1,7,-1
 284 -256 l 1,8,-1
 592 -256 l 2,9,10
 606 -256 606 -256 606 -270 c 2,11,-1
 606 -322 l 2,12,13
 606 -336 606 -336 592 -336 c 2,14,-1
 35 -336 l 2,15,16
 21 -336 21 -336 21 -322 c 2,17,-1
 21 -270 l 2,18,19
 21 -256 21 -256 35 -256 c 2,20,-1
 199 -256 l 1,21,-1
 199 815 l 1,22,-1
 35 815 l 2,23,24
 21 815 21 815 21 829 c 2,25,-1
 21 881 l 2,26,27
 21 895 21 895 35 895 c 2,28,-1
 270 895 l 2,29,30
 284 895 284 895 284 881 c 2,31,-1
 284 723.311 l 1,32,33
 331.793 795.327 331.793 795.327 416.196 846.943 c 0,34,35
 538.927 922 538.927 922 675.432 922 c 128,-1,36
 812.019 922 812.019 922 921.915 853.375 c 128,-1,37
 1031.62 784.867 1031.62 784.867 1087.87 678.548 c 0,38,39
 1144 572.465 1144 572.465 1144 449 c 0,40,41
 1144 245.448 1144 245.448 996.736 102.94 c 0,42,43
 995.142 101.397 995.142 101.397 992.619 100.163 c 0,0,1
938.516 169.314 m 128,-1,45
 1050 282.732 1050 282.732 1050 452 c 0,46,47
 1050 594.532 1050 594.532 957.148 712.152 c 1,48,49
 911.209 766.701 911.209 766.701 838.406 801.896 c 128,-1,50
 765.791 837 765.791 837 675 837 c 0,51,52
 502.729 837 502.729 837 388.815 725.016 c 128,-1,53
 275 613.13 275 613.13 275 456 c 0,54,55
 275 270.262 275 270.262 408.09 156.648 c 0,56,57
 525.991 56 525.991 56 676.914 56 c 0,58,44
 827.134 56 827.134 56 938.516 169.314 c 128,-1,45
EndSplineSet
Validated: 524321
EndChar

StartChar: q
Encoding: 341 113 85
Width: 1228
Flags: W
LayerCount: 2
Fore
SplineSet
1193 -336 m 2,0,-1
 634 -336 l 2,1,2
 620 -336 620 -336 620 -322 c 2,3,-1
 620 -270 l 2,4,5
 620 -256 620 -256 634 -256 c 2,6,-1
 944 -256 l 1,7,-1
 944 190.691 l 1,8,9
 918.433 150.635 918.433 150.635 881.899 114.1 c 0,10,11
 760.52 -7.28174 760.52 -7.28174 615.185 -24.8983 c 0,12,13
 581.345 -29 581.345 -29 570.25 -29 c 2,14,-1
 551 -29 l 2,15,16
 437.403 -29 437.403 -29 329.751 30.2342 c 128,-1,17
 222.047 89.4971 222.047 89.4971 152.613 201.105 c 0,18,19
 83 312.999 83 312.999 83 442.5 c 0,20,21
 83 571.488 83 571.488 139.637 678.07 c 0,22,23
 196.396 784.881 196.396 784.881 306.531 853.841 c 0,24,25
 413.932 922 413.932 922 555 922 c 0,26,27
 683.41 922 683.41 922 812.998 839.823 c 0,28,29
 896.947 786.587 896.947 786.587 944 716.15 c 1,30,-1
 944 881 l 2,31,32
 944 895 944 895 958 895 c 2,33,-1
 1193 895 l 2,34,35
 1207 895 1207 895 1207 881 c 2,36,-1
 1207 829 l 2,37,38
 1207 815 1207 815 1193 815 c 2,39,-1
 1029 815 l 1,40,-1
 1029 -256 l 1,41,-1
 1193 -256 l 2,42,43
 1207 -256 1207 -256 1207 -270 c 2,44,-1
 1207 -322 l 2,45,46
 1207 -336 1207 -336 1193 -336 c 2,0,-1
288.983 169.815 m 1,47,48
 401.835 56 401.835 56 555 56 c 0,49,50
 669.487 56 669.487 56 769.589 120.88 c 1,51,52
 897.492 197.623 897.492 197.623 937.996 345.694 c 0,53,54
 952 396.874 952 396.874 952 456 c 0,55,56
 952 613.13 952 613.13 838.203 724.999 c 0,57,58
 723.303 837 723.303 837 553 837 c 0,59,60
 369.727 837 369.727 837 269.868 712.174 c 1,61,62
 177 599.544 177 599.544 177 441.787 c 0,63,64
 177 284.694 177 284.694 288.983 169.815 c 1,47,48
EndSplineSet
Validated: 524289
EndChar

StartChar: r
Encoding: 342 114 86
Width: 1228
Flags: W
LayerCount: 2
Fore
SplineSet
1170.45 810.838 m 2,0,-1
 1100.45 757.838 l 2,1,2
 1095.47 754.241 1095.47 754.241 1089.53 755.344 c 128,-1,3
 1083.59 756.447 1083.59 756.447 1080.4 761.162 c 0,4,5
 1056.86 795.997 1056.86 795.997 1024.51 818.507 c 0,6,7
 993.705 839.932 993.705 839.932 932.212 839.002 c 0,8,9
 869.228 838.048 869.228 838.048 804.957 807.83 c 0,10,11
 739.244 776.935 739.244 776.935 683.369 735.276 c 0,12,13
 594.988 669.376 594.988 669.376 503.08 563.331 c 0,14,15
 499.729 559.465 499.729 559.465 497 556.449 c 1,16,-1
 497 65 l 1,17,-1
 895 65 l 2,18,19
 909 65 909 65 909 51 c 2,20,-1
 909 0 l 2,21,22
 909 -14 909 -14 895 -14 c 2,23,-1
 157 -14 l 2,24,25
 143 -14 143 -14 143 0 c 2,26,-1
 143 51 l 2,27,28
 143 65 143 65 157 65 c 2,29,-1
 412 65 l 1,30,-1
 412 815 l 1,31,-1
 174 815 l 2,32,33
 160 815 160 815 160 829 c 2,34,-1
 160 881 l 2,35,36
 160 895 160 895 174 895 c 2,37,-1
 483 895 l 2,38,39
 497 895 497 895 497 881 c 2,40,-1
 497 662.405 l 1,41,42
 507.343 672.021 507.343 672.021 517.296 681.592 c 0,43,44
 530.308 694.103 530.308 694.103 541.823 705.117 c 128,-1,45
 553.206 716.005 553.206 716.005 560.101 722.899 c 0,46,47
 567.233 730.032 567.233 730.032 576.387 738.678 c 128,-1,48
 585.479 747.266 585.479 747.266 596.107 756.882 c 0,49,50
 781.922 925 781.922 925 957 925 c 0,51,52
 1067.4 925 1067.4 925 1134.54 868.187 c 0,53,54
 1154.79 851.06 1154.79 851.06 1172.43 831.335 c 0,55,56
 1176.56 826.079 1176.56 826.079 1175.62 820.059 c 128,-1,57
 1174.68 814.039 1174.68 814.039 1170.45 810.838 c 2,0,-1
EndSplineSet
Validated: 524321
EndChar

StartChar: s
Encoding: 343 115 87
Width: 1228
Flags: W
LayerCount: 2
Fore
SplineSet
996.802 904.651 m 0,0,1
 983 823.559 983 823.559 983 767.875 c 0,2,3
 983 711.578 983 711.578 988.957 636.102 c 0,4,5
 989.397 630.52 989.397 630.52 985.698 626.15 c 128,-1,6
 982 621.78 982 621.78 976.773 621.113 c 2,7,-1
 929.773 615.113 l 2,8,9
 918.967 613.733 918.967 613.733 914.974 623.869 c 0,10,11
 902.003 656.798 902.003 656.798 886.072 695.127 c 0,12,13
 871.254 730.78 871.254 730.78 836.527 762.691 c 0,14,15
 754.575 838 754.575 838 565 838 c 0,16,17
 432.408 838 432.408 838 358.019 786.024 c 0,18,19
 286 735.704 286 735.704 286 676.5 c 0,20,21
 286 614.478 286 614.478 309.403 581.623 c 0,22,23
 333.301 548.071 333.301 548.071 375.035 528.132 c 0,24,25
 455.76 489.565 455.76 489.565 616.839 480.975 c 0,26,27
 676.837 476.975 676.837 476.975 734.229 473.981 c 0,28,29
 792.85 470.923 792.85 470.923 833.445 462.187 c 128,-1,30
 874 453.459 874 453.459 909 440.077 c 0,31,32
 944.996 426.314 944.996 426.314 975.175 402.488 c 0,33,34
 1046 346.57 1046 346.57 1046 255.895 c 0,35,36
 1046 167.675 1046 167.675 1008.06 112.106 c 0,37,38
 970.837 57.5808 970.837 57.5808 911.719 22.0045 c 0,39,40
 797.051 -47 797.051 -47 634.081 -47 c 128,-1,41
 470.949 -47 470.949 -47 334.524 39.1632 c 0,42,43
 333.204 39.9968 333.204 39.9968 332.1 41.1005 c 0,44,45
 328.83 44.371 328.83 44.371 314.158 55.2566 c 0,46,47
 298.126 67.1517 298.126 67.1517 287.634 76.5939 c 0,48,49
 283.895 79.9596 283.895 79.9596 280.109 84.1528 c 1,50,51
 280 78.5465 280 78.5465 280 72 c 2,52,-1
 280 19.7024 l 1,53,-1
 277.987 -27.5952 l 2,54,55
 277.749 -33.1972 277.749 -33.1972 273.546 -37.0986 c 128,-1,56
 269.343 -41 269.343 -41 264 -41 c 2,57,-1
 207 -41 l 2,58,59
 200.652 -41 200.652 -41 196.477 -36.0518 c 128,-1,60
 192.301 -31.1035 192.301 -31.1035 193.131 -25.0871 c 0,61,62
 201 31.9589 201 31.9589 201 98.3333 c 0,63,64
 201 165.025 201 165.025 191.059 272.713 c 0,65,66
 190.546 278.276 190.546 278.276 194.185 282.681 c 128,-1,67
 197.823 287.086 197.823 287.086 202.938 287.847 c 2,68,-1
 249.938 294.847 l 2,69,70
 259.609 296.288 259.609 296.288 264.291 287.704 c 0,71,72
 282.696 253.96 282.696 253.96 300.509 209.174 c 0,73,74
 317.083 167.502 317.083 167.502 351.406 129.366 c 0,75,76
 432.736 39 432.736 39 621 39 c 0,77,78
 828.455 39 828.455 39 918.404 143.151 c 0,79,80
 953 183.208 953 183.208 953 250 c 0,81,82
 953 389 953 389 681.7 389 c 1,83,84
 471.61 398.003 471.61 398.003 383.956 429.264 c 0,85,86
 295.191 460.92 295.191 460.92 244.901 513.305 c 0,87,88
 193 567.366 193 567.366 193 645 c 0,89,90
 193 720.94 193 720.94 222.554 769.3 c 0,91,92
 251.694 816.983 251.694 816.983 302.319 850.205 c 0,93,94
 410.201 921 410.201 921 563 921 c 0,95,96
 778.613 921 778.613 921 890.318 819.449 c 0,97,98
 899.54 811.38 899.54 811.38 905.728 803.983 c 1,99,100
 906 811.844 906 811.844 906 821 c 2,101,-1
 906 870 l 2,102,103
 906 870.821 906 870.821 906.096 871.636 c 0,104,105
 908 887.824 908 887.824 908 895 c 2,106,-1
 908 918 l 2,107,108
 908 924.674 908 924.674 913.356 928.746 c 128,-1,109
 918.711 932.819 918.711 932.819 924.484 931.778 c 2,110,-1
 985.484 920.778 l 2,111,112
 991.189 919.749 991.189 919.749 994.439 914.807 c 128,-1,113
 997.689 909.865 997.689 909.865 996.802 904.651 c 0,0,1
EndSplineSet
Validated: 524289
EndChar

StartChar: t
Encoding: 344 116 88
Width: 1228
Flags: W
LayerCount: 2
Fore
SplineSet
676 41 m 0,0,1
 814.802 41 814.802 41 1074.8 144.999 c 0,2,3
 1080.18 147.151 1080.18 147.151 1085.56 144.685 c 128,-1,4
 1090.93 142.218 1090.93 142.218 1092.95 137.33 c 2,5,-1
 1113.95 86.3305 l 2,6,7
 1119.16 73.6642 1119.16 73.6642 1106.61 68.1738 c 0,8,9
 847.933 -45 847.933 -45 685.5 -45 c 0,10,11
 520.199 -45 520.199 -45 426.1 49.1005 c 0,12,13
 361.888 113.315 361.888 113.315 356.018 227.783 c 0,14,15
 355.021 247.235 355.021 247.235 354.026 263.127 c 0,16,17
 353 279.563 353 279.563 353 305 c 2,18,-1
 353 786 l 1,19,-1
 220 786 l 2,20,21
 206 786 206 786 206 800 c 2,22,-1
 206 850 l 2,23,24
 206 864 206 864 220 864 c 2,25,-1
 353 864 l 1,26,-1
 353 1153 l 2,27,28
 353 1167 353 1167 367 1167 c 2,29,-1
 425 1167 l 2,30,31
 439 1167 439 1167 439 1153 c 2,32,-1
 439 864 l 1,33,-1
 949 864 l 2,34,35
 963 864 963 864 963 850 c 2,36,-1
 963 800 l 2,37,38
 963 786 963 786 949 786 c 2,39,-1
 439 786 l 1,40,-1
 439 329 l 2,41,42
 439 204.112 439 204.112 453.306 171.737 c 0,43,44
 468.319 137.761 468.319 137.761 478.649 122.266 c 0,45,46
 496.452 95.5607 496.452 95.5607 516.234 82.9804 c 0,47,48
 559.21 55.6514 559.21 55.6514 589.878 50.4633 c 0,49,50
 645.824 41 645.824 41 676 41 c 0,0,1
EndSplineSet
Validated: 524321
EndChar

StartChar: u
Encoding: 345 117 89
Width: 1228
Flags: W
LayerCount: 2
Fore
SplineSet
1150 -14 m 2,0,-1
 916 -14 l 2,1,2
 902 -14 902 -14 902 0 c 2,3,-1
 902 119.677 l 1,4,5
 837.65 62.2409 837.65 62.2409 827.22 55.1442 c 0,6,7
 815.932 47.4636 815.932 47.4636 799.505 36.0144 c 0,8,9
 782.538 24.1884 782.538 24.1884 748.543 4.40053 c 0,10,11
 663.634 -45.023 663.634 -45.023 577.364 -44.4997 c 0,12,13
 493.008 -43.9881 493.008 -43.9881 447.174 -30.9671 c 0,14,15
 401.134 -17.8877 401.134 -17.8877 366.358 4.7699 c 0,16,17
 298.999 48.655 298.999 48.655 271.703 114.657 c 0,18,19
 228 220.321 228 220.321 228 332 c 2,20,-1
 228 815 l 1,21,-1
 66 815 l 2,22,23
 52 815 52 815 52 829 c 2,24,-1
 52 881 l 2,25,26
 52 895 52 895 66 895 c 2,27,-1
 301 895 l 2,28,29
 315 895 315 895 315 881 c 2,30,-1
 315 297.122 l 2,31,32
 315.96 242.434 315.96 242.434 332.285 194.418 c 0,33,34
 382.167 41 382.167 41 552 41 c 0,35,36
 723.796 41 723.796 41 902 237.38 c 1,37,-1
 902 815 l 1,38,-1
 730 815 l 2,39,40
 716 815 716 815 716 829 c 2,41,-1
 716 881 l 2,42,43
 716 895 716 895 730 895 c 2,44,-1
 974 895 l 2,45,46
 988 895 988 895 988 881 c 2,47,-1
 988 65 l 1,48,-1
 1150 65 l 2,49,50
 1164 65 1164 65 1164 51 c 2,51,-1
 1164 0 l 2,52,53
 1164 -14 1164 -14 1150 -14 c 2,0,-1
EndSplineSet
Validated: 524321
EndChar

StartChar: v
Encoding: 346 118 90
Width: 1228
Flags: W
LayerCount: 2
Fore
SplineSet
640 -14 m 2,0,-1
 592 -14 l 2,1,2
 583.153 -14 583.153 -14 579.355 -6.00959 c 2,3,-1
 189.153 815 l 1,4,-1
 43 815 l 2,5,6
 29 815 29 815 29 829 c 2,7,-1
 29 881 l 2,8,9
 29 895 29 895 43 895 c 2,10,-1
 454 895 l 2,11,12
 468 895 468 895 468 881 c 2,13,-1
 468 829 l 2,14,15
 468 815 468 815 454 815 c 2,16,-1
 288.927 815 l 1,17,-1
 622.045 96.8612 l 1,18,-1
 957.995 815 l 1,19,-1
 797 815 l 2,20,21
 783 815 783 815 783 829 c 2,22,-1
 783 881 l 2,23,24
 783 895 783 895 797 895 c 2,25,-1
 1186 895 l 2,26,27
 1200 895 1200 895 1200 881 c 2,28,-1
 1200 829 l 2,29,30
 1200 815 1200 815 1186 815 c 2,31,-1
 1040.87 815 l 1,32,-1
 652.656 -6.00959 l 2,33,34
 648.866 -14.0062 648.866 -14.0062 640 -14 c 2,0,-1
EndSplineSet
Validated: 524289
EndChar

StartChar: w
Encoding: 347 119 91
Width: 1228
Flags: W
LayerCount: 2
Fore
SplineSet
378.131 105.891 m 1,0,1
 416.224 211.089 416.224 211.089 598.832 716.74 c 0,2,3
 602.171 725.992 602.171 725.992 612 726 c 2,4,-1
 651 726 l 2,5,6
 660.841 726 660.841 726 664.173 716.74 c 2,7,-1
 882.883 108.898 l 1,8,-1
 1091.27 815 l 1,9,-1
 907 815 l 2,10,11
 893 815 893 815 893 829 c 2,12,-1
 893 881 l 2,13,14
 893 895 893 895 907 895 c 2,15,-1
 1225 895 l 2,16,17
 1239 895 1239 895 1239 881 c 2,18,-1
 1239 829 l 2,19,20
 1239 815 1239 815 1225 815 c 2,21,-1
 1168.49 815 l 1,22,-1
 928.435 -3.96786 l 2,23,24
 925.485 -14.0149 925.485 -14.0149 915 -14 c 2,25,-1
 848 -14 l 2,26,27
 838.238 -14 838.238 -14 834.863 -4.83988 c 2,28,-1
 624.148 567.1 l 1,29,-1
 418.172 -4.74437 l 2,30,31
 414.838 -14 414.838 -14 405 -14 c 2,32,-1
 336 -14 l 2,33,34
 325.539 -14 325.539 -14 322.574 -3.96786 c 2,35,-1
 80.5389 815 l 1,36,-1
 4 815 l 2,37,38
 -10 815 -10 815 -10 829 c 2,39,-1
 -10 881 l 2,40,41
 -10 895 -10 895 4 895 c 2,42,-1
 341 895 l 2,43,44
 355 895 355 895 355 881 c 2,45,-1
 355 829 l 2,46,47
 355 815 355 815 341 815 c 2,48,-1
 171.658 815 l 1,49,-1
 378.131 105.891 l 1,0,1
EndSplineSet
Validated: 524289
EndChar

StartChar: x
Encoding: 348 120 92
Width: 1228
Flags: W
LayerCount: 2
Fore
SplineSet
1176 -14 m 2,0,-1
 786 -14 l 2,1,2
 772 -14 772 -14 772 0 c 2,3,-1
 772 51 l 2,4,5
 772 65 772 65 786 65 c 2,6,-1
 950.391 65 l 1,7,-1
 609.987 408.135 l 1,8,-1
 268.672 65 l 1,9,-1
 429 65 l 2,10,11
 443 65 443 65 443 51 c 2,12,-1
 443 0 l 2,13,14
 443 -14 443 -14 429 -14 c 2,15,-1
 53 -14 l 2,16,17
 39 -14 39 -14 39 0 c 2,18,-1
 39 51 l 2,19,20
 39 65 39 65 53 65 c 2,21,-1
 160.161 65 l 1,22,-1
 553.209 461.911 l 1,23,-1
 197.234 815 l 1,24,-1
 84 815 l 2,25,26
 70 815 70 815 70 829 c 2,27,-1
 70 881 l 2,28,29
 70 895 70 895 84 895 c 2,30,-1
 451 895 l 2,31,32
 465 895 465 895 465 881 c 2,33,-1
 465 829 l 2,34,35
 465 815 465 815 451 815 c 2,36,-1
 311.799 815 l 1,37,-1
 609.987 516.784 l 1,38,-1
 909.129 815 l 1,39,-1
 777 815 l 2,40,41
 763 815 763 815 763 829 c 2,42,-1
 763 881 l 2,43,44
 763 895 763 895 777 895 c 2,45,-1
 1124 895 l 2,46,47
 1138 895 1138 895 1138 881 c 2,48,-1
 1138 829 l 2,49,50
 1138 815 1138 815 1124 815 c 2,51,-1
 1016.82 815 l 1,52,-1
 665.832 462.087 l 1,53,-1
 1067.75 65 l 1,54,-1
 1176 65 l 2,55,56
 1190 65 1190 65 1190 51 c 2,57,-1
 1190 0 l 2,58,59
 1190 -14 1190 -14 1176 -14 c 2,0,-1
EndSplineSet
Validated: 524289
EndChar

StartChar: y
Encoding: 349 121 93
Width: 1228
Flags: W
LayerCount: 2
Fore
SplineSet
688 -327 m 2,0,-1
 89 -327 l 2,1,2
 75 -327 75 -327 75 -313 c 2,3,-1
 75 -262 l 2,4,5
 75 -248 75 -248 89 -248 c 2,6,-1
 391.79 -248 l 1,7,-1
 563.094 58.2419 l 1,8,-1
 169.501 815 l 1,9,-1
 49 815 l 2,10,11
 35 815 35 815 35 829 c 2,12,-1
 35 881 l 2,13,14
 35 895 35 895 49 895 c 2,15,-1
 403 895 l 2,16,17
 417 895 417 895 417 881 c 2,18,-1
 417 829 l 2,19,20
 417 815 417 815 403 815 c 2,21,-1
 267.996 815 l 1,22,-1
 612.739 148.06 l 1,23,-1
 1001.63 815 l 1,24,-1
 860 815 l 2,25,26
 846 815 846 815 846 829 c 2,27,-1
 846 881 l 2,28,29
 846 895 846 895 860 895 c 2,30,-1
 1206 895 l 2,31,32
 1220 895 1220 895 1220 881 c 2,33,-1
 1220 829 l 2,34,35
 1220 815 1220 815 1206 815 c 2,36,-1
 1098.11 815 l 1,37,-1
 488.174 -248 l 1,38,-1
 688 -248 l 2,39,40
 702 -248 702 -248 702 -262 c 2,41,-1
 702 -313 l 2,42,43
 702 -327 702 -327 688 -327 c 2,0,-1
EndSplineSet
Validated: 524289
EndChar

StartChar: z
Encoding: 350 122 94
Width: 1228
Flags: W
LayerCount: 2
Fore
SplineSet
1016 -14 m 2,0,-1
 213 -14 l 2,1,2
 199 -14 199 -14 199 0 c 2,3,-1
 199 51 l 2,4,5
 199 56.5287 199 56.5287 202.777 60.5656 c 2,6,-1
 908.726 815 l 1,7,-1
 299 815 l 1,8,-1
 299 637 l 2,9,10
 299 623 299 623 285 623 c 2,11,-1
 233 623 l 2,12,13
 219 623 219 623 219 637 c 2,14,-1
 219 881 l 2,15,16
 219 895 219 895 233 895 c 2,17,-1
 1015 895 l 2,18,19
 1029 895 1029 895 1029 881 c 2,20,-1
 1029 829 l 2,21,22
 1029 823.483 1029 823.483 1025.24 819.448 c 2,23,-1
 321.213 65 l 1,24,-1
 952 65 l 1,25,-1
 952 251 l 2,26,27
 952 265 952 265 966 265 c 2,28,-1
 1016 265 l 2,29,30
 1030 265 1030 265 1030 251 c 2,31,-1
 1030 0 l 2,32,33
 1030 -14 1030 -14 1016 -14 c 2,0,-1
EndSplineSet
Validated: 524289
EndChar

StartChar: braceleft
Encoding: 351 123 95
Width: 1228
Flags: W
LayerCount: 2
Fore
SplineSet
965.991 1343 m 0,0,1
 965.994 1313.51 965.994 1313.51 967.964 1286 c 0,2,3
 968.394 1279.98 968.394 1279.98 964.164 1275.49 c 128,-1,4
 959.934 1271 959.934 1271 954 1271 c 0,5,6
 808.154 1271 808.154 1271 746.854 1200.15 c 1,7,8
 719 1163.65 719 1163.65 719 1120.94 c 0,9,10
 719 1058.56 719 1058.56 735.658 984.575 c 0,11,12
 771 827.613 771 827.613 771 783.029 c 0,13,14
 771 737.802 771 737.802 760.826 706.209 c 128,-1,15
 750.691 674.736 750.691 674.736 731.511 647.031 c 0,16,17
 699.118 600.241 699.118 600.241 651.973 577.827 c 1,18,19
 736.592 534.392 736.592 534.392 761.97 444.816 c 0,20,21
 771 412.943 771 412.943 771 370 c 0,22,23
 771 322.592 771 322.592 752.219 230.211 c 0,24,25
 719 66.8058 719 66.8058 719 35.6081 c 0,26,27
 719 -58.2681 719 -58.2681 783.652 -93.1813 c 0,28,29
 845.297 -126.47 845.297 -126.47 954.963 -134.033 c 0,30,31
 960.569 -134.42 960.569 -134.42 964.376 -138.728 c 128,-1,32
 968.169 -143.035 968.169 -143.035 967.964 -148.491 c 2,33,-1
 965.991 -205.491 l 2,34,35
 965.782 -211.458 965.782 -211.458 961.117 -215.328 c 128,-1,36
 956.451 -219.198 956.451 -219.198 951.417 -218.988 c 0,37,38
 744.594 -210.371 744.594 -210.371 668.673 -90.4907 c 0,39,40
 638 -42.0588 638 -42.0588 638 18 c 0,41,42
 638 87.0346 638 87.0346 655.304 168.68 c 0,43,44
 690 332.385 690 332.385 690 378 c 0,45,46
 690 445.955 690 445.955 646.864 484.334 c 128,-1,47
 603.728 522.713 603.728 522.713 512.419 533.09 c 0,48,49
 507.102 533.694 507.102 533.694 503.551 537.875 c 128,-1,50
 500 542.056 500 542.056 500 547 c 2,51,-1
 500 606 l 2,52,53
 500 611.387 500 611.387 503.765 615.417 c 128,-1,54
 507.53 619.447 507.53 619.447 512.673 619.937 c 0,55,56
 640.218 632.082 640.218 632.082 677.392 709.086 c 0,57,58
 690 735.203 690 735.203 690 771 c 0,59,60
 690 815.459 690 815.459 672.831 892.972 c 0,61,62
 638 1050.18 638 1050.18 638 1113.87 c 0,63,64
 638 1180.06 638 1180.06 668.673 1228.49 c 0,65,66
 698.963 1276.32 698.963 1276.32 746.336 1304.53 c 0,67,68
 825.617 1351.75 825.617 1351.75 951.417 1356.99 c 0,69,70
 957.417 1357.24 957.417 1357.24 961.709 1352.88 c 128,-1,71
 965.994 1348.52 965.994 1348.52 965.991 1343 c 0,0,1
EndSplineSet
Validated: 524289
EndChar

StartChar: bar
Encoding: 352 124 96
Width: 1228
Flags: W
LayerCount: 2
Fore
SplineSet
649 -394 m 2,0,-1
 584 -394 l 2,1,2
 570 -394 570 -394 570 -380 c 2,3,-1
 570 1378 l 2,4,5
 570 1392 570 1392 584 1392 c 2,6,-1
 649 1392 l 2,7,8
 663 1392 663 1392 663 1378 c 2,9,-1
 663 -380 l 2,10,11
 663 -394 663 -394 649 -394 c 2,0,-1
EndSplineSet
Validated: 1
EndChar

StartChar: braceright
Encoding: 353 125 97
Width: 1228
Flags: W
LayerCount: 2
Fore
SplineSet
738.581 533.09 m 0,0,1
 647.272 522.713 647.272 522.713 604.136 484.334 c 128,-1,2
 561 445.954 561 445.954 561 378 c 0,3,4
 561 341.334 561 341.334 569.75 295.633 c 0,5,6
 578.734 248.711 578.734 248.711 587.215 207.309 c 0,7,8
 613 81.438 613 81.438 613 21 c 0,9,10
 613 -42.0588 613 -42.0588 582.327 -90.4907 c 0,11,12
 552.039 -138.316 552.039 -138.316 504.663 -166.529 c 0,13,14
 425.372 -213.747 425.372 -213.747 299.583 -218.988 c 0,15,16
 293.617 -219.236 293.617 -219.236 289.401 -214.881 c 128,-1,17
 285.181 -210.526 285.181 -210.526 285 -205.491 c 2,18,-1
 283.009 -148.491 l 2,19,20
 282.812 -142.878 282.812 -142.878 286.701 -138.65 c 128,-1,21
 290.59 -134.422 290.59 -134.422 296.003 -134.036 c 0,22,23
 455.989 -122.609 455.989 -122.609 503.915 -63.446 c 1,24,25
 532 -25.0052 532 -25.0052 532 17.4706 c 0,26,27
 532 74.4927 532 74.4927 515.321 151.019 c 0,28,29
 480 313.079 480 313.079 480 362.794 c 0,30,31
 480 412.946 480 412.946 489.03 444.816 c 0,32,33
 498.148 476.996 498.148 476.996 517.419 505.366 c 0,34,35
 548.412 550.995 548.412 550.995 599.236 577.728 c 1,36,37
 551.882 600.241 551.882 600.241 519.489 647.031 c 0,38,39
 480 704.072 480 704.072 480 763.222 c 0,40,41
 480 819.419 480 819.419 489.284 864.806 c 0,42,43
 498.3 908.88 498.3 908.88 507.815 952.955 c 0,44,45
 532 1064.96 532 1064.96 532 1099.24 c 0,46,47
 532 1163.96 532 1163.96 510.577 1190.68 c 0,48,49
 487.717 1219.2 487.717 1219.2 464.976 1232.39 c 0,50,51
 441.34 1246.1 441.34 1246.1 413.85 1254.63 c 0,52,53
 361.097 1271 361.097 1271 297 1271 c 0,54,55
 290.97 1271 290.97 1271 286.791 1275.54 c 128,-1,56
 282.599 1280.08 282.599 1280.08 283.009 1286 c 0,57,58
 284.987 1313.49 284.987 1313.49 285 1343 c 0,59,60
 285 1349.01 285 1349.01 289.533 1353.11 c 128,-1,61
 294.066 1357.22 294.066 1357.22 299.583 1356.99 c 0,62,63
 506.408 1348.37 506.408 1348.37 582.327 1228.49 c 0,64,65
 613 1180.06 613 1180.06 613 1120 c 0,66,67
 613 1050.92 613 1050.92 594.672 967.711 c 0,68,69
 561 814.828 561 814.828 561 774.179 c 0,70,71
 561 735.203 561 735.203 573.608 709.086 c 128,-1,72
 586.196 683.011 586.196 683.011 609.14 665.016 c 0,73,74
 656.709 627.708 656.709 627.708 738.327 619.937 c 0,75,76
 743.69 619.426 743.69 619.426 747.345 615.296 c 128,-1,77
 751 611.166 751 611.166 751 606 c 2,78,-1
 751 547 l 2,79,80
 751 541.648 751 541.648 747.247 537.648 c 128,-1,81
 743.494 533.648 743.494 533.648 738.581 533.09 c 0,0,1
EndSplineSet
Validated: 524289
EndChar

StartChar: asciitilde
Encoding: 354 126 98
Width: 1228
Flags: W
LayerCount: 2
Fore
SplineSet
210.388 505.869 m 2,0,-1
 173.388 548.869 l 2,1,2
 166.999 556.294 166.999 556.294 171.785 564.84 c 0,3,4
 192.307 601.487 192.307 601.487 205.536 620.931 c 0,5,6
 224.462 648.748 224.462 648.748 262.571 691.34 c 0,7,8
 326.745 763 326.745 763 418 763 c 0,9,10
 467.418 762.994 467.418 762.994 532.491 737.526 c 0,11,12
 595.183 713 595.183 713 689.306 674.455 c 0,13,14
 780.755 637 780.755 637 814 637 c 0,15,16
 913.244 637 913.244 637 1001.13 777.427 c 0,17,18
 1008.56 789.295 1008.56 789.295 1020.43 781.867 c 0,19,20
 1022 780.885 1022 780.885 1023.26 779.526 c 2,21,-1
 1062.26 737.526 l 2,22,23
 1069.26 729.986 1069.26 729.986 1064.16 721.054 c 0,24,25
 1036.01 671.8 1036.01 671.8 1002.77 634.215 c 0,26,27
 974.321 602.061 974.321 602.061 960.376 590.763 c 0,28,29
 958.759 588.87 958.759 588.87 957.69 588.023 c 0,30,31
 891.978 536 891.978 536 817 536 c 0,32,33
 766.913 536 766.913 536 663.509 578.554 c 0,34,35
 475.058 656.106 475.058 656.106 455.372 659.001 c 0,36,37
 434.972 662 434.972 662 408.5 662 c 0,38,39
 384.105 662 384.105 662 364.42 652.813 c 0,40,41
 343.654 643.122 343.654 643.122 331.111 632.37 c 0,42,43
 317.709 620.882 317.709 620.882 304.747 606.96 c 0,44,45
 282.108 582.646 282.108 582.646 268.706 562.434 c 0,46,47
 254.577 541.126 254.577 541.126 247.469 530.971 c 0,48,49
 240.837 521.497 240.837 521.497 233.155 508.054 c 0,50,51
 226.209 495.898 226.209 495.898 214.054 502.845 c 0,52,53
 211.96 504.041 211.96 504.041 210.388 505.869 c 2,0,-1
EndSplineSet
Validated: 524289
EndChar

StartChar: exclamdown
Encoding: 356 161 100
Width: 1228
Flags: W
LayerCount: 2
Fore
SplineSet
553.018 -298.291 m 2,0,-1
 592.018 470.709 l 2,1,2
 592.301 476.297 592.301 476.297 596.532 480.148 c 128,-1,3
 600.763 484 600.763 484 606 484 c 2,4,-1
 658 484 l 2,5,6
 663.601 484 663.601 484 667.669 479.968 c 128,-1,7
 671.737 475.937 671.737 475.937 671.985 470.655 c 2,8,-1
 707.985 -298.345 l 2,9,10
 708.266 -304.348 708.266 -304.348 703.929 -308.674 c 128,-1,11
 699.593 -313 699.593 -313 694 -313 c 2,12,-1
 567 -313 l 2,13,14
 560.987 -313 560.987 -313 556.859 -308.465 c 128,-1,15
 552.732 -303.93 552.732 -303.93 553.018 -298.291 c 2,0,-1
729.711 729.04 m 0,16,17
 686.886 695 686.886 695 628.5 695 c 0,18,19
 569.325 695 569.325 695 531.752 731.452 c 128,-1,20
 494 768.076 494 768.076 494 817 c 128,-1,21
 494 865.986 494 865.986 531.83 902.124 c 0,22,23
 569.386 938 569.386 938 630.5 938 c 0,24,25
 691.372 938 691.372 938 730.365 902.906 c 0,26,27
 770 867.236 770 867.236 770 816.5 c 128,-1,28
 770 765.829 770 765.829 730.447 729.668 c 0,29,30
 730.089 729.341 730.089 729.341 729.711 729.04 c 0,16,17
EndSplineSet
Validated: 524289
EndChar

StartChar: cent
Encoding: 357 162 101
Width: 1228
Flags: W
LayerCount: 2
Fore
SplineSet
323 586 m 2,0,1
 323 464.86 323 464.86 398.917 368.765 c 1,2,3
 465.454 287.205 465.454 287.205 563.855 266.706 c 0,4,5
 581.56 263.018 581.56 263.018 606 257.53 c 1,6,-1
 606 912.195 l 1,7,8
 406.036 860.389 406.036 860.389 343.034 702.889 c 0,9,10
 335.065 682.17 335.065 682.17 329.047 647.561 c 128,-1,11
 323 612.794 323 612.794 323 607 c 2,12,-1
 323 586 l 2,0,1
1053.49 340.481 m 1,13,14
 1058.38 343.821 1058.38 343.821 1061.99 345.368 c 0,15,16
 1075.13 351 1075.13 351 1083 351 c 0,17,18
 1097 351 1097 351 1097 337 c 0,19,20
 1097 333.24 1097 333.24 1095.12 329.986 c 2,21,-1
 1073.12 291.986 l 2,22,23
 1066.1 279.87 1066.1 279.87 1053.99 286.884 c 0,24,25
 1050.71 288.776 1050.71 288.776 1048.83 292.056 c 0,26,27
 1045.79 297.378 1045.79 297.378 1043.41 301.777 c 1,28,29
 963.613 251.024 963.613 251.024 914.84 231.099 c 0,30,31
 839.547 200.338 839.547 200.338 689 172.339 c 1,32,-1
 689 -124 l 2,33,34
 689 -138 689 -138 675 -138 c 2,35,-1
 620 -138 l 2,36,37
 606 -138 606 -138 606 -124 c 2,38,-1
 606 171.777 l 1,39,40
 477.046 200.849 477.046 200.849 432.643 225.794 c 0,41,42
 358.786 267.287 358.786 267.287 310.154 337.144 c 0,43,44
 308.429 338.617 308.429 338.617 307.351 340.234 c 0,45,46
 233 451.765 233 451.765 233 594 c 0,47,48
 233 737.109 233 737.109 329.289 851.515 c 0,49,50
 422.436 962.188 422.436 962.188 606 995.778 c 1,51,-1
 606 1274 l 2,52,53
 606 1288 606 1288 620 1288 c 2,54,-1
 675 1288 l 2,55,56
 689 1288 689 1288 689 1274 c 2,57,-1
 689 995.778 l 1,58,59
 764.385 988.516 764.385 988.516 800.7 973.999 c 0,60,61
 870.975 945.888 870.975 945.888 887.603 932.828 c 0,62,63
 903.704 920.18 903.704 920.18 911.08 911.669 c 0,64,65
 925.526 895 925.526 895 936 895 c 0,66,67
 961.067 895 961.067 895 970.163 954.129 c 0,68,69
 970.496 956.298 970.496 956.298 971.478 958.261 c 2,70,-1
 972.478 960.261 l 2,71,72
 976.874 969.052 976.874 969.052 986.636 967.904 c 0,73,74
 1035.23 962.189 1035.23 962.189 1037.51 961.774 c 0,75,76
 1043.05 960.766 1043.05 960.766 1046.37 956.057 c 128,-1,77
 1049.7 951.347 1049.7 951.347 1048.83 945.83 c 0,78,79
 1034 851.247 1034 851.247 1034 807.688 c 0,80,81
 1034 763.288 1034 763.288 1037.98 687.736 c 0,82,83
 1038.28 682.141 1038.28 682.141 1034.46 677.863 c 128,-1,84
 1030.65 673.585 1030.65 673.585 1025.37 673.067 c 2,85,-1
 974.366 668.067 l 2,86,87
 968.424 667.484 968.424 667.484 963.969 671.596 c 128,-1,88
 959.514 675.708 959.514 675.708 959.057 680.732 c 0,89,90
 958.034 691.993 958.034 691.993 957.515 702.301 c 0,91,92
 955.446 743.747 955.446 743.747 933.066 789.508 c 0,93,94
 912.897 830.747 912.897 830.747 879.758 857.141 c 1,95,96
 876.081 858.023 876.081 858.023 873.863 859.608 c 0,97,98
 797.251 914.331 797.251 914.331 689 917.788 c 1,99,-1
 689 255.593 l 1,100,101
 799.513 274.786 799.513 274.786 842.539 291.092 c 0,102,103
 918.739 319.968 918.739 319.968 1014.76 377.983 c 0,104,105
 1020.23 380.98 1020.23 380.98 1025.9 379.264 c 128,-1,106
 1031.57 377.549 1031.57 377.549 1034.2 372.865 c 0,107,108
 1044.86 353.918 1044.86 353.918 1053.49 340.481 c 1,13,14
EndSplineSet
Validated: 524289
EndChar

StartChar: sterling
Encoding: 358 163 102
Width: 1228
Flags: W
LayerCount: 2
Fore
SplineSet
505.72 1126.92 m 0,0,1
 425 1049.05 425 1049.05 425 958.341 c 0,2,3
 425 866.854 425 866.854 486.777 697 c 1,4,-1
 996 697 l 2,5,6
 1010 697 1010 697 1010 683 c 2,7,-1
 1010 632 l 2,8,9
 1010 618 1010 618 996 618 c 2,10,-1
 512.248 618 l 1,11,12
 533 516.183 533 516.183 533 441 c 0,13,14
 533 359.152 533 359.152 518.021 303.369 c 0,15,16
 494.416 215.463 494.416 215.463 478.54 185.282 c 0,17,18
 449.495 130.065 449.495 130.065 415.081 78.7179 c 1,19,-1
 432.897 60.9018 l 1,20,21
 528.765 106 528.765 106 590.5 106 c 0,22,23
 654.644 106 654.644 106 747.612 69.5331 c 0,24,25
 835.651 35 835.651 35 881.5 35 c 0,26,27
 926.648 35 926.648 35 955.16 49.4822 c 0,28,29
 1003.18 73.8713 1003.18 73.8713 1049.37 110.025 c 0,30,31
 1060.12 118.434 1060.12 118.434 1068.8 107.909 c 2,32,-1
 1101.8 67.9094 l 2,33,34
 1109.9 58.0957 1109.9 58.0957 1100.9 49.1005 c 0,35,36
 1006.79 -45 1006.79 -45 885 -45 c 0,37,38
 820.427 -45 820.427 -45 761.521 -22.5847 c 0,39,40
 705.366 -1.21612 705.366 -1.21612 680.733 6.66606 c 0,41,42
 655.723 14.669 655.723 14.669 640.202 19.6761 c 0,43,44
 617.498 27 617.498 27 577 27 c 0,45,46
 480.622 27 480.622 27 346.791 -47.2424 c 0,47,48
 336.385 -53.0152 336.385 -53.0152 329.012 -43.675 c 2,49,-1
 284.012 13.325 l 2,50,51
 276.629 22.677 276.629 22.677 284.68 31.4602 c 0,52,53
 454 216.174 454 216.174 454 440 c 0,54,55
 454 528.944 454 528.944 425.828 618 c 1,56,-1
 215 618 l 2,57,58
 201 618 201 618 201 632 c 2,59,-1
 201 683 l 2,60,61
 201 697 201 697 215 697 c 2,62,-1
 402.826 697 l 1,63,64
 342 862.216 342 862.216 342 946 c 0,65,66
 342 1091.28 342 1091.28 452.684 1189.95 c 0,67,68
 562.673 1288 562.673 1288 699.5 1288 c 0,69,70
 833.679 1288 833.679 1288 961.199 1237 c 0,71,72
 978.699 1230 978.699 1230 992.5 1230 c 0,73,74
 1001.01 1230 1001.01 1230 1009.95 1245.12 c 0,75,76
 1014.01 1252 1014.01 1252 1022 1252 c 2,77,-1
 1071 1252 l 2,78,79
 1077.68 1252 1077.68 1252 1081.91 1246.62 c 128,-1,80
 1086.14 1241.24 1086.14 1241.24 1084.63 1234.79 c 0,81,82
 1064.07 1147.43 1064.07 1147.43 1052.92 1042.52 c 0,83,84
 1051.76 1031.58 1051.76 1031.58 1040.85 1030.12 c 0,85,86
 1025.28 1028.05 1025.28 1028.05 1014.7 1027.52 c 0,87,88
 1005.61 1027.06 1005.61 1027.06 995.504 1025.23 c 0,89,90
 989.877 1024.19 989.877 1024.19 985.063 1027.52 c 128,-1,91
 980.249 1030.86 980.249 1030.86 979.226 1036.5 c 2,92,-1
 979.024 1039.82 l 1,93,94
 981 1073.42 981 1073.42 981 1077.25 c 2,95,-1
 981 1082 l 2,96,97
 981 1125.52 981 1125.52 941.332 1155.26 c 1,98,99
 889.562 1184.62 889.562 1184.62 821.328 1194.65 c 0,100,101
 750.953 1205 750.953 1205 722 1205 c 0,102,103
 586.647 1205 586.647 1205 505.72 1126.92 c 0,0,1
EndSplineSet
Validated: 524289
EndChar

StartChar: currency
Encoding: 359 164 103
Width: 1228
Flags: W
LayerCount: 2
Fore
SplineSet
1053.63 1041.16 m 2,0,-1
 1091.63 1005.16 l 2,1,2
 1095.97 1000.68 1095.97 1000.68 1095.82 994.763 c 128,-1,3
 1095.67 988.851 1095.67 988.851 1091.87 985.072 c 2,4,-1
 927.321 821.473 l 1,5,6
 1008 706.354 1008 706.354 1008 586.5 c 128,-1,7
 1008 466.646 1008 466.646 927.362 351.585 c 1,8,-1
 1091.81 189.986 l 2,9,10
 1096.05 185.275 1096.05 185.275 1095.77 179.48 c 128,-1,11
 1095.47 173.684 1095.47 173.684 1091.87 170.101 c 0,12,13
 1057.88 136.098 1057.88 136.098 1051.87 131.165 c 0,14,15
 1042.09 123.164 1042.09 123.164 1033.13 132.072 c 2,16,-1
 868.856 295.395 l 1,17,18
 757.024 211 757.024 211 632.367 211 c 128,-1,19
 507.734 211 507.734 211 394.976 295.567 c 1,20,21
 378.9 280.101 378.9 280.101 362.4 263.6 c 2,22,-1
 284.4 185.601 l 2,23,24
 250.793 151.994 250.793 151.994 229.655 131.862 c 0,25,26
 219.761 122.425 219.761 122.425 210.101 132.072 c 2,27,-1
 172.101 170.101 l 2,28,29
 167.9 174.809 167.9 174.809 168.226 180.632 c 128,-1,30
 168.553 186.455 168.553 186.455 172.245 190.042 c 2,31,-1
 338.78 351.818 l 1,32,33
 258 471.737 258 471.737 258 570 c 0,34,35
 258 679.305 258 679.305 297.478 758.261 c 0,36,37
 297.868 759.04 297.868 759.04 298.351 759.766 c 0,38,39
 306.202 771.542 306.202 771.542 319.567 793.322 c 0,40,41
 328.958 808.625 328.958 808.625 337.662 821.338 c 1,42,43
 259.382 897.807 259.382 897.807 172.101 985.072 c 0,44,45
 162.201 994.986 162.201 994.986 172.101 1004.9 c 0,46,47
 192.407 1025.21 192.407 1025.21 210.699 1041.46 c 0,48,49
 220.509 1050.18 220.509 1050.18 229.842 1040.96 c 2,50,-1
 395.139 877.559 l 1,51,52
 507.662 962 507.662 962 629.367 962 c 0,53,54
 751.43 962 751.43 962 869.665 878.253 c 1,55,56
 944.57 951.369 944.57 951.369 1034.1 1040.9 c 0,57,58
 1043.74 1050.54 1043.74 1050.54 1053.63 1041.16 c 2,0,-1
845.831 794.378 m 0,59,60
 761.974 883 761.974 883 631 883 c 128,-1,61
 500.169 883 500.169 883 418.832 794.052 c 0,62,63
 337 704.564 337 704.564 337 586.5 c 128,-1,64
 337 468.412 337 468.412 418.359 378.917 c 0,65,66
 499.194 290 499.194 290 629.5 290 c 128,-1,67
 759.912 290 759.912 290 844.758 381.045 c 0,68,69
 930 472.514 930 472.514 930 590.5 c 0,70,71
 930 705.47 930 705.47 849.426 791.609 c 0,72,73
 847.104 793.032 847.104 793.032 845.831 794.378 c 0,59,60
EndSplineSet
Validated: 524289
EndChar

StartChar: yen
Encoding: 360 165 104
Width: 1228
Flags: W
LayerCount: 2
Fore
SplineSet
923 -14 m 2,0,-1
 355 -14 l 2,1,2
 341 -14 341 -14 341 0 c 2,3,-1
 341 51 l 2,4,5
 341 65 341 65 355 65 c 2,6,-1
 598 65 l 1,7,-1
 598 287 l 1,8,-1
 293 287 l 2,9,10
 279 287 279 287 279 301 c 2,11,-1
 279 352 l 2,12,13
 279 366 279 366 293 366 c 2,14,-1
 598 366 l 1,15,-1
 598 515 l 1,16,-1
 293 515 l 2,17,18
 279 515 279 515 279 529 c 2,19,-1
 279 580 l 2,20,21
 279 594 279 594 293 594 c 2,22,-1
 598 594 l 1,23,-1
 598 638.226 l 1,24,-1
 189.12 1168 l 1,25,-1
 77 1168 l 2,26,27
 63 1168 63 1168 63 1182 c 2,28,-1
 63 1233 l 2,29,30
 63 1247 63 1247 77 1247 c 2,31,-1
 453 1247 l 2,32,33
 467 1247 467 1247 467 1233 c 2,34,-1
 467 1182 l 2,35,36
 467 1168 467 1168 453 1168 c 2,37,-1
 290.471 1168 l 1,38,-1
 638.881 716.084 l 1,39,-1
 979.897 1168 l 1,40,-1
 818 1168 l 2,41,42
 804 1168 804 1168 804 1182 c 2,43,-1
 804 1233 l 2,44,45
 804 1247 804 1247 818 1247 c 2,46,-1
 1187 1247 l 2,47,48
 1201 1247 1201 1247 1201 1233 c 2,49,-1
 1201 1182 l 2,50,51
 1201 1168 1201 1168 1187 1168 c 2,52,-1
 1077.02 1168 l 1,53,-1
 680 636.349 l 1,54,-1
 680 594 l 1,55,-1
 978 594 l 2,56,57
 992 594 992 594 992 580 c 2,58,-1
 992 529 l 2,59,60
 992 515 992 515 978 515 c 2,61,-1
 680 515 l 1,62,-1
 680 366 l 1,63,-1
 978 366 l 2,64,65
 992 366 992 366 992 352 c 2,66,-1
 992 301 l 2,67,68
 992 287 992 287 978 287 c 2,69,-1
 680 287 l 1,70,-1
 680 65 l 1,71,-1
 923 65 l 2,72,73
 937 65 937 65 937 51 c 2,74,-1
 937 0 l 2,75,76
 937 -14 937 -14 923 -14 c 2,0,-1
EndSplineSet
Validated: 524289
EndChar

StartChar: brokenbar
Encoding: 361 166 105
Width: 1228
Flags: W
LayerCount: 2
Fore
SplineSet
666 635 m 2,0,-1
 601 635 l 2,1,2
 587 635 587 635 587 649 c 2,3,-1
 587 1407 l 2,4,5
 587 1421 587 1421 601 1421 c 2,6,-1
 666 1421 l 2,7,8
 680 1421 680 1421 680 1407 c 2,9,-1
 680 649 l 2,10,11
 680 635 680 635 666 635 c 2,0,-1
666 -415 m 2,12,-1
 601 -415 l 2,13,14
 587 -415 587 -415 587 -401 c 2,15,-1
 587 356 l 2,16,17
 587 370 587 370 601 370 c 2,18,-1
 666 370 l 2,19,20
 680 370 680 370 680 356 c 2,21,-1
 680 -401 l 2,22,23
 680 -415 680 -415 666 -415 c 2,12,-1
EndSplineSet
Validated: 1
EndChar

StartChar: section
Encoding: 362 167 106
Width: 1228
Flags: W
LayerCount: 2
Fore
SplineSet
621 -132 m 2,0,1
 688.878 -132 688.878 -132 747.41 -94.2358 c 0,2,3
 803 -58.3702 803 -58.3702 803 12 c 0,4,5
 803 67.9084 803 67.9084 757.233 112.469 c 0,6,7
 738.826 130.391 738.826 130.391 709.482 152.89 c 0,8,9
 708.167 153.898 708.167 153.898 706.548 155.895 c 0,10,11
 636.638 209.318 636.638 209.318 565.431 264.429 c 0,12,13
 492.46 320.905 492.46 320.905 454.6 349.3 c 128,-1,14
 416.918 377.562 416.918 377.562 412.734 380.351 c 0,15,16
 407.556 383.804 407.556 383.804 396.933 392.833 c 0,17,18
 387.115 401.178 387.115 401.178 375.31 410.523 c 0,19,20
 363.088 420.199 363.088 420.199 351.849 429.904 c 0,21,22
 290.592 482.808 290.592 482.808 276.086 523.274 c 0,23,24
 262 562.568 262 562.568 262 615 c 0,25,26
 262 669.804 262 669.804 310.449 732.095 c 0,27,28
 353.702 787.706 353.702 787.706 449.434 811.52 c 1,29,30
 386 885.685 386 885.685 386 952.5 c 0,31,32
 386 1074.34 386 1074.34 480.001 1141.49 c 1,33,34
 541.17 1183 541.17 1183 677 1183 c 2,35,-1
 973 1183 l 2,36,37
 987 1183 987 1183 987 1169 c 2,38,-1
 987 932 l 2,39,40
 987 918 987 918 973 918 c 2,41,-1
 921 918 l 2,42,43
 907 918 907 918 907 932 c 2,44,-1
 907 1104 l 1,45,-1
 647 1104 l 2,46,47
 558 1104 558 1104 516.5 1070.5 c 128,-1,48
 475 1037 475 1037 475 967 c 0,49,50
 475 890.921 475 890.921 558.5 827.125 c 0,51,52
 559.816 826.119 559.816 826.119 561.424 824.141 c 0,53,54
 634.788 768.362 634.788 768.362 707.054 712.583 c 0,55,56
 781.559 655.076 781.559 655.076 821.576 624.066 c 128,-1,57
 861.757 592.926 861.757 592.926 867.963 587.755 c 0,58,59
 873.761 582.923 873.761 582.923 884.56 574.578 c 0,60,61
 895.658 566.002 895.658 566.002 908.246 555.932 c 2,62,-1
 930.854 537.846 l 1,63,64
 1003.92 476.958 1003.92 476.958 1018.23 433.248 c 0,65,66
 1032 391.239 1032 391.239 1032 359 c 128,-1,67
 1032 326.84 1032 326.84 1022.35 296.284 c 0,68,69
 1012.54 265.232 1012.54 265.232 988.853 236.157 c 0,70,71
 940.113 176.337 940.113 176.337 846.845 151.806 c 1,72,73
 893 71.7851 893 71.7851 893 14 c 0,74,75
 893 -91.8487 893 -91.8487 815.595 -152.051 c 0,76,77
 739.802 -211 739.802 -211 608 -211 c 2,78,-1
 291 -211 l 2,79,80
 277 -211 277 -211 277 -197 c 2,81,-1
 277 65 l 2,82,83
 277 79 277 79 291 79 c 2,84,-1
 343 79 l 2,85,86
 357 79 357 79 357 65 c 2,87,-1
 357 -132 l 1,88,-1
 621 -132 l 2,0,1
761.444 221.264 m 1,89,90
 861.235 227.469 861.235 227.469 907.99 275.288 c 0,91,92
 942 310.071 942 310.071 942 352.682 c 0,93,94
 942 396.054 942 396.054 922.105 420.708 c 0,95,96
 882.458 469.837 882.458 469.837 803.388 531.962 c 2,97,-1
 522.981 749.4 l 1,98,99
 399.753 733.381 399.753 733.381 362.777 653.274 c 0,100,101
 351 626.188 351 626.188 351 605.05 c 0,102,103
 351 551.484 351 551.484 408.052 498.235 c 0,104,105
 430.07 477.685 430.07 477.685 464.57 451.071 c 2,106,-1
 761.444 221.264 l 1,89,90
EndSplineSet
Validated: 524289
EndChar

StartChar: dieresis
Encoding: 363 168 107
Width: 1228
Flags: W
LayerCount: 2
Fore
SplineSet
544 1098 m 2,0,-1
 439 1098 l 2,1,2
 425 1098 425 1098 425 1112 c 2,3,-1
 425 1295 l 2,4,5
 425 1309 425 1309 439 1309 c 2,6,-1
 544 1309 l 2,7,8
 558 1309 558 1309 558 1295 c 2,9,-1
 558 1112 l 2,10,11
 558 1098 558 1098 544 1098 c 2,0,-1
825 1098 m 2,12,-1
 721 1098 l 2,13,14
 707 1098 707 1098 707 1112 c 2,15,-1
 707 1295 l 2,16,17
 707 1309 707 1309 721 1309 c 2,18,-1
 825 1309 l 2,19,20
 839 1309 839 1309 839 1295 c 2,21,-1
 839 1112 l 2,22,23
 839 1098 839 1098 825 1098 c 2,12,-1
EndSplineSet
Validated: 1
EndChar

StartChar: copyright
Encoding: 364 169 108
Width: 1228
Flags: W
LayerCount: 2
Fore
SplineSet
615 -24 m 0,0,1
 355.984 -24 355.984 -24 178.968 156.234 c 0,2,3
 122.784 214.462 122.784 214.462 81.4488 284.375 c 0,4,5
 -2 425.518 -2 425.518 -2 595 c 0,6,7
 -2 763.045 -2 763.045 80.9802 906.18 c 1,8,9
 171.063 1052.57 171.063 1052.57 309.063 1132.22 c 128,-1,10
 447.24 1212 447.24 1212 615 1212 c 128,-1,11
 782.796 1212 782.796 1212 924.054 1129.59 c 128,-1,12
 1065.26 1047.22 1065.26 1047.22 1148.6 904.043 c 128,-1,13
 1232 760.768 1232 760.768 1232 595 c 128,-1,14
 1232 429.25 1232 429.25 1148.11 284.48 c 128,-1,15
 1064.28 139.796 1064.28 139.796 924.579 57.9216 c 128,-1,16
 784.802 -24 784.802 -24 615 -24 c 0,0,1
892.964 110.098 m 1,17,18
 1017.12 180.774 1017.12 180.774 1096.96 313.146 c 1,19,20
 1172 441.52 1172 441.52 1172 593 c 0,21,22
 1172 822.12 1172 822.12 1009.01 988.193 c 0,23,24
 848.242 1152 848.242 1152 615 1152 c 0,25,26
 500.875 1152 500.875 1152 398.515 1108.13 c 128,-1,27
 295.978 1064.19 295.978 1064.19 220.867 989.568 c 128,-1,28
 145.825 915.017 145.825 915.017 101.896 811.051 c 128,-1,29
 58 707.163 58 707.163 58 573.5 c 0,30,31
 58 440.798 58 440.798 133.081 312.574 c 128,-1,32
 208.222 184.248 208.222 184.248 335.546 110.098 c 128,-1,33
 462.78 36 462.78 36 615.5 36 c 128,-1,34
 768.155 35.9969 768.155 35.9969 892.964 110.098 c 1,17,18
858 932 m 0,35,36
 858 925.276 858 925.276 856.424 910.172 c 0,37,38
 855 896.518 855 896.518 855 841.5 c 128,-1,39
 855 786.638 855 786.638 863.885 717.792 c 0,40,41
 864.606 712.206 864.606 712.206 861.128 707.609 c 128,-1,42
 857.649 703.012 857.649 703.012 852.129 702.163 c 2,43,-1
 826.129 698.163 l 2,44,45
 820.633 697.317 820.633 697.317 816.046 700.68 c 128,-1,46
 811.458 704.042 811.458 704.042 810.352 708.88 c 0,47,48
 789.032 802.15 789.032 802.15 739.006 847.075 c 128,-1,49
 688.981 892 688.981 892 608 892 c 0,50,51
 529.932 892 529.932 892 472.479 855.973 c 0,52,53
 438.824 834.869 438.824 834.869 411.895 801.207 c 0,54,55
 341 714.109 341 714.109 341 586 c 0,56,57
 341 497.58 341 497.58 367.39 435.332 c 0,58,59
 394.015 372.528 394.015 372.528 424.036 338.219 c 0,60,61
 492.479 260 492.479 260 620.019 260 c 0,62,63
 748.701 260 748.701 260 886.837 379.585 c 0,64,65
 896.687 388.112 896.687 388.112 905.899 378.9 c 2,66,-1
 928.899 355.9 l 2,67,68
 933.133 351.381 933.133 351.381 932.839 345.407 c 128,-1,69
 932.544 339.433 932.544 339.433 928.473 335.691 c 0,70,71
 854.317 267.547 854.317 267.547 779.567 235.154 c 0,72,73
 778.156 234.543 778.156 234.543 776.529 234.23 c 0,74,75
 695.561 198 695.561 198 634.4 198 c 128,-1,76
 573.299 198 573.299 198 537.151 206.906 c 0,77,78
 501.314 215.736 501.314 215.736 469.068 230.819 c 0,79,80
 404.655 260.946 404.655 260.946 361.245 313.037 c 0,81,82
 361.029 313.296 361.029 313.296 360.825 313.566 c 0,83,84
 274 428.608 274 428.608 274 585 c 0,85,86
 274 742.329 274 742.329 373.385 846.18 c 0,87,88
 405.549 879.788 405.549 879.788 442.383 902.986 c 0,89,90
 516.673 949.772 516.673 949.772 609.364 953.986 c 0,91,92
 609.841 953.986 609.841 953.986 610.318 953.986 c 0,93,94
 710.002 951.727 710.002 951.727 766.145 901.603 c 0,95,96
 783.119 887.458 783.119 887.458 797 870.699 c 1,97,-1
 797 897 l 2,98,99
 797 897.698 797 897.698 797.069 898.393 c 0,100,101
 798 907.7 798 907.7 798 915 c 0,102,103
 798 923.773 798 923.773 799.086 933.546 c 0,104,105
 799.677 938.87 799.677 938.87 803.851 942.435 c 128,-1,106
 808.026 946 808.026 946 813 946 c 2,107,-1
 844 946 l 2,108,109
 858 946 858 946 858 932 c 0,35,36
EndSplineSet
Validated: 524321
EndChar

StartChar: ordfeminine
Encoding: 365 170 109
Width: 1228
Flags: W
LayerCount: 2
Fore
SplineSet
424.084 1176.11 m 0,0,1
 541.146 1220 541.146 1220 617 1220 c 0,2,3
 644.187 1220 644.187 1220 667.362 1216.39 c 0,4,5
 733.243 1206.12 733.243 1206.12 767.621 1165.65 c 128,-1,6
 802 1125.18 802 1125.18 802 1058 c 2,7,-1
 802 790 l 1,8,-1
 881 790 l 2,9,10
 895 790 895 790 895 776 c 2,11,-1
 895 750 l 2,12,13
 895 736 895 736 881 736 c 2,14,-1
 758 736 l 2,15,16
 744 736 744 736 744 750 c 2,17,-1
 744 808.694 l 1,18,19
 624.54 720 624.54 720 550.293 720 c 0,20,21
 468.714 720 468.714 720 418.749 763.992 c 0,22,23
 368 808.674 368 808.674 368 876 c 0,24,25
 368 944.058 368 944.058 431.179 990.758 c 0,26,27
 492.384 1036 492.384 1036 598 1036 c 0,28,29
 645.15 1036 645.15 1036 744 1023 c 1,30,-1
 744 1051 l 2,31,32
 744 1112.67 744 1112.67 715.248 1137.99 c 0,33,34
 694.728 1156.06 694.728 1156.06 657.286 1161.59 c 0,35,36
 640.95 1164 640.95 1164 621.5 1164 c 0,37,38
 554.556 1164 554.556 1164 444.916 1122.89 c 0,39,40
 432.17 1118.11 432.17 1118.11 427.035 1130.72 c 2,41,-1
 416.035 1157.72 l 2,42,43
 413.774 1163.27 413.774 1163.27 416.432 1168.75 c 128,-1,44
 419.089 1174.24 419.089 1174.24 424.084 1176.11 c 0,0,1
744 968.041 m 1,45,46
 665.546 980 665.546 980 595.625 980 c 0,47,48
 523.036 980 523.036 980 473.95 949.147 c 0,49,50
 428 920.265 428 920.265 428 871 c 0,51,52
 428 833.847 428 833.847 450.763 813.763 c 0,53,54
 494.694 775 494.694 775 541 775 c 0,55,56
 640.852 775 640.852 775 744 886.443 c 1,57,-1
 744 968.041 l 1,45,46
871 562 m 2,58,-1
 394 562 l 2,59,60
 380 562 380 562 380 576 c 2,61,-1
 380 603 l 2,62,63
 380 617 380 617 394 617 c 2,64,-1
 871 617 l 2,65,66
 885 617 885 617 885 603 c 2,67,-1
 885 576 l 2,68,69
 885 562 885 562 871 562 c 2,58,-1
EndSplineSet
Validated: 524289
EndChar

StartChar: guillemotleft
Encoding: 366 171 110
Width: 1228
Flags: W
LayerCount: 2
Fore
SplineSet
293.429 465.968 m 1,0,-1
 696.174 116.575 l 2,1,2
 706.271 107.816 706.271 107.816 697.988 97.325 c 2,3,-1
 667.988 59.325 l 2,4,5
 664.265 54.6088 664.265 54.6088 658.034 54.1791 c 128,-1,6
 651.79 53.7495 651.79 53.7495 647.807 57.4203 c 0,7,8
 568.994 125.736 568.994 125.736 463.482 215.522 c 128,-1,9
 357.897 305.365 357.897 305.365 300.82 354.93 c 128,-1,10
 243.879 404.379 243.879 404.379 183.933 455.333 c 0,11,12
 179.092 459.444 179.092 459.444 179.09 465.968 c 128,-1,13
 179.089 472.5 179.089 472.5 183.807 476.559 c 2,14,-1
 647.807 880.559 l 2,15,16
 652.839 884.413 652.839 884.413 658.589 883.681 c 128,-1,17
 664.34 882.949 664.34 882.949 667.63 879.111 c 0,18,19
 673.281 872.518 673.281 872.518 705.899 839.899 c 0,20,21
 710.165 835.614 710.165 835.614 709.918 829.45 c 128,-1,22
 709.672 823.286 709.672 823.286 705.119 819.378 c 2,23,-1
 293.429 465.968 l 1,0,-1
671.427 465.968 m 1,24,-1
 1076.16 115.585 l 2,25,26
 1086.44 106.686 1086.44 106.686 1077.85 96.1502 c 2,27,-1
 1046.85 58.1502 l 2,28,29
 1043.06 53.5118 1043.06 53.5118 1036.77 53.2174 c 128,-1,30
 1030.48 52.923 1030.48 52.923 1026.92 56.3458 c 0,31,32
 963.607 110.313 963.607 110.313 907.908 157.851 c 0,33,34
 850.876 206.531 850.876 206.531 792.417 256.344 c 0,35,36
 734.894 305.368 734.894 305.368 677.366 354.89 c 0,37,38
 619.546 404.663 619.546 404.663 559.933 455.333 c 0,39,40
 555.09 459.447 555.09 459.447 555.083 465.968 c 128,-1,41
 555.076 472.479 555.076 472.479 559.839 476.559 c 2,42,-1
 1027.84 881.586 l 2,43,44
 1038.35 890.682 1038.35 890.682 1047.52 880.237 c 2,45,-1
 1083.52 839.237 l 2,46,47
 1087.4 834.236 1087.4 834.236 1086.69 828.471 c 128,-1,48
 1085.99 822.7 1085.99 822.7 1082.13 819.378 c 2,49,-1
 671.427 465.968 l 1,24,-1
EndSplineSet
Validated: 524289
EndChar

StartChar: logicalnot
Encoding: 367 172 111
Width: 1228
Flags: W
LayerCount: 2
Fore
SplineSet
1081 352 m 2,0,-1
 1024 352 l 2,1,2
 1010 352 1010 352 1010 366 c 2,3,-1
 1010 827 l 1,4,-1
 202 827 l 2,5,6
 188 827 188 827 188 841 c 2,7,-1
 188 898 l 2,8,9
 188 912 188 912 202 912 c 2,10,-1
 1081 912 l 2,11,12
 1095 912 1095 912 1095 898 c 2,13,-1
 1095 366 l 2,14,15
 1095 352 1095 352 1081 352 c 2,0,-1
EndSplineSet
Validated: 1
EndChar

StartChar: registered
Encoding: 368 174 112
Width: 1228
Flags: W
LayerCount: 2
Fore
SplineSet
615 -24 m 0,0,1
 355.984 -24 355.984 -24 178.968 156.234 c 0,2,3
 122.784 214.462 122.784 214.462 81.4488 284.375 c 0,4,5
 -2 425.518 -2 425.518 -2 595 c 0,6,7
 -2 763.045 -2 763.045 80.9802 906.18 c 1,8,9
 171.063 1052.57 171.063 1052.57 309.063 1132.22 c 128,-1,10
 447.24 1212 447.24 1212 615 1212 c 128,-1,11
 782.796 1212 782.796 1212 924.054 1129.59 c 128,-1,12
 1065.26 1047.22 1065.26 1047.22 1148.6 904.043 c 128,-1,13
 1232 760.768 1232 760.768 1232 595 c 128,-1,14
 1232 429.25 1232 429.25 1148.11 284.48 c 128,-1,15
 1064.28 139.796 1064.28 139.796 924.579 57.9216 c 128,-1,16
 784.802 -24 784.802 -24 615 -24 c 0,0,1
892.964 110.098 m 1,17,18
 1017.12 180.774 1017.12 180.774 1096.96 313.146 c 1,19,20
 1172 441.52 1172 441.52 1172 593 c 0,21,22
 1172 822.12 1172 822.12 1009.01 988.193 c 0,23,24
 848.242 1152 848.242 1152 615 1152 c 0,25,26
 500.875 1152 500.875 1152 398.515 1108.13 c 128,-1,27
 295.978 1064.19 295.978 1064.19 220.867 989.568 c 128,-1,28
 145.825 915.017 145.825 915.017 101.896 811.051 c 128,-1,29
 58 707.163 58 707.163 58 573.5 c 0,30,31
 58 440.798 58 440.798 133.081 312.574 c 128,-1,32
 208.222 184.248 208.222 184.248 335.546 110.098 c 128,-1,33
 462.78 36 462.78 36 615.5 36 c 128,-1,34
 768.155 35.9969 768.155 35.9969 892.964 110.098 c 1,17,18
943 253 m 2,35,-1
 810 253 l 2,36,37
 801.084 253 801.084 253 797.313 261.08 c 0,38,39
 724.633 416.814 724.633 416.814 615.42 542.831 c 0,40,41
 586.674 576 586.674 576 546 576 c 2,42,-1
 456 576 l 1,43,-1
 456 310 l 1,44,-1
 553 310 l 2,45,46
 567 310 567 310 567 296 c 2,47,-1
 567 267 l 2,48,49
 567 253 567 253 553 253 c 2,50,-1
 306 253 l 2,51,52
 292 253 292 253 292 267 c 2,53,-1
 292 296 l 2,54,55
 292 310 292 310 306 310 c 2,56,-1
 395 310 l 1,57,-1
 395 900 l 1,58,-1
 306 900 l 2,59,60
 292 900 292 900 292 914 c 2,61,-1
 292 943 l 2,62,63
 292 957 292 957 306 957 c 2,64,-1
 613 957 l 2,65,66
 709.368 957 709.368 957 738.929 945.556 c 0,67,68
 858 899.46 858 899.46 858 772 c 0,69,70
 858 689.775 858 689.775 808.401 640.639 c 128,-1,71
 758.802 591.504 758.802 591.504 664.457 577.402 c 1,72,73
 729.498 503.948 729.498 503.948 845.932 310 c 1,74,-1
 943 310 l 2,75,76
 957 310 957 310 957 296 c 2,77,-1
 957 267 l 2,78,79
 957 253 957 253 943 253 c 2,35,-1
598 634 m 2,80,81
 699 634 699 634 746 668.5 c 128,-1,82
 793 703 793 703 793 772 c 0,83,84
 793 825.33 793 825.33 769.662 854.986 c 128,-1,85
 746.324 884.642 746.324 884.642 697.186 894.285 c 0,86,87
 670.518 900 670.518 900 610 900 c 2,88,-1
 456 900 l 1,89,-1
 456 634 l 1,90,-1
 598 634 l 2,80,81
EndSplineSet
Validated: 524321
EndChar

StartChar: overscore.001
Encoding: 369 175 113
Width: 1228
Flags: W
LayerCount: 2
Fore
SplineSet
975 1160 m 2,0,-1
 289 1160 l 2,1,2
 275 1160 275 1160 275 1174 c 2,3,-1
 275 1231 l 2,4,5
 275 1245 275 1245 289 1245 c 2,6,-1
 975 1245 l 2,7,8
 989 1245 989 1245 989 1231 c 2,9,-1
 989 1174 l 2,10,11
 989 1160 989 1160 975 1160 c 2,0,-1
EndSplineSet
Validated: 1
EndChar

StartChar: degree
Encoding: 370 176 114
Width: 1228
Flags: W
LayerCount: 2
Fore
SplineSet
952 986 m 128,-1,1
 952 854.151 952 854.151 857.844 761.045 c 128,-1,2
 763.749 668 763.749 668 631.5 668 c 128,-1,3
 499.294 668 499.294 668 405.156 760.045 c 1,4,5
 312 853.201 312 853.201 312 986 c 128,-1,6
 312 1118.7 312 1118.7 405.045 1213.84 c 1,7,8
 500.193 1309 500.193 1309 633 1309 c 128,-1,9
 765.906 1309 765.906 1309 859.036 1213.26 c 128,-1,0
 952 1117.69 952 1117.69 952 986 c 128,-1,1
791.101 1147.1 m 128,-1,11
 726.207 1212 726.207 1212 632.5 1212 c 128,-1,12
 538.835 1212 538.835 1212 473.935 1146.64 c 128,-1,13
 409 1081.24 409 1081.24 409 987.5 c 128,-1,14
 409 893.799 409 893.799 473.4 829.399 c 128,-1,15
 537.799 765 537.799 765 631.5 765 c 128,-1,16
 725.201 765 725.201 765 790.601 830.399 c 128,-1,17
 856 895.799 856 895.799 856 989 c 128,-1,10
 856 1082.2 856 1082.2 791.101 1147.1 c 128,-1,11
EndSplineSet
Validated: 524289
EndChar

StartChar: plusminus
Encoding: 371 177 115
Width: 1228
Flags: W
LayerCount: 2
Fore
SplineSet
1114 701 m 2,0,-1
 675 701 l 1,1,-1
 675 290 l 2,2,3
 675 276 675 276 661 276 c 2,4,-1
 603 276 l 2,5,6
 589 276 589 276 589 290 c 2,7,-1
 589 701 l 1,8,-1
 150 701 l 2,9,10
 136 701 136 701 136 715 c 2,11,-1
 136 772 l 2,12,13
 136 786 136 786 150 786 c 2,14,-1
 589 786 l 1,15,-1
 589 1197 l 2,16,17
 589 1211 589 1211 603 1211 c 2,18,-1
 661 1211 l 2,19,20
 675 1211 675 1211 675 1197 c 2,21,-1
 675 786 l 1,22,-1
 1114 786 l 2,23,24
 1128 786 1128 786 1128 772 c 2,25,-1
 1128 715 l 2,26,27
 1128 701 1128 701 1114 701 c 2,0,-1
1114 53 m 2,28,-1
 150 53 l 2,29,30
 136 53 136 53 136 67 c 2,31,-1
 136 125 l 2,32,33
 136 139 136 139 150 139 c 2,34,-1
 1114 139 l 2,35,36
 1128 139 1128 139 1128 125 c 2,37,-1
 1128 67 l 2,38,39
 1128 53 1128 53 1114 53 c 2,28,-1
EndSplineSet
Validated: 1
EndChar

StartChar: twosuperior
Encoding: 372 178 116
Width: 1228
Flags: W
LayerCount: 2
Fore
SplineSet
837 523 m 2,0,-1
 370 523 l 2,1,2
 356 523 356 523 356 537 c 2,3,-1
 356 586 l 2,4,5
 356 592.439 356 592.439 360.889 596.63 c 0,6,7
 435.989 661.004 435.989 661.004 552.185 767.089 c 0,8,9
 725.97 925.75 725.97 925.75 754.603 970.388 c 0,10,11
 782 1013.11 782 1013.11 782 1080.5 c 0,12,13
 782 1146.05 782 1146.05 731.382 1194.83 c 1,14,15
 677.346 1245 677.346 1245 610.423 1245 c 0,16,17
 545.979 1245 545.979 1245 502.526 1212.05 c 1,18,-1
 499.197 1208.65 l 1,19,20
 450.751 1173.66 450.751 1173.66 448.991 1123.51 c 0,21,22
 448.794 1117.89 448.794 1117.89 444.618 1113.95 c 128,-1,23
 440.442 1110 440.442 1110 435 1110 c 2,24,-1
 397 1110 l 2,25,26
 383 1110 383 1110 383 1124 c 2,27,-1
 383 1191 l 2,28,29
 383 1196.08 383 1196.08 386.262 1199.98 c 0,30,31
 477.464 1309 477.464 1309 611 1309 c 0,32,33
 710.579 1309 710.579 1309 782.133 1241.16 c 0,34,35
 854 1173.02 854 1173.02 854 1084.5 c 0,36,37
 854 997.311 854 997.311 811.258 940.676 c 1,38,39
 772.512 887.169 772.512 887.169 618.491 743.708 c 1,40,-1
 447.064 587 l 1,41,-1
 790 587 l 1,42,-1
 790 697 l 2,43,44
 790 711 790 711 804 711 c 2,45,-1
 837 711 l 2,46,47
 851 711 851 711 851 697 c 2,48,-1
 851 537 l 2,49,50
 851 523 851 523 837 523 c 2,0,-1
EndSplineSet
Validated: 524289
EndChar

StartChar: threesuperior
Encoding: 373 179 117
Width: 1228
Flags: W
LayerCount: 2
Fore
SplineSet
383.58 1233.87 m 0,0,1
 503.777 1309 503.777 1309 591.9 1309 c 0,2,3
 681.394 1309 681.394 1309 742.89 1253.38 c 0,4,5
 805 1197.21 805 1197.21 805 1105 c 0,6,7
 805 1019.18 805 1019.18 714.775 940.6 c 1,8,9
 844 856.093 844 856.093 844 748.5 c 0,10,11
 844 635.912 844 635.912 772.55 569.263 c 0,12,13
 701.514 503 701.514 503 589 503 c 0,14,15
 542.211 503 542.211 503 501.981 513.45 c 0,16,17
 490.96 516.312 490.96 516.312 372.084 560.891 c 0,18,19
 366.494 562.988 366.494 562.988 364.309 568.642 c 128,-1,20
 362.124 574.296 362.124 574.296 363.923 579 c 2,21,-1
 376.923 613 l 2,22,23
 379.07 618.615 379.07 618.615 384.881 620.888 c 128,-1,24
 390.691 623.161 390.691 623.161 395.638 620.814 c 0,25,26
 517.952 567 517.952 567 575.5 567 c 0,27,28
 673.46 567 673.46 567 724.865 616.122 c 0,29,30
 776 664.986 776 664.986 776 740.5 c 0,31,32
 776 815.602 776 815.602 728.839 856.414 c 0,33,34
 680.782 898 680.782 898 589 898 c 2,35,-1
 563 898 l 2,36,37
 549 898 549 898 549 912 c 2,38,-1
 549 948 l 2,39,40
 549 953.608 549 953.608 553.033 957.687 c 128,-1,41
 557.067 961.765 557.067 961.765 562.417 961.988 c 0,42,43
 626.856 964.672 626.856 964.672 646.305 974.82 c 0,44,45
 737 1022.13 737 1022.13 737 1109 c 0,46,47
 737 1168.57 737 1168.57 695.965 1206.75 c 128,-1,48
 654.848 1245 654.848 1245 585.675 1245 c 0,49,50
 515.688 1245 515.688 1245 429.78 1187.04 c 0,51,52
 426.403 1184.05 426.403 1184.05 422.261 1181.98 c 0,53,54
 421.293 1181.49 421.293 1181.49 420.9 1181.1 c 0,55,56
 416.009 1176.4 416.009 1176.4 409.344 1177.24 c 128,-1,57
 402.678 1178.07 402.678 1178.07 399.236 1183.41 c 2,58,-1
 379.236 1214.41 l 2,59,60
 376.123 1219.9 376.123 1219.9 377.67 1225.52 c 128,-1,61
 379.217 1231.14 379.217 1231.14 383.58 1233.87 c 0,0,1
EndSplineSet
Validated: 524289
EndChar

StartChar: acute
Encoding: 374 180 118
Width: 1228
Flags: W
LayerCount: 2
Fore
SplineSet
488.901 1097.53 m 2,0,-1
 641.901 1296.53 l 2,1,2
 646.104 1302 646.104 1302 653 1302 c 2,3,-1
 799 1302 l 2,4,5
 813 1302 813 1302 813 1288 c 0,6,7
 813 1281.22 813 1281.22 807.675 1277.01 c 0,8,9
 786.509 1260.3 786.509 1260.3 561.817 1078.13 c 0,10,11
 557.962 1075 557.962 1075 553 1075 c 2,12,-1
 500 1075 l 2,13,14
 486 1075 486 1075 486 1089 c 0,15,16
 486 1093.76 486 1093.76 488.901 1097.53 c 2,0,-1
EndSplineSet
Validated: 524289
EndChar

StartChar: micro
Encoding: 375 181 119
Width: 1228
Flags: W
LayerCount: 2
Fore
SplineSet
462.829 -0.368199 m 0,0,1
 404.316 41.6886 404.316 41.6886 362.644 110.162 c 0,2,3
 359.824 114.797 359.824 114.797 356.822 120 c 1,4,-1
 335 120 l 1,5,-1
 335 -337 l 2,6,7
 335 -351 335 -351 321 -351 c 2,8,-1
 264 -351 l 2,9,10
 250 -351 250 -351 250 -337 c 2,11,-1
 250 815 l 1,12,-1
 86 815 l 2,13,14
 72 815 72 815 72 829 c 2,15,-1
 72 881 l 2,16,17
 72 895 72 895 86 895 c 2,18,-1
 321 895 l 2,19,20
 335 895 335 895 335 881 c 2,21,-1
 335 394 l 2,22,23
 335 294.726 335 294.726 348.082 242.395 c 0,24,25
 360.792 191.555 360.792 191.555 397.016 142.646 c 1,26,27
 483.086 39 483.086 39 621 39 c 0,28,29
 698.696 39 698.696 39 765.739 72.522 c 0,30,31
 767.221 73.263 767.221 73.263 769.597 73.8144 c 0,32,33
 809.935 93.4066 809.935 93.4066 840.032 127.354 c 0,34,35
 877.492 169.606 877.492 169.606 899.757 234.541 c 0,36,37
 923 302.33 923 302.33 923 394 c 2,38,-1
 923 815 l 1,39,-1
 760 815 l 2,40,41
 746 815 746 815 746 829 c 2,42,-1
 746 881 l 2,43,44
 746 895 746 895 760 895 c 2,45,-1
 995 895 l 2,46,47
 1009 895 1009 895 1009 881 c 2,48,-1
 1009 65 l 1,49,-1
 1174 65 l 2,50,51
 1188 65 1188 65 1188 51 c 2,52,-1
 1188 0 l 2,53,54
 1188 -14 1188 -14 1174 -14 c 2,55,-1
 937 -14 l 2,56,57
 923 -14 923 -14 923 0 c 2,58,-1
 923 135 l 1,59,-1
 899.987 135 l 1,60,61
 890.524 119.302 890.524 119.302 881.22 105.781 c 0,62,63
 776.099 -47 776.099 -47 617 -47 c 0,64,65
 533.84 -47 533.84 -47 467.492 -2.58078 c 0,66,67
 464.6 -1.6409 464.6 -1.6409 462.829 -0.368199 c 0,0,1
EndSplineSet
Validated: 524321
EndChar

StartChar: paragraph
Encoding: 376 182 120
Width: 1228
Flags: W
LayerCount: 2
Fore
SplineSet
233.983 737.142 m 0,0,1
 217.997 781.396 217.997 781.396 214 845.127 c 0,2,3
 214 845.563 214 845.563 214 846 c 2,4,-1
 214 886 l 2,5,6
 213.977 886.573 213.977 886.573 214 887.144 c 0,7,8
 219.181 950.067 219.181 950.067 237.875 1000.37 c 0,9,10
 305.656 1183 305.656 1183 571 1183 c 2,11,-1
 1023 1183 l 2,12,13
 1037 1183 1037 1183 1037 1169 c 2,14,-1
 1037 1121 l 2,15,16
 1037 1107 1037 1107 1023 1107 c 2,17,-1
 932 1107 l 1,18,-1
 932 -108 l 1,19,-1
 1032 -108 l 2,20,21
 1046 -108 1046 -108 1046 -122 c 2,22,-1
 1046 -167 l 2,23,24
 1046 -181 1046 -181 1032 -181 c 2,25,-1
 831 -181 l 2,26,27
 817 -181 817 -181 817 -167 c 2,28,-1
 817 -122 l 2,29,30
 817 -108 817 -108 831 -108 c 2,31,-1
 858 -108 l 1,32,-1
 858 1107 l 1,33,-1
 657 1107 l 1,34,-1
 657 -108 l 1,35,-1
 685 -108 l 2,36,37
 699 -108 699 -108 699 -122 c 2,38,-1
 699 -167 l 2,39,40
 699 -181 699 -181 685 -181 c 2,41,-1
 463 -181 l 2,42,43
 449 -181 449 -181 449 -167 c 2,44,-1
 449 -122 l 2,45,46
 449 -108 449 -108 463 -108 c 2,47,-1
 583 -108 l 1,48,-1
 583 553.018 l 1,49,50
 548.763 551 548.763 551 507 551 c 0,51,52
 383.9 551 383.9 551 292.249 639.954 c 0,53,54
 255.974 675.161 255.974 675.161 234.872 732.138 c 0,55,56
 234.101 734.217 234.101 734.217 233.983 737.142 c 0,0,1
340 841 m 2,57,58
 340 677.577 340 677.577 443.536 645.832 c 0,59,60
 490.791 631.253 490.791 631.253 583 636.173 c 1,61,-1
 583 1106.84 l 1,62,63
 458.719 1103.98 458.719 1103.98 399.359 1052.16 c 128,-1,64
 340 1000.35 340 1000.35 340 897 c 2,65,-1
 340 841 l 2,57,58
EndSplineSet
Validated: 524321
EndChar

StartChar: periodcentered
Encoding: 377 183 121
Width: 1228
Flags: W
LayerCount: 2
Fore
SplineSet
520.329 536.267 m 1,0,1
 477 573.072 477 573.072 477 630.5 c 0,2,3
 477 690.716 477 690.716 525.239 729.42 c 0,4,5
 572.078 767 572.078 767 633 767 c 128,-1,6
 694.016 767 694.016 767 739.886 729.318 c 0,7,8
 787 690.615 787 690.615 787 631.5 c 128,-1,9
 787 572.297 787 572.297 738.276 533.092 c 0,10,11
 690.934 495 690.934 495 631.5 495 c 128,-1,12
 572.197 495 572.197 495 523.405 532.949 c 1,13,-1
 520.329 536.267 l 1,0,1
EndSplineSet
Validated: 524289
EndChar

StartChar: cedilla
Encoding: 378 184 122
Width: 1228
Flags: W
LayerCount: 2
Fore
SplineSet
547.125 -176.132 m 0,0,1
 548.239 -167.855 548.239 -167.855 573.135 9.94107 c 0,2,3
 574.824 22 574.824 22 587 22 c 2,4,-1
 641 22 l 2,5,6
 647.342 22 647.342 22 651.485 17.056 c 128,-1,7
 655.628 12.1119 655.628 12.1119 654.89 6.25156 c 2,8,-1
 638.687 -122.479 l 1,9,10
 795.042 -139.353 795.042 -139.353 861.118 -201.827 c 0,11,12
 893 -231.971 893 -231.971 893 -263 c 0,13,14
 893 -289.384 893 -289.384 888.118 -313.897 c 0,15,16
 882.675 -341.232 882.675 -341.232 859.775 -364.074 c 0,17,18
 837.827 -385.966 837.827 -385.966 807.119 -398.031 c 0,19,20
 753.745 -419 753.745 -419 694.045 -419 c 0,21,22
 636.166 -419 636.166 -419 601.84 -414.901 c 0,23,24
 556.693 -409.51 556.693 -409.51 438.453 -378.543 c 0,25,26
 432.668 -377.028 432.668 -377.028 429.897 -371.621 c 128,-1,27
 427.126 -366.214 427.126 -366.214 428.515 -361.237 c 2,28,-1
 440.515 -318.237 l 2,29,30
 442.127 -312.461 442.127 -312.461 447.59 -309.744 c 128,-1,31
 453.052 -307.027 453.052 -307.027 458.198 -308.644 c 0,32,33
 577.052 -346 577.052 -346 676 -346 c 0,34,35
 799.953 -346 799.953 -346 809.206 -294.607 c 0,36,37
 814.467 -263.031 814.467 -263.031 782.66 -239.85 c 128,-1,38
 750.854 -216.669 750.854 -216.669 673.818 -203.829 c 0,39,40
 627.454 -196.924 627.454 -196.924 559.973 -191.962 c 0,41,42
 553.968 -191.521 553.968 -191.521 550.161 -186.692 c 128,-1,43
 546.354 -181.863 546.354 -181.863 547.125 -176.132 c 0,0,1
EndSplineSet
Validated: 524289
EndChar

StartChar: onesuperior
Encoding: 379 185 123
Width: 1228
Flags: W
LayerCount: 2
Fore
SplineSet
395.264 1201.77 m 2,0,-1
 631.264 1307.77 l 2,1,2
 634.001 1309 634.001 1309 637 1309 c 2,3,-1
 663 1309 l 2,4,5
 677 1309 677 1309 677 1295 c 2,6,-1
 677 587 l 1,7,-1
 879 587 l 2,8,9
 893 587 893 587 893 573 c 2,10,-1
 893 537 l 2,11,12
 893 523 893 523 879 523 c 2,13,-1
 404 523 l 2,14,15
 390 523 390 523 390 537 c 2,16,-1
 390 573 l 2,17,18
 390 587 390 587 404 587 c 2,19,-1
 611 587 l 1,20,-1
 611 1228.97 l 1,21,22
 550.654 1203.31 550.654 1203.31 421.833 1144.27 c 0,23,24
 416.292 1141.97 416.292 1141.97 410.934 1144.11 c 128,-1,25
 405.576 1146.25 405.576 1146.25 403.324 1151.06 c 2,26,-1
 388.324 1183.06 l 2,27,28
 385.969 1188.9 385.969 1188.9 388.258 1194.28 c 128,-1,29
 390.547 1199.65 390.547 1199.65 395.264 1201.77 c 2,0,-1
EndSplineSet
Validated: 524289
EndChar

StartChar: ordmasculine
Encoding: 380 186 124
Width: 1228
Flags: W
LayerCount: 2
Fore
SplineSet
824.532 789.746 m 0,0,1
 749.503 720 749.503 720 631 720 c 128,-1,2
 512.448 720 512.448 720 439.4 788.81 c 0,3,4
 366 857.951 366 857.951 366 969 c 128,-1,5
 366 1080.01 366 1080.01 439.859 1150.15 c 0,6,7
 513.413 1220 513.413 1220 630.5 1220 c 128,-1,8
 747.532 1220 747.532 1220 822.57 1149.72 c 0,9,10
 898 1079.07 898 1079.07 898 970 c 0,11,12
 898 864.352 898 864.352 827.517 793.632 c 0,13,14
 825.935 791.051 825.935 791.051 824.532 789.746 c 0,0,1
773.647 1112.41 m 1,15,16
 718.27 1164 718.27 1164 632 1164 c 0,17,18
 545.092 1164 545.092 1164 485.735 1108.94 c 1,19,20
 430 1052.71 430 1052.71 430 969.5 c 0,21,22
 430 885.799 430 885.799 485.776 830.023 c 1,23,24
 543.595 775 543.595 775 632.5 775 c 128,-1,25
 721.266 775 721.266 775 778.183 830.981 c 128,-1,26
 835 886.864 835 886.864 835 970 c 128,-1,27
 835 1053 835 1053 776.345 1108.86 c 1,28,-1
 773.647 1112.41 l 1,15,16
871 562 m 2,29,-1
 394 562 l 2,30,31
 380 562 380 562 380 576 c 2,32,-1
 380 603 l 2,33,34
 380 617 380 617 394 617 c 2,35,-1
 871 617 l 2,36,37
 885 617 885 617 885 603 c 2,38,-1
 885 576 l 2,39,40
 885 562 885 562 871 562 c 2,29,-1
EndSplineSet
Validated: 524289
EndChar

StartChar: guillemotright
Encoding: 381 187 125
Width: 1228
Flags: W
LayerCount: 2
Fore
SplineSet
557.741 839.526 m 0,0,1
 593.361 877.884 593.361 877.884 595.594 880.365 c 0,2,3
 604.799 890.593 604.799 890.593 615.184 881.567 c 2,4,-1
 1081.18 476.567 l 2,5,6
 1085.98 472.323 1085.98 472.323 1085.9 465.867 c 128,-1,7
 1085.83 459.411 1085.83 459.411 1081.11 455.37 c 0,8,9
 969.094 359.359 969.094 359.359 615.104 56.364 c 0,10,11
 610.253 52.4974 610.253 52.4974 604.335 53.2552 c 128,-1,12
 598.416 54.013 598.416 54.013 595.012 58.325 c 2,13,-1
 565.012 96.325 l 2,14,15
 556.731 106.814 556.731 106.814 566.824 115.574 c 2,16,-1
 970.574 465.943 l 1,17,-1
 558.881 819.356 l 2,18,19
 554.326 823.277 554.326 823.277 554.164 829.546 c 128,-1,20
 554.001 835.804 554.001 835.804 557.741 839.526 c 0,0,1
594.086 465.553 m 1,21,22
 193.733 810.96 193.733 810.96 183.906 819.356 c 0,23,24
 175.381 826.638 175.381 826.638 181.118 837.479 c 0,25,26
 182.016 838.693 182.016 838.693 182.313 839.043 c 0,27,28
 210.192 871.992 210.192 871.992 219.101 880.899 c 0,29,30
 228.331 890.13 228.331 890.13 238.184 881.567 c 2,31,-1
 704.184 476.567 l 2,32,33
 708.977 472.318 708.977 472.318 708.9 465.867 c 128,-1,34
 708.823 459.412 708.823 459.412 704.119 455.37 c 2,35,-1
 238.119 55.3768 l 2,36,37
 233.013 51.5712 233.013 51.5712 227.305 52.3478 c 128,-1,38
 221.597 53.1244 221.597 53.1244 218.37 56.8889 c 0,39,40
 198.804 79.7162 198.804 79.7162 185.678 97.7656 c 0,41,42
 178.094 108.194 178.094 108.194 187.864 116.608 c 2,43,-1
 594.086 465.553 l 1,21,22
EndSplineSet
Validated: 524289
EndChar

StartChar: questiondown
Encoding: 385 191 129
Width: 1228
Flags: W
LayerCount: 2
Fore
SplineSet
717.974 319.32 m 2,0,-1
 695.04 314.334 l 2,1,2
 669.252 308.46 669.252 308.46 657.213 305.045 c 0,3,4
 644.398 301.412 644.398 301.412 632.474 298.819 c 0,5,6
 610.657 294.077 610.657 294.077 595.665 288.622 c 0,7,8
 579.241 282.645 579.241 282.645 573.184 280.993 c 0,9,10
 568.456 279.704 568.456 279.704 564.199 278.001 c 0,11,12
 562.5 277.322 562.5 277.322 560.466 277.075 c 0,13,14
 495.416 255.587 495.416 255.587 444.169 217.627 c 128,-1,15
 393.048 179.761 393.048 179.761 370.548 134.291 c 128,-1,16
 347.96 88.6437 347.96 88.6437 343 19.5181 c 1,17,18
 343.319 -67.5156 343.319 -67.5156 403.807 -140.1 c 0,19,20
 436.588 -180.372 436.588 -180.372 501.249 -206.521 c 0,21,22
 566.725 -233 566.725 -233 669 -233 c 0,23,24
 768.246 -233 768.246 -233 912 -177.439 c 1,25,-1
 912 -57 l 2,26,27
 912 -43 912 -43 926 -43 c 2,28,-1
 984 -43 l 2,29,30
 998 -43 998 -43 998 -57 c 2,31,-1
 998 -234 l 2,32,33
 998 -244.091 998 -244.091 988.427 -247.282 c 0,34,35
 864.882 -288.463 864.882 -288.463 821.321 -299.1 c 0,36,37
 743.923 -318 743.923 -318 654.119 -318 c 0,38,39
 467.404 -318 467.404 -318 360.851 -216.644 c 0,40,41
 254 -115.004 254 -115.004 254 26 c 0,42,43
 254 123.281 254 123.281 304.326 195.737 c 1,44,45
 362.929 288.723 362.929 288.723 537.245 351.668 c 0,46,47
 596.123 372.928 596.123 372.928 645 385.858 c 1,48,-1
 645 499 l 2,49,50
 645 513 645 513 659 513 c 2,51,-1
 715 513 l 2,52,53
 729 513 729 513 729 499 c 2,54,-1
 729 333 l 2,55,56
 729 321.717 729 321.717 717.974 319.32 c 2,0,-1
792.991 729.269 m 0,57,58
 752.088 695 752.088 695 694.5 695 c 128,-1,59
 636.811 695 636.811 695 597.377 728.881 c 0,60,61
 557 763.572 557 763.572 557 815.5 c 128,-1,62
 557 867.413 557 867.413 598.353 903.099 c 0,63,64
 638.797 938 638.797 938 696 938 c 128,-1,65
 753.189 938 753.189 938 792.623 904.119 c 0,66,67
 833 869.428 833 869.428 833 818 c 0,68,69
 833 766.959 833 766.959 793.604 729.814 c 0,70,71
 793.306 729.532 793.306 729.532 792.991 729.269 c 0,57,58
EndSplineSet
Validated: 524289
EndChar

StartChar: AE
Encoding: 392 198 136
Width: 1228
Flags: W
LayerCount: 2
Fore
SplineSet
1074.6 64 m 1,0,1
 1086.66 341.322 1086.66 341.322 1087.02 347.785 c 0,2,3
 1087.34 353.363 1087.34 353.363 1091.58 357.181 c 128,-1,4
 1095.83 361 1095.83 361 1101 361 c 2,5,-1
 1151 361 l 2,6,7
 1165 361 1165 361 1165 347 c 2,8,-1
 1165 0 l 2,9,10
 1165 -14 1165 -14 1151 -14 c 2,11,-1
 657 -14 l 2,12,13
 643 -14 643 -14 643 0 c 2,14,-1
 643 379 l 1,15,-1
 362.356 379 l 1,16,-1
 231.948 64 l 1,17,-1
 413 64 l 2,18,19
 427 64 427 64 427 50 c 2,20,-1
 427 0 l 2,21,22
 427 -14 427 -14 413 -14 c 2,23,-1
 53 -14 l 2,24,25
 39 -14 39 -14 39 0 c 2,26,-1
 39 50 l 2,27,28
 39 64 39 64 53 64 c 2,29,-1
 147.553 64 l 1,30,-1
 561.252 1089 l 1,31,-1
 350 1089 l 2,32,33
 336 1089 336 1089 336 1103 c 2,34,-1
 336 1153 l 2,35,36
 336 1167 336 1167 350 1167 c 2,37,-1
 1135 1167 l 2,38,39
 1149 1167 1149 1167 1149 1153 c 2,40,-1
 1149 818 l 2,41,42
 1149 804 1149 804 1135 804 c 2,43,-1
 1088 804 l 2,44,45
 1082.44 803.989 1082.44 803.989 1078.41 808 c 128,-1,46
 1074.38 812.033 1074.38 812.033 1074.03 817.02 c 2,47,-1
 1054.95 1089 l 1,48,-1
 728 1089 l 1,49,-1
 728 652 l 1,50,-1
 889 652 l 1,51,-1
 889 794 l 2,52,53
 889 808 889 808 903 808 c 2,54,-1
 951 808 l 2,55,56
 965 808 965 808 965 794 c 2,57,-1
 965 432 l 2,58,59
 965 418 965 418 951 418 c 2,60,-1
 903 418 l 2,61,62
 889 418 889 418 889 432 c 2,63,-1
 889 573 l 1,64,-1
 728 573 l 1,65,-1
 728 64 l 1,66,-1
 1074.6 64 l 1,0,1
643 457 m 1,67,-1
 643 1063 l 1,68,-1
 620.641 1063 l 1,69,-1
 389.329 457 l 1,70,-1
 643 457 l 1,67,-1
EndSplineSet
Validated: 524289
EndChar

StartChar: Eth
Encoding: 402 208 146
Width: 1228
Flags: W
LayerCount: 2
Fore
SplineSet
239 64 m 1,0,-1
 239 571 l 1,1,-1
 85 571 l 2,2,3
 71 571 71 571 71 585 c 2,4,-1
 71 635 l 2,5,6
 71 649 71 649 85 649 c 2,7,-1
 239 649 l 1,8,-1
 239 1089 l 1,9,-1
 85 1089 l 2,10,11
 71 1089 71 1089 71 1103 c 2,12,-1
 71 1153 l 2,13,14
 71 1167 71 1167 85 1167 c 2,15,-1
 594 1167 l 2,16,17
 747.625 1167 747.625 1167 821.781 1144.92 c 0,18,19
 896.402 1122.7 896.402 1122.7 940.4 1089.7 c 0,20,21
 983.667 1057.25 983.667 1057.25 1022.89 1010.8 c 1,22,23
 1153 842.296 1153 842.296 1153 599 c 0,24,25
 1153 276.492 1153 276.492 978.654 106.86 c 1,26,27
 885.191 19.7716 885.191 19.7716 761.189 1.17172 c 1,28,29
 670.159 -14 670.159 -14 585 -14 c 2,30,-1
 85 -14 l 2,31,32
 71 -14 71 -14 71 0 c 2,33,-1
 71 50 l 2,34,35
 71 64 71 64 85 64 c 2,36,-1
 239 64 l 1,0,-1
585 64 m 2,37,38
 674.859 64 674.859 64 730.443 74.7455 c 0,39,40
 841.398 96.1954 841.398 96.1954 909.233 164.031 c 0,41,42
 1060 314.802 1060 314.802 1060 593 c 0,43,44
 1060 803.492 1060 803.492 957.687 945.752 c 1,45,46
 892.261 1034.27 892.261 1034.27 813.357 1062.79 c 1,47,48
 736.599 1089 736.599 1089 596 1089 c 2,49,-1
 324 1089 l 1,50,-1
 324 649 l 1,51,-1
 665 649 l 2,52,53
 679 649 679 649 679 635 c 2,54,-1
 679 585 l 2,55,56
 679 571 679 571 665 571 c 2,57,-1
 324 571 l 1,58,-1
 324 64 l 1,59,-1
 585 64 l 2,37,38
EndSplineSet
Validated: 524289
EndChar

StartChar: multiply
Encoding: 409 215 153
Width: 1228
Flags: W
LayerCount: 2
Fore
SplineSet
958.777 1006.02 m 2,0,-1
 999.777 966.021 l 2,1,2
 1004.03 961.35 1004.03 961.35 1003.78 955.535 c 128,-1,3
 1003.52 949.719 1003.52 949.719 999.899 946.101 c 2,4,-1
 691.783 637.984 l 1,5,-1
 998.899 329.884 l 2,6,7
 1008.78 319.984 1008.78 319.984 998.899 310.1 c 2,8,-1
 957.899 269.1 l 2,9,10
 953.125 264.908 953.125 264.908 947.353 265.241 c 128,-1,11
 941.582 265.582 941.582 265.582 938.054 269.147 c 2,12,-1
 631.953 578.154 l 1,13,-1
 483.4 429.6 l 2,14,15
 399.929 346.121 399.929 346.121 323.964 269.147 c 0,16,17
 319.229 264.935 319.229 264.935 313.446 265.241 c 128,-1,18
 307.663 265.538 307.663 265.538 304.1 269.1 c 2,19,-1
 282.1 291.1 l 2,20,21
 273.866 299.335 273.866 299.335 263.641 310.583 c 0,22,23
 254.647 320.476 254.647 320.476 264.116 329.915 c 2,24,-1
 573.185 638.015 l 1,25,26
 413.696 797.448 413.696 797.448 264.165 945.036 c 0,27,28
 259.929 949.686 259.929 949.686 260.212 955.535 c 128,-1,29
 260.496 961.384 260.496 961.384 264.223 965.021 c 2,30,-1
 305.223 1005.02 l 2,31,32
 315.106 1014.66 315.106 1014.66 324.884 1004.92 c 2,33,-1
 631.984 698.783 l 1,34,-1
 939.101 1005.9 l 2,35,36
 948.879 1015.68 948.879 1015.68 958.777 1006.02 c 2,0,-1
EndSplineSet
Validated: 524289
EndChar

StartChar: Oslash
Encoding: 410 216 154
Width: 1228
Flags: W
LayerCount: 2
Fore
SplineSet
1025.88 1011.14 m 1,0,1
 1166 834.277 1166 834.277 1166 571 c 0,2,3
 1166 310.026 1166 310.026 1024.86 136.661 c 0,4,5
 872.075 -51 872.075 -51 637 -51 c 0,6,7
 453.93 -51 453.93 -51 301.941 70.328 c 1,8,-1
 203.809 -48.897 l 2,9,10
 199.989 -53.5387 199.989 -53.5387 193.757 -53.8465 c 128,-1,11
 187.525 -54.1543 187.525 -54.1543 183.583 -50.3594 c 0,12,13
 174.643 -42.233 174.643 -42.233 150.6 -24.1999 c 0,14,15
 145.826 -20.6196 145.826 -20.6196 145.298 -14.3023 c 128,-1,16
 144.771 -7.98496 144.771 -7.98496 147.83 -4.56034 c 2,17,-1
 243.427 121.965 l 1,18,19
 121.288 284.174 121.288 284.174 99.1475 435.473 c 0,20,21
 90 497.982 90 497.982 90 573 c 0,22,23
 90 748.009 90 748.009 153.739 889.258 c 0,24,25
 217.838 1031.31 217.838 1031.31 343.061 1117.53 c 0,26,27
 468.637 1204 468.637 1204 616.5 1204 c 0,28,29
 763.697 1204 763.697 1204 849.801 1155.24 c 1,30,31
 915.542 1119.38 915.542 1119.38 978.212 1066.06 c 1,32,33
 992.377 1083.63 992.377 1083.63 1010.07 1105.75 c 2,34,-1
 1054.07 1160.75 l 2,35,36
 1062.75 1171.6 1062.75 1171.6 1073.66 1163 c 2,37,-1
 1106.66 1137 l 2,38,39
 1117.63 1128.36 1117.63 1128.36 1109.03 1117.37 c 2,40,-1
 1025.88 1011.14 l 1,0,1
349.452 141.208 m 1,41,42
 482.725 35 482.725 35 619 35 c 0,43,44
 761.478 35 761.478 35 861.92 107.434 c 1,45,46
 963.259 177.591 963.259 177.591 1017.43 301.287 c 0,47,48
 1072 425.938 1072 425.938 1072 573 c 0,49,50
 1072 755.891 1072 755.891 968.377 937.107 c 1,51,-1
 349.452 141.208 l 1,41,42
921.802 994.369 m 1,52,53
 808.005 1118 808.005 1118 625 1118 c 0,54,55
 491.708 1118 491.708 1118 387.567 1038.93 c 1,56,57
 284.006 957.275 284.006 957.275 233.641 837.575 c 0,58,59
 183 717.18 183 717.18 183 608.5 c 0,60,61
 183 498.633 183 498.633 209.124 388.224 c 0,62,63
 233.056 287.077 233.056 287.077 303.789 196.588 c 1,64,-1
 921.802 994.369 l 1,52,53
EndSplineSet
Validated: 524289
EndChar

StartChar: Thorn
Encoding: 416 222 160
Width: 1228
Flags: W
LayerCount: 2
Fore
SplineSet
635 -14 m 2,0,-1
 163 -14 l 2,1,2
 149 -14 149 -14 149 0 c 2,3,-1
 149 50 l 2,4,5
 149 64 149 64 163 64 c 2,6,-1
 322 64 l 1,7,-1
 322 1089 l 1,8,-1
 163 1089 l 2,9,10
 149 1089 149 1089 149 1103 c 2,11,-1
 149 1153 l 2,12,13
 149 1167 149 1167 163 1167 c 2,14,-1
 635 1167 l 2,15,16
 649 1167 649 1167 649 1153 c 2,17,-1
 649 1103 l 2,18,19
 649 1089 649 1089 635 1089 c 2,20,-1
 407 1089 l 1,21,-1
 407 957 l 1,22,-1
 535 957 l 2,23,24
 735.015 957 735.015 957 797.043 947.85 c 0,25,26
 904.234 932.038 904.234 932.038 951.148 902.113 c 0,27,28
 1029.31 852.255 1029.31 852.255 1073.11 774.015 c 128,-1,29
 1117 695.657 1117 695.657 1117 603 c 128,-1,30
 1117 510.459 1117 510.459 1084.32 449.856 c 0,31,32
 1031.04 351.016 1031.04 351.016 978.781 320.945 c 0,33,34
 894.785 272.613 894.785 272.613 835.208 263.19 c 0,35,36
 745.489 249 745.489 249 535 249 c 2,37,-1
 407 249 l 1,38,-1
 407 64 l 1,39,-1
 635 64 l 2,40,41
 649 64 649 64 649 50 c 2,42,-1
 649 0 l 2,43,44
 649 -14 649 -14 635 -14 c 2,0,-1
665.611 327 m 1,45,46
 708.776 329.417 708.776 329.417 768.376 334.646 c 0,47,48
 969.609 352.303 969.609 352.303 1014.93 530.943 c 0,49,50
 1023 562.752 1023 562.752 1023 602.5 c 0,51,52
 1023 641.951 1023 641.951 1012.09 678.493 c 128,-1,53
 1001.12 715.21 1001.12 715.21 982.596 745.131 c 0,54,55
 946.419 803.571 946.419 803.571 888.389 834.659 c 0,56,57
 886.928 835.442 886.928 835.442 885.174 837.003 c 0,58,59
 823.759 870.556 823.759 870.556 756.257 874.621 c 0,60,61
 683.558 879 683.558 879 627 879 c 2,62,-1
 407 879 l 1,63,-1
 407 327 l 1,64,-1
 665.611 327 l 1,45,46
EndSplineSet
Validated: 524289
EndChar

StartChar: germandbls
Encoding: 417 223 161
Width: 1228
Flags: W
LayerCount: 2
Fore
SplineSet
753.464 -29 m 0,0,1
 608.002 -29 608.002 -29 507.721 32.0412 c 0,2,3
 501 36.1322 501 36.1322 501 44 c 2,4,-1
 501 100 l 2,5,6
 501 114 501 114 515 114 c 0,7,8
 518.41 114 518.41 114 521.438 112.432 c 0,9,10
 630.411 56 630.411 56 737 56 c 0,11,12
 822.803 56 822.803 56 901.273 117.947 c 0,13,14
 939.506 148.721 939.506 148.721 963.632 205.015 c 0,15,16
 988 261.873 988 261.873 988 334 c 0,17,18
 988 499.458 988 499.458 883.383 588.285 c 128,-1,19
 778.766 677.112 778.766 677.112 564.094 691.029 c 0,20,21
 558.528 691.39 558.528 691.39 554.756 695.667 c 128,-1,22
 550.995 699.944 550.995 699.944 551 705 c 2,23,-1
 551 757 l 2,24,25
 551 762.36 551 762.36 554.756 766.366 c 128,-1,26
 558.512 770.373 558.512 770.373 563.475 770.917 c 0,27,28
 707.303 786.681 707.303 786.681 776.651 847.577 c 128,-1,29
 846 908.474 846 908.474 846 1016 c 0,30,31
 846 1166.94 846 1166.94 724.747 1216.02 c 0,32,33
 685.28 1232 685.28 1232 637 1232 c 0,34,35
 540.388 1232 540.388 1232 467.2 1168.45 c 0,36,37
 385 1096.79 385 1096.79 385 934 c 2,38,-1
 385 0 l 2,39,40
 385 -14 385 -14 371 -14 c 2,41,-1
 149 -14 l 2,42,43
 135 -14 135 -14 135 0 c 2,44,-1
 135 51 l 2,45,46
 135 65 135 65 149 65 c 2,47,-1
 300 65 l 1,48,-1
 300 952 l 2,49,50
 300 1115.71 300 1115.71 399.097 1216.9 c 1,51,52
 501.278 1317 501.278 1317 637.5 1317 c 0,53,54
 774.113 1317 774.113 1317 854.766 1230.02 c 0,55,56
 935 1143.49 935 1143.49 935 1018 c 0,57,58
 935 930.694 935 930.694 885.085 857.139 c 0,59,60
 841.563 793.006 841.563 793.006 732.966 742.342 c 1,61,62
 885.929 686.575 885.929 686.575 942.746 640.932 c 0,63,64
 1083 528.731 1083 528.731 1083 324 c 0,65,66
 1083 177.591 1083 177.591 992.513 74.6882 c 0,67,68
 901.336 -29 901.336 -29 753.464 -29 c 0,0,1
EndSplineSet
Validated: 524321
EndChar

StartChar: ae
Encoding: 424 230 168
Width: 1228
Flags: W
LayerCount: 2
Fore
SplineSet
736.383 133.15 m 0,0,1
 805.609 37 805.609 37 946.5 37 c 0,2,3
 1027.89 37 1027.89 37 1155.88 76.3809 c 0,4,5
 1167.88 80.0713 1167.88 80.0713 1172.85 68.5501 c 2,6,-1
 1191.85 24.5501 l 2,7,8
 1194.36 18.7402 1194.36 18.7402 1191.45 13.0332 c 128,-1,9
 1188.54 7.32624 1188.54 7.32624 1183.21 5.64705 c 0,10,11
 1022.46 -45 1022.46 -45 950.152 -45 c 0,12,13
 785.714 -45 785.714 -45 693.536 58.6989 c 0,14,15
 686.867 66.2019 686.867 66.2019 681.199 74.1057 c 0,16,17
 680.49 74.7114 680.49 74.7114 680.101 75.1005 c 0,18,19
 676.775 78.4262 676.775 78.4262 673.845 83.5541 c 0,20,21
 672.775 85.4261 672.775 85.4261 671.101 87.1005 c 0,22,23
 668.724 89.4772 668.724 89.4772 667.471 93.3325 c 0,24,25
 666.111 94.9976 666.111 94.9976 665.245 96.0374 c 0,26,27
 659.969 102.369 659.969 102.369 654.21 110.221 c 0,28,29
 649.922 116.069 649.922 116.069 646.055 121.423 c 1,30,31
 472.346 -47 472.346 -47 323 -47 c 0,32,33
 209.064 -47 209.064 -47 137.952 29.8995 c 0,34,35
 135.682 31.2907 135.682 31.2907 134.189 33.1049 c 0,36,37
 66 115.981 66 115.981 66 226 c 0,38,39
 66 340.892 66 340.892 147.354 435.092 c 1,40,41
 235.941 540 235.941 540 400 540 c 0,42,43
 424.709 540 424.709 540 579 518.134 c 1,44,-1
 579 607 l 2,45,46
 579 728.982 579 728.982 546.999 789.153 c 0,47,48
 545.471 790.942 545.471 790.942 544.803 792.128 c 0,49,50
 508.82 856 508.82 856 412.615 856 c 0,51,52
 310.567 856 310.567 856 169.532 807.754 c 0,53,54
 163.856 805.812 163.856 805.812 158.52 808.776 c 128,-1,55
 153.184 811.74 153.184 811.74 151.607 816.924 c 2,56,-1
 137.607 862.924 l 2,57,58
 133.73 875.662 133.73 875.662 146.258 880.172 c 0,59,60
 306.878 938 306.878 938 410.167 938 c 0,61,62
 516.104 938 516.104 938 564.01 897.715 c 0,63,64
 606.006 862.401 606.006 862.401 640.954 762.497 c 1,65,-1
 658.523 784.69 l 2,66,67
 667.805 796.414 667.805 796.414 675.108 806.637 c 0,68,69
 690.782 828.581 690.782 828.581 719.851 857.649 c 0,70,71
 749.303 887.102 749.303 887.102 772.256 900.98 c 0,72,73
 833.483 938 833.483 938 903 938 c 2,74,-1
 914.5 938 l 2,75,76
 926.808 938 926.808 938 968.555 927.041 c 0,77,78
 1010.82 915.946 1010.82 915.946 1038.27 897.649 c 128,-1,79
 1065.67 879.376 1065.67 879.376 1089.08 849.055 c 0,80,81
 1111.56 819.944 1111.56 819.944 1124.98 797.744 c 0,82,83
 1138.61 775.208 1138.61 775.208 1149.55 747.074 c 0,84,85
 1192 637.906 1192 637.906 1192 476 c 2,86,-1
 1192 440 l 2,87,88
 1192 426 1192 426 1178 426 c 2,89,-1
 663.476 426 l 1,90,91
 667.918 303.97 667.918 303.97 681.665 248.062 c 0,92,93
 695.957 189.937 695.957 189.937 736.383 133.15 c 0,0,1
579 436.544 m 1,94,95
 470.755 458 470.755 458 401 458 c 0,96,97
 212.13 458 212.13 458 162.366 298.334 c 0,98,99
 151 261.867 151 261.867 151 224.5 c 0,100,101
 151 151.687 151 151.687 195.679 92.4284 c 0,102,103
 238.977 35 238.977 35 320 35 c 0,104,105
 428.706 35 428.706 35 579 161.481 c 1,106,-1
 579 436.544 l 1,94,95
1104.61 505 m 1,107,108
 1098.84 674.961 1098.84 674.961 1046.39 765.481 c 128,-1,109
 993.937 856 993.937 856 901.5 856 c 0,110,111
 807.665 856 807.665 856 733.896 765.209 c 0,112,113
 670.176 685.557 670.176 685.557 666.49 585.982 c 0,114,115
 665.984 572.297 665.984 572.297 664.972 555.653 c 0,116,117
 663.456 530.592 663.456 530.592 663.093 505 c 1,118,-1
 1104.61 505 l 1,107,108
EndSplineSet
Validated: 524289
EndChar

StartChar: eth
Encoding: 434 240 178
Width: 1228
Flags: W
LayerCount: 2
Fore
SplineSet
623.606 1476.75 m 0,0,1
 652.642 1457.97 652.642 1457.97 674.969 1442.51 c 0,2,3
 686.025 1434.86 686.025 1434.86 678.822 1423.5 c 2,4,-1
 601.192 1301.12 l 1,5,6
 609.121 1295.96 609.121 1295.96 617.226 1290.84 c 0,7,8
 631.697 1281.7 631.697 1281.7 639.931 1276.04 c 0,9,10
 643.029 1273.91 643.029 1273.91 646.164 1271.83 c 1,11,12
 649.262 1271.32 649.262 1271.32 651.766 1269.65 c 0,13,14
 660.559 1263.79 660.559 1263.79 668.42 1258.87 c 0,15,16
 676.552 1253.79 676.552 1253.79 686.63 1247.24 c 0,17,18
 730.243 1218.89 730.243 1218.89 769.193 1188.25 c 0,19,20
 868.889 1109.85 868.889 1109.85 912.206 1059.46 c 0,21,22
 954.836 1009.87 954.836 1009.87 982.508 974.649 c 0,23,24
 1010.42 939.12 1010.42 939.12 1032.75 904.606 c 128,-1,25
 1055.21 869.894 1055.21 869.894 1073.59 832.125 c 0,26,27
 1158 658.628 1158 658.628 1158 466 c 0,28,29
 1158 311.437 1158 311.437 1086.99 188.761 c 1,30,31
 1011.24 68.469 1011.24 68.469 899.261 12.4779 c 0,32,33
 897.278 11.4863 897.278 11.4863 894.201 11.023 c 0,34,35
 776.99 -45 776.99 -45 632 -45 c 0,36,37
 454.007 -45 454.007 -45 311.965 45.7005 c 0,38,39
 269.086 73.0808 269.086 73.0808 236.945 106.259 c 0,40,41
 236.683 106.529 236.683 106.529 236.436 106.813 c 0,42,43
 106 256.816 106 256.816 106 446 c 0,44,45
 106 596.11 106 596.11 178.136 708.434 c 1,46,47
 243.033 814.628 243.033 814.628 365.555 880.43 c 1,48,49
 480.699 938 480.699 938 635.5 938 c 0,50,51
 784.489 938 784.489 938 912.174 876.973 c 1,52,-1
 929.286 894.085 l 1,53,54
 845.765 999.292 845.765 999.292 806.927 1035.3 c 0,55,56
 765.835 1073.41 765.835 1073.41 730.736 1101.58 c 0,57,58
 663.322 1155.7 663.322 1155.7 552.581 1221.08 c 1,59,60
 472.199 1094.33 472.199 1094.33 447.856 1055.56 c 0,61,62
 444.652 1050.45 444.652 1050.45 438.549 1049.33 c 128,-1,63
 432.447 1048.2 432.447 1048.2 427.779 1051.67 c 2,64,-1
 376.779 1088.67 l 2,65,66
 365.902 1096.56 365.902 1096.56 373.341 1107.75 c 2,67,-1
 475.337 1261.2 l 1,68,69
 332.231 1327.84 332.231 1327.84 246.389 1357.78 c 0,70,71
 240.746 1359.75 240.746 1359.75 238.422 1365.36 c 128,-1,72
 236.097 1370.96 236.097 1370.96 237.836 1375.77 c 2,73,-1
 258.836 1433.77 l 2,74,75
 263.503 1446.66 263.503 1446.66 276.488 1442.26 c 0,76,77
 377.569 1408.05 377.569 1408.05 523.565 1340 c 1,78,-1
 604.04 1472.28 l 2,79,80
 607.154 1477.4 607.154 1477.4 613.33 1478.56 c 128,-1,81
 619.506 1479.72 619.506 1479.72 623.606 1476.75 c 0,0,1
1048.5 331.723 m 128,-1,83
 1064 387.908 1064 387.908 1064 453.286 c 0,84,85
 1064 518.073 1064 518.073 1034.86 597.16 c 0,86,87
 1034.1 599.241 1034.1 599.241 1033.98 602.345 c 0,88,89
 969.138 776.727 969.138 776.727 776.251 838.16 c 0,90,91
 710.819 859 710.819 859 632 859 c 0,92,93
 433.005 859 433.005 859 317.138 737.345 c 0,94,95
 200 614.355 200 614.355 200 446 c 0,96,97
 200 280.631 200 280.631 316.177 157.647 c 0,98,99
 432.035 35 432.035 35 632 35 c 0,100,101
 729.19 35 729.19 35 803.672 65.4584 c 0,102,103
 878.541 96.0748 878.541 96.0748 924.781 136.536 c 0,104,105
 971.234 177.184 971.234 177.184 1002.14 226.441 c 128,-1,82
 1033.06 275.711 1033.06 275.711 1048.5 331.723 c 128,-1,83
EndSplineSet
Validated: 524289
EndChar

StartChar: divide
Encoding: 441 247 185
Width: 1228
Flags: W
LayerCount: 2
Fore
SplineSet
693.282 1082.02 m 128,-1,1
 719 1056.9 719 1056.9 719 1022.05 c 0,2,3
 719 987.5 719 987.5 694.138 961.395 c 0,4,5
 669 935 669 935 632.5 935 c 128,-1,6
 596.103 935 596.103 935 570.985 960.718 c 128,-1,7
 546 986.298 546 986.298 546 1022 c 0,8,9
 546 1058 546 1058 571.839 1082.63 c 0,10,11
 597.396 1107 597.396 1107 632.5 1107 c 128,-1,0
 667.702 1107 667.702 1107 693.282 1082.02 c 128,-1,1
1114 588 m 2,12,-1
 150 588 l 2,13,14
 136 588 136 588 136 602 c 2,15,-1
 136 660 l 2,16,17
 136 674 136 674 150 674 c 2,18,-1
 1114 674 l 2,19,20
 1128 674 1128 674 1128 660 c 2,21,-1
 1128 602 l 2,22,23
 1128 588 1128 588 1114 588 c 2,12,-1
692.544 302.743 m 0,24,25
 719 278.091 719 278.091 719 241.5 c 128,-1,26
 719 205.01 719 205.01 692.667 179.873 c 0,27,28
 666.61 155 666.61 155 632 155 c 128,-1,29
 597.298 155 597.298 155 571.718 179.985 c 128,-1,30
 546 205.104 546 205.104 546 241 c 128,-1,31
 546 276.897 546 276.897 571.718 302.015 c 128,-1,32
 597.298 327 597.298 327 632 327 c 128,-1,33
 666.511 327 666.511 327 692.544 302.743 c 0,24,25
EndSplineSet
Validated: 524289
EndChar

StartChar: oslash
Encoding: 442 248 186
Width: 1228
Flags: W
LayerCount: 2
Fore
SplineSet
897.081 777.273 m 1,0,1
 845.107 811.853 845.107 811.853 777.959 832.096 c 0,2,3
 711.933 852 711.933 852 621 852 c 0,4,5
 530.684 852 530.684 852 447.673 818.991 c 0,6,7
 367.986 787.303 367.986 787.303 314.787 731.258 c 0,8,9
 313.552 728.835 313.552 728.835 312.154 727.362 c 0,10,11
 200 609.202 200 609.202 200 446 c 0,12,13
 200 293.976 200 293.976 292.757 184.839 c 1,14,15
 567.93 455.021 567.93 455.021 897.081 777.273 c 1,0,1
1158 446 m 0,16,17
 1158 293.86 1158 293.86 1075.31 171.663 c 0,18,19
 1074.71 169.879 1074.71 169.879 1073.77 168.416 c 0,20,21
 976.637 17.7083 976.637 17.7083 777.201 -29.1292 c 0,22,23
 709.622 -45 709.622 -45 608.5 -45 c 0,24,25
 506.299 -45 506.299 -45 405.289 -4.49412 c 0,26,27
 343.473 20.2949 343.473 20.2949 294.732 56.2082 c 1,28,-1
 206.801 -29.9971 l 2,29,30
 196.902 -39.7013 196.902 -39.7013 187.101 -29.8995 c 0,31,32
 183.334 -26.1328 183.334 -26.1328 139.583 13.6408 c 0,33,34
 135.13 17.6889 135.13 17.6889 135.117 23.9142 c 128,-1,35
 135.104 30.1396 135.104 30.1396 139.187 33.9848 c 0,36,37
 180.702 74.7844 180.702 74.7844 226.387 119.662 c 1,38,39
 106 258.096 106 258.096 106 446 c 0,40,41
 106 646.359 106 646.359 238.801 787.59 c 0,42,43
 380.232 938 380.232 938 632 938 c 0,44,45
 760.744 938 760.744 938 862.778 896.467 c 0,46,47
 917.082 874.363 917.082 874.363 962.771 841.581 c 1,48,49
 998.523 876.569 998.523 876.569 1057.21 934.006 c 0,50,51
 1066.89 943.484 1066.89 943.484 1076.68 934.112 c 2,52,-1
 1123.68 889.112 l 2,53,54
 1128 884.614 1128 884.614 1127.82 878.693 c 128,-1,55
 1127.65 872.771 1127.65 872.771 1123.8 869.003 c 2,56,-1
 1032.27 779.273 l 1,57,58
 1090.32 714.544 1090.32 714.544 1124.56 626.052 c 0,59,60
 1158 539.615 1158 539.615 1158 446 c 0,16,17
1064 452.786 m 0,61,62
 1064 517.073 1064 517.073 1034.86 596.16 c 0,63,64
 1034.1 598.241 1034.1 598.241 1033.98 601.345 c 0,65,66
 1009.58 666.748 1009.58 666.748 967.331 715.604 c 1,67,-1
 360.945 121.121 l 1,68,69
 470.167 41 470.167 41 632 41 c 0,70,71
 809.421 41 809.421 41 924.907 139.645 c 0,72,73
 1064 258.454 1064 258.454 1064 452.786 c 0,61,62
EndSplineSet
Validated: 524289
EndChar

